<?xml version="1.0" encoding="UTF-8" standalone="no"?>
<!DOCTYPE svg PUBLIC "-//W3C//DTD SVG 20010904//EN"
              "http://www.w3.org/TR/2001/REC-SVG-20010904/DTD/svg10.dtd">

<svg xmlns="http://www.w3.org/2000/svg"
     width="3.86667in" height="3.8in"
     viewBox="0 0 348 342">
  <path id="Selection"
        fill="none" stroke="black" stroke-width="1"
        d="M 102.00,0.39
           C 90.72,3.04 83.09,10.32 76.01,19.17
             67.17,30.20 59.34,46.47 59.50,60.83
             59.62,70.77 63.42,82.62 68.97,90.83
             77.55,103.54 99.34,114.40 100.22,130.00
             100.32,131.63 99.72,134.79 101.50,135.69
             103.15,136.53 104.97,135.04 106.16,134.04
             106.16,134.04 115.82,123.37 115.82,123.37
             124.66,113.57 137.15,108.97 149.50,105.35
             156.40,103.33 166.52,101.19 169.00,93.33
             171.52,85.32 158.79,76.27 152.83,73.15
             145.49,69.32 132.68,65.28 124.50,63.51
             118.03,62.11 110.22,61.59 105.51,56.58
             95.22,45.65 99.57,27.52 103.95,15.00
             103.95,15.00 108.71,3.38 108.71,3.38
             108.85,-0.43 104.48,0.08 102.00,0.39 Z
           M 97.85,10.83
           C 90.93,28.07 82.66,48.58 97.85,64.16
             100.27,66.62 102.95,69.02 106.17,70.32
             106.17,70.32 121.17,73.68 121.17,73.68
             128.31,75.29 137.83,78.39 144.50,81.38
             150.36,84.02 156.48,86.93 158.67,93.33
             148.13,97.95 141.45,97.64 129.50,105.05
             116.72,112.98 116.52,117.36 109.50,122.50
             105.09,106.32 89.12,98.34 81.43,89.17
             72.96,79.03 69.44,66.32 69.50,53.33
             69.53,45.85 72.22,38.46 75.22,31.67
             80.03,20.78 85.17,12.82 97.85,10.83 Z
           M 280.33,52.86
           C 269.97,54.55 260.22,57.59 252.00,64.43
             243.67,71.38 238.27,80.97 229.50,87.37
             226.40,89.63 221.68,92.52 217.83,93.02
             215.02,93.41 211.15,91.85 210.05,95.12
             209.21,97.62 211.27,99.92 212.88,101.53
             212.88,101.53 224.36,111.74 224.36,111.74
             237.34,125.18 237.77,138.34 244.02,154.17
             246.07,159.33 250.92,164.80 257.00,163.99
             262.77,163.22 267.74,157.86 270.88,153.33
             278.19,142.77 281.83,129.95 284.50,117.50
             285.74,111.70 286.19,105.39 290.49,100.92
             300.63,90.36 317.32,93.96 329.50,98.06
             333.19,99.30 343.74,105.45 346.50,102.82
             348.12,101.28 347.88,97.86 347.58,95.83
             346.64,89.37 342.96,83.07 338.59,78.33
             324.20,62.71 302.17,50.16 280.33,52.86 Z
           M 334.50,89.17
           C 334.50,89.17 322.83,85.36 322.83,85.36
             309.94,81.66 294.52,79.70 283.67,89.32
             281.32,91.39 279.01,93.97 277.40,96.67
             274.82,100.99 274.53,106.04 273.36,110.83
             270.55,122.26 269.97,125.55 265.32,136.67
             263.01,142.22 259.81,149.02 253.67,150.83
             250.91,138.74 246.30,126.59 238.75,116.67
             238.75,116.67 227.00,104.17 227.00,104.17
             234.21,100.32 238.61,97.63 244.47,91.66
             249.72,86.29 253.45,80.19 259.50,75.43
             269.17,67.82 281.46,64.03 293.67,64.17
             300.82,64.25 309.72,67.61 316.17,70.65
             325.41,75.02 331.52,78.73 334.50,89.17 Z
           M 169.50,119.34
           C 154.07,121.85 148.80,124.39 137.87,135.83
             133.85,140.03 129.65,145.44 127.38,150.83
             125.03,156.43 122.56,169.88 122.98,175.83
             124.42,196.11 132.01,213.52 152.83,220.53
             157.62,222.15 163.62,223.27 168.67,223.33
             179.67,223.46 189.10,222.93 198.67,216.58
             202.26,214.19 205.61,210.57 208.67,207.50
             211.51,204.65 215.33,200.90 217.44,197.50
             217.44,197.50 220.55,190.83 220.55,190.83
             223.86,183.77 226.67,174.50 226.97,166.67
             227.69,148.03 215.87,129.83 198.67,122.88
             191.45,119.96 183.88,119.16 176.17,119.34
             176.17,119.34 169.50,119.34 169.50,119.34 Z
           M 169.50,129.17
           C 169.50,129.17 156.52,154.17 156.52,154.17
             156.52,154.17 150.99,162.49 150.99,162.49
             150.99,162.49 145.33,162.49 145.33,162.49
             145.33,162.49 133.67,162.49 133.67,162.49
             133.73,155.31 136.33,144.60 141.34,139.25
             147.57,132.60 160.61,129.36 169.50,129.17 Z
           M 216.17,164.17
           C 216.17,164.17 202.17,163.32 202.17,163.32
             202.17,163.32 195.95,153.33 195.95,153.33
             195.95,153.33 183.67,130.00 183.67,130.00
             197.01,131.88 206.22,137.79 212.20,150.00
             214.48,154.65 215.91,158.97 216.17,164.17 Z
           M 174.50,135.00
           C 174.50,135.00 188.67,163.33 188.67,163.33
             188.67,163.33 158.67,163.33 158.67,163.33
             158.67,163.33 168.18,145.00 168.18,145.00
             168.18,145.00 174.50,135.00 174.50,135.00 Z
           M 146.17,172.50
           C 146.17,172.50 137.00,190.00 137.00,190.00
             133.91,184.95 133.60,178.29 132.83,172.50
             132.83,172.50 146.17,172.50 146.17,172.50 Z
           M 204.50,193.33
           C 204.50,193.33 176.17,193.33 176.17,193.33
             176.17,193.33 162.00,192.50 162.00,192.50
             162.00,192.50 142.83,192.50 142.83,192.50
             142.83,192.50 152.83,172.50 152.83,172.50
             152.83,172.50 189.50,173.33 189.50,173.33
             189.50,173.33 194.06,174.16 194.06,174.16
             194.06,174.16 198.03,180.00 198.03,180.00
             198.03,180.00 204.50,193.33 204.50,193.33 Z
           M 217.00,174.17
           C 217.00,174.17 213.67,186.67 213.67,186.67
             213.67,186.67 207.00,174.17 207.00,174.17
             207.00,174.17 217.00,174.17 217.00,174.17 Z
           M 90.33,178.87
           C 75.73,184.38 68.14,205.93 64.61,220.00
             64.61,220.00 60.19,238.33 60.19,238.33
             55.97,246.56 46.97,248.37 38.67,248.33
             30.92,248.30 21.61,245.65 14.50,242.61
             11.51,241.32 6.06,237.61 2.95,239.22
             0.22,240.64 -0.08,243.97 0.24,246.67
             0.94,252.64 4.08,258.56 7.63,263.33
             17.47,276.56 42.68,291.47 59.50,291.67
             76.09,291.86 90.77,286.64 102.80,274.92
             111.44,266.51 119.80,251.02 133.67,251.24
             137.35,251.30 141.97,249.73 140.10,245.00
             139.21,242.73 136.31,240.52 134.50,238.93
             130.33,235.29 126.02,231.80 122.52,227.50
             110.61,212.87 111.00,198.91 105.41,187.50
             102.51,181.60 96.97,177.56 90.33,178.87 Z
           M 94.50,193.33
           C 96.90,203.96 101.28,216.20 107.77,225.00
             107.77,225.00 120.33,239.17 120.33,239.17
             103.69,247.28 99.64,258.13 91.16,265.58
             81.35,274.18 65.90,279.59 52.83,278.19
             49.00,277.77 39.03,274.55 35.33,272.97
             26.53,269.24 19.01,264.73 16.17,255.00
             24.28,258.44 27.38,259.61 36.17,261.16
             39.56,261.75 46.90,261.99 50.37,261.62
             59.81,260.58 70.28,252.80 74.06,244.17
             74.06,244.17 83.33,210.00 83.33,210.00
             85.76,203.91 88.64,196.79 94.50,193.33 Z
           M 205.33,203.33
           C 195.32,215.12 170.47,215.49 157.00,210.32
             152.20,208.47 147.88,206.47 144.50,202.50
             144.50,202.50 173.67,202.50 173.67,202.50
             173.67,202.50 187.00,203.33 187.00,203.33
             187.00,203.33 205.33,203.33 205.33,203.33 Z
           M 246.17,202.57
           C 239.57,206.84 235.85,215.25 226.17,222.02
             214.37,230.28 203.14,231.62 190.33,236.42
             185.75,238.12 179.75,243.01 179.67,248.33
             179.58,255.17 186.84,261.57 192.00,265.00
             200.92,270.91 213.25,275.12 223.67,277.60
             230.69,279.27 239.32,279.48 244.32,285.03
             254.07,295.85 249.17,313.72 244.76,325.83
             243.79,328.48 240.05,335.37 240.18,337.42
             240.62,344.46 252.62,340.54 256.17,338.90
             264.22,335.15 269.84,329.24 275.40,322.50
             282.73,313.60 291.45,296.53 292.69,285.00
             293.58,276.71 291.41,266.02 288.29,258.33
             281.89,242.54 274.95,239.72 263.67,229.09
             259.60,225.27 254.21,218.77 252.66,213.33
             251.41,208.97 252.80,206.58 251.72,204.45
             250.42,201.92 248.47,202.07 246.17,202.57 Z
           M 240.33,220.83
           C 243.52,227.38 247.55,233.21 252.84,238.26
             259.06,244.19 265.04,247.56 270.30,255.00
             277.50,265.19 279.64,275.26 279.50,287.50
             279.42,293.63 277.12,300.17 274.83,305.83
             270.67,316.11 267.02,322.52 256.17,326.67
             257.82,317.86 263.04,312.72 262.83,295.00
             262.78,291.14 262.49,289.47 261.12,285.83
             258.33,278.50 252.60,271.62 245.33,268.39
             245.33,268.39 230.33,264.82 230.33,264.82
             218.77,262.32 200.83,257.28 193.67,247.50
             204.77,243.87 213.62,242.14 223.67,235.40
             234.82,227.92 234.05,225.43 240.33,220.83 Z" />
</svg>
