<?xml version="1.0" encoding="UTF-8" standalone="no"?>
<!DOCTYPE svg PUBLIC "-//W3C//DTD SVG 20010904//EN"
              "http://www.w3.org/TR/2001/REC-SVG-20010904/DTD/svg10.dtd">

<svg xmlns="http://www.w3.org/2000/svg"
     width="2.34444in" height="4.17778in"
     viewBox="0 0 211 376">
  <path id="Selection"
        fill="none" stroke="black" stroke-width="1"
        d="M 91.17,152.33
           C 89.87,151.52 88.69,150.98 87.85,149.61
             86.53,147.45 86.99,139.37 87.00,136.50
             87.00,136.50 87.79,124.00 87.79,124.00
             87.79,124.00 87.79,110.67 87.79,110.67
             87.79,110.67 87.00,100.67 87.00,100.67
             87.00,100.67 87.00,85.67 87.00,85.67
             87.00,85.67 86.24,75.67 86.24,75.67
             85.26,61.30 84.67,46.12 80.03,32.33
             78.52,27.83 73.17,16.62 67.01,20.35
             65.42,21.31 63.70,23.41 62.49,24.83
             54.90,33.79 54.40,38.76 52.32,49.83
             48.97,67.77 48.17,85.87 46.92,104.00
             46.92,104.00 46.17,112.33 46.17,112.33
             46.17,112.33 45.33,132.33 45.33,132.33
             45.33,132.33 44.50,148.17 44.50,148.17
             44.50,148.17 43.67,160.67 43.67,160.67
             43.67,160.67 42.83,183.17 42.83,183.17
             42.83,183.17 42.00,195.67 42.00,195.67
             42.00,195.67 42.00,225.67 42.00,225.67
             42.02,238.97 45.79,265.12 52.38,276.50
             56.77,284.07 59.51,285.14 65.33,290.70
             75.87,300.76 85.34,306.47 100.33,306.50
             100.33,306.50 105.33,306.50 105.33,306.50
             117.82,306.35 134.54,298.86 143.66,290.52
             156.99,278.32 168.58,254.77 168.67,236.50
             168.72,225.51 167.87,218.06 160.73,209.00
             158.22,205.79 153.92,201.61 150.33,199.62
             141.62,194.82 127.63,193.89 117.83,194.00
             111.97,194.07 106.31,195.60 101.17,198.42
             95.85,201.35 94.05,203.63 90.27,208.17
             80.61,219.73 78.49,226.57 78.67,241.50
             78.86,256.98 93.61,261.41 98.67,260.27
             102.43,259.43 107.75,253.05 109.74,249.83
             111.41,247.14 112.05,243.81 111.92,240.67
             111.78,237.60 110.50,234.42 113.19,231.98
             115.27,230.11 129.02,226.32 130.89,237.33
             133.39,252.12 112.53,272.90 97.83,269.20
             93.84,268.19 90.29,266.32 87.01,263.87
             74.98,254.88 73.60,242.88 73.67,229.00
             73.71,220.83 76.32,210.44 81.61,204.07
             84.98,200.01 90.63,196.94 95.33,194.63
             110.78,187.02 129.32,184.53 145.33,191.76
             162.07,199.31 168.85,211.07 172.73,228.17
             173.85,233.09 175.27,242.38 175.33,247.33
             175.53,264.51 174.25,283.16 163.22,297.33
             156.97,305.38 145.72,311.36 136.17,314.56
             115.52,321.47 92.51,323.72 73.67,310.63
             52.16,295.69 43.64,265.37 40.11,240.67
             40.11,240.67 37.83,218.17 37.83,218.17
             37.83,218.17 37.83,199.00 37.83,199.00
             37.83,199.00 38.67,188.17 38.67,188.17
             38.67,188.17 38.67,158.17 38.67,158.17
             38.65,148.69 36.49,129.75 32.15,121.50
             28.89,115.32 22.90,110.43 16.17,115.26
             14.25,116.64 12.47,118.84 10.97,120.67
             3.01,130.29 2.06,140.35 1.10,152.33
             1.10,152.33 0.33,160.67 0.33,160.67
             0.33,160.67 0.33,193.17 0.33,193.17
             0.33,193.17 1.17,209.83 1.17,209.83
             1.17,209.83 1.92,218.17 1.92,218.17
             1.92,218.17 6.87,270.67 6.87,270.67
             8.77,288.56 10.28,313.16 18.57,329.00
             32.51,355.60 56.44,369.29 85.33,374.07
             90.56,374.93 95.87,375.66 101.17,375.67
             101.17,375.67 109.50,375.67 109.50,375.67
             109.50,375.67 129.50,373.31 129.50,373.31
             138.14,372.48 138.87,374.12 148.67,370.47
             160.56,366.05 169.07,358.74 178.67,350.83
             178.67,350.83 185.33,346.17 185.33,346.17
             189.74,342.65 195.57,334.89 198.26,329.83
             205.50,316.18 207.67,296.77 208.74,281.50
             208.74,281.50 209.50,273.17 209.50,273.17
             209.50,273.17 210.33,254.83 210.33,254.83
             210.33,254.83 210.33,223.17 210.33,223.17
             210.33,223.17 209.50,209.00 209.50,209.00
             209.50,209.00 207.69,182.33 207.69,182.33
             207.69,182.33 205.41,164.00 205.41,164.00
             205.41,164.00 206.17,149.83 206.17,149.83
             206.17,149.83 207.02,137.33 207.02,137.33
             207.02,137.33 207.02,124.83 207.02,124.83
             207.02,124.83 207.83,114.00 207.83,114.00
             207.83,114.00 207.00,94.00 207.00,94.00
             207.00,94.00 205.93,74.83 205.93,74.83
             205.23,69.13 203.78,57.07 197.00,55.44
             194.17,54.77 191.62,57.20 189.86,59.07
             185.42,63.81 182.43,67.99 180.00,74.00
             176.86,81.78 176.11,93.78 175.20,102.33
             175.20,102.33 172.00,133.17 172.00,133.17
             172.00,133.17 172.00,147.33 172.00,147.33
             169.63,140.86 170.34,134.96 170.20,128.17
             170.20,128.17 170.20,120.67 170.20,120.67
             170.20,120.67 170.20,104.00 170.20,104.00
             170.20,104.00 171.77,89.00 171.77,89.00
             171.77,89.00 173.67,64.83 173.67,64.83
             173.77,56.20 174.11,42.00 171.63,34.00
             170.68,30.93 168.12,25.63 164.47,25.37
             161.54,25.15 157.44,28.26 155.34,30.08
             149.11,35.52 144.23,42.94 141.36,50.67
             134.59,68.82 134.92,100.62 132.97,120.67
             132.35,127.09 132.60,141.87 128.67,146.50
             128.67,146.50 132.83,94.83 132.83,94.83
             132.83,94.83 133.67,82.33 133.67,82.33
             133.67,82.33 133.67,43.17 133.67,43.17
             133.66,35.35 131.65,17.73 128.81,10.67
             127.42,7.22 124.13,1.57 120.33,0.53
             116.41,-0.54 113.27,3.91 111.10,6.50
             103.61,15.47 101.74,21.98 99.32,33.17
             91.76,68.24 91.17,116.09 91.17,152.33 Z
           M 116.17,9.83
           C 121.17,19.58 123.53,33.05 123.67,44.00
             123.67,44.00 124.50,69.00 124.50,69.00
             124.50,69.00 123.67,83.17 123.67,83.17
             123.67,83.17 121.24,125.67 121.24,125.67
             121.24,125.67 120.10,140.67 120.10,140.67
             119.84,142.84 118.92,148.78 119.40,150.67
             120.51,155.04 127.05,158.53 131.97,155.19
             140.92,149.10 140.24,140.07 141.40,130.67
             141.40,130.67 143.74,101.50 143.74,101.50
             143.74,101.50 144.50,91.50 144.50,91.50
             144.50,91.50 146.88,65.67 146.88,65.67
             147.69,58.78 150.32,43.41 154.84,38.34
             156.47,36.52 158.18,35.82 160.33,34.83
             166.11,52.17 163.67,76.68 161.86,94.83
             161.86,94.83 160.33,110.67 160.33,110.67
             160.33,110.67 160.33,139.00 160.33,139.00
             160.34,144.61 161.12,159.04 164.73,163.07
             169.50,168.42 173.42,166.08 177.34,161.48
             178.57,160.04 180.03,158.29 180.67,156.50
             181.27,154.84 181.17,152.44 181.17,150.67
             181.17,150.67 182.00,124.83 182.00,124.83
             182.00,124.83 185.21,95.67 185.21,95.67
             186.52,84.65 186.50,74.77 192.00,64.83
             195.73,70.07 195.64,77.79 196.40,84.00
             196.40,84.00 197.07,95.67 197.07,95.67
             197.07,95.67 197.83,104.83 197.83,104.83
             197.83,104.83 197.83,124.00 197.83,124.00
             197.83,124.00 197.00,136.50 197.00,136.50
             197.00,136.50 195.60,166.50 195.60,166.50
             195.60,166.50 196.94,179.00 196.94,179.00
             196.94,179.00 199.50,211.50 199.50,211.50
             199.50,211.50 200.33,224.00 200.33,224.00
             200.33,224.00 200.33,264.00 200.33,264.00
             200.33,264.00 199.50,279.00 199.50,279.00
             199.48,288.54 197.17,305.41 195.04,314.83
             193.65,321.01 191.39,330.41 187.86,335.63
             186.20,338.09 178.88,343.77 176.17,345.99
             167.85,352.77 155.93,360.36 145.33,362.61
             145.33,362.61 126.17,364.14 126.17,364.14
             126.17,364.14 114.50,365.67 114.50,365.67
             114.50,365.67 104.50,365.67 104.50,365.67
             83.07,365.63 54.77,356.27 39.86,340.52
             21.43,321.07 20.67,298.82 17.71,274.00
             17.71,274.00 11.92,215.67 11.92,215.67
             11.92,215.67 11.17,207.33 11.17,207.33
             11.17,207.33 10.33,190.67 10.33,190.67
             10.31,174.58 9.58,158.32 11.30,142.33
             11.75,138.14 13.07,130.42 14.44,126.54
             15.56,123.38 17.92,122.31 20.71,124.62
             24.52,127.79 26.42,139.11 27.11,144.00
             29.52,161.31 28.87,179.04 28.67,196.50
             28.67,196.50 27.87,204.83 27.87,204.83
             27.87,204.83 27.87,219.00 27.87,219.00
             27.87,219.00 28.59,229.00 28.59,229.00
             30.19,251.92 34.97,278.54 47.58,298.17
             54.93,309.60 64.55,319.47 77.00,325.26
             82.46,327.80 90.98,329.76 97.00,329.83
             128.89,330.20 153.82,319.97 172.66,293.17
             183.38,277.92 185.54,262.09 185.33,244.00
             185.23,235.81 182.11,217.15 178.75,209.83
             173.82,199.11 161.07,186.63 150.33,181.76
             121.17,168.52 82.45,186.45 68.64,214.00
             64.42,222.43 63.56,229.72 63.67,239.00
             63.83,252.92 68.12,260.23 77.83,269.83
             83.40,275.33 90.39,280.13 98.67,279.51
             110.94,278.58 123.88,264.58 131.23,255.67
             134.69,251.47 138.07,246.76 139.69,241.50
             145.22,223.55 128.07,214.90 114.50,222.63
             109.95,225.23 102.86,232.92 101.94,238.17
             101.94,238.17 101.94,250.67 101.94,250.67
             92.94,249.05 88.79,247.22 88.67,237.33
             88.57,229.49 88.90,217.18 94.33,210.98
             98.47,206.25 107.60,204.07 113.67,204.00
             123.47,203.89 138.80,204.70 147.00,210.50
             150.82,213.21 153.04,216.54 155.11,220.67
             162.42,235.31 158.92,251.94 153.17,266.50
             151.17,271.54 148.16,278.99 144.22,282.73
             137.12,289.52 120.27,296.38 110.33,296.50
             110.33,296.50 102.83,296.50 102.83,296.50
             89.95,296.34 80.10,290.23 71.17,281.51
             67.26,277.70 65.00,276.46 62.26,271.50
             55.88,259.95 52.02,236.43 52.00,223.17
             52.00,223.17 52.00,188.17 52.00,188.17
             52.00,188.17 52.87,175.67 52.87,175.67
             52.87,175.67 52.87,167.33 52.87,167.33
             52.87,167.33 53.67,159.00 53.67,159.00
             53.67,159.00 54.50,134.83 54.50,134.83
             54.50,134.83 55.33,120.67 55.33,120.67
             55.33,120.67 56.17,108.17 56.17,108.17
             56.17,108.17 56.92,96.50 56.92,96.50
             56.92,96.50 59.37,64.83 59.37,64.83
             60.47,54.46 62.15,39.27 66.17,29.83
             71.93,35.67 73.48,50.90 74.61,59.00
             76.13,70.01 76.98,82.88 77.00,94.00
             77.00,94.00 77.83,108.17 77.83,108.17
             77.83,108.17 77.83,138.17 77.83,138.17
             77.82,143.79 75.40,152.88 78.92,157.30
             84.80,164.65 91.86,163.03 97.34,156.50
             98.57,155.03 100.02,153.32 100.67,151.50
             101.27,149.84 101.17,147.44 101.17,145.67
             101.17,145.67 101.17,112.33 101.17,112.33
             101.17,112.33 101.97,102.33 101.97,102.33
             101.97,102.33 101.97,92.33 101.97,92.33
             101.97,92.33 102.80,82.33 102.80,82.33
             102.80,82.33 105.94,46.50 105.94,46.50
             107.10,38.37 108.62,28.48 110.93,20.67
             112.18,16.47 113.03,13.01 116.17,9.83 Z" />
</svg>
