<?xml version="1.0" encoding="UTF-8" standalone="no"?>
<!DOCTYPE svg PUBLIC "-//W3C//DTD SVG 20010904//EN"
              "http://www.w3.org/TR/2001/REC-SVG-20010904/DTD/svg10.dtd">

<svg xmlns="http://www.w3.org/2000/svg"
     width="3.3in" height="3.28889in"
     viewBox="0 0 297 296">
  <path id="Selection #2"
        fill="none" stroke="black" stroke-width="1"
        d="M 44.00,0.69
           C 38.43,1.60 34.99,2.08 29.83,4.72
             25.62,6.88 23.11,9.40 19.91,12.83
             11.57,21.77 7.63,28.69 7.34,41.17
             7.26,45.01 7.73,49.98 8.82,53.67
             9.84,57.12 11.98,60.89 14.28,63.67
             18.30,68.55 23.76,73.44 29.83,75.53
             44.10,80.44 49.06,74.38 64.83,82.65
             73.86,87.38 78.72,95.06 84.83,102.83
             91.54,111.37 104.36,126.08 104.80,137.00
             104.80,137.00 104.22,148.67 104.22,148.67
             104.76,152.17 106.82,155.40 106.42,161.17
             105.93,168.15 101.50,172.32 96.50,176.65
             96.50,176.65 73.17,196.38 73.17,196.38
             67.68,200.94 63.00,205.51 55.67,206.73
             50.12,207.66 44.52,205.79 39.00,205.51
             32.59,205.17 21.88,207.23 16.50,210.83
             11.99,213.85 7.33,218.85 4.99,223.67
             -1.60,235.94 -1.32,255.63 4.99,267.83
             8.35,273.83 16.60,281.13 22.33,284.74
             32.76,291.32 50.47,292.25 61.50,286.68
             66.36,284.23 73.43,277.47 76.21,272.83
             79.98,266.52 81.50,259.25 82.19,252.00
             82.76,246.08 81.53,244.12 83.75,237.83
             88.93,223.12 102.90,214.81 114.83,205.86
             124.72,198.43 130.32,192.69 143.17,192.97
             145.36,192.86 149.88,193.52 151.50,192.97
             154.72,192.27 159.22,187.50 166.50,189.68
             174.07,191.97 180.38,201.06 185.44,207.00
             185.44,207.00 199.34,223.67 199.34,223.67
             203.65,228.84 206.97,231.89 208.38,238.67
             210.38,246.27 208.25,248.22 208.38,255.33
             208.07,263.18 207.77,268.82 211.35,276.17
             214.39,282.40 220.32,288.08 226.50,291.17
             238.21,297.03 259.40,296.73 270.67,289.93
             274.73,287.48 277.97,283.93 281.01,280.33
             288.67,271.24 291.58,264.74 292.26,252.83
             292.42,250.02 292.00,248.06 291.61,245.33
             288.73,225.31 271.52,214.53 252.33,214.50
             229.73,214.46 220.97,199.19 208.69,182.83
             204.91,177.79 197.51,168.52 195.71,162.83
             192.53,152.77 195.46,150.72 194.97,145.33
             194.68,142.24 189.87,133.62 191.62,127.83
             193.19,122.65 199.12,118.32 203.17,114.85
             203.17,114.85 224.00,97.34 224.00,97.34
             229.83,92.49 233.82,88.30 241.50,86.59
             247.73,85.21 252.83,87.10 259.00,87.57
             261.49,87.75 263.22,87.29 265.67,87.06
             269.90,86.67 274.29,86.03 278.17,84.17
             290.59,78.19 296.34,64.27 296.50,51.17
             296.60,42.05 295.82,32.36 290.70,24.50
             286.76,18.45 276.57,10.12 269.83,7.38
             259.22,3.06 242.71,3.36 233.17,10.16
             223.04,17.38 217.48,28.86 217.33,41.17
             217.26,47.92 217.62,49.46 215.37,56.17
             214.37,59.12 212.77,62.81 210.97,65.33
             205.61,72.82 186.37,86.98 178.17,92.83
             170.91,98.01 166.69,101.88 157.33,101.89
             157.33,101.89 146.50,101.89 146.50,101.89
             143.30,102.57 139.57,107.22 133.17,106.17
             125.95,105.00 121.49,99.76 116.98,94.50
             116.98,94.50 99.34,73.67 99.34,73.67
             96.08,69.75 91.61,64.92 89.57,60.33
             84.56,49.07 89.33,42.60 88.73,34.50
             88.32,29.13 87.72,23.58 85.39,18.67
             77.84,2.77 60.03,-1.29 44.00,0.69 Z
           M 44.00,10.33
           C 43.84,17.65 40.87,29.04 35.49,34.22
             31.54,38.04 22.72,41.61 17.33,42.83
             17.33,35.36 17.11,24.15 22.04,17.98
             26.33,12.61 37.41,10.47 44.00,10.33 Z
           M 54.00,10.33
           C 60.59,12.36 66.09,12.61 71.42,17.92
             77.04,23.53 79.28,33.41 78.97,41.17
             78.87,43.75 77.22,52.33 76.12,54.50
             72.12,62.42 61.76,67.79 53.17,67.83
             40.48,67.89 22.92,65.52 19.83,50.33
             31.47,47.01 44.32,32.60 49.61,22.00
             49.61,22.00 54.00,10.33 54.00,10.33 Z
           M 284.83,41.17
           C 269.25,40.44 257.35,32.21 254.83,16.17
             261.34,16.17 270.93,16.09 276.42,20.08
             282.02,24.15 284.30,34.59 284.83,41.17 Z
           M 244.83,18.67
           C 247.99,29.71 260.32,40.64 269.83,46.54
             269.83,46.54 283.17,52.60 283.17,52.60
             283.95,53.63 283.88,54.97 283.72,56.18
             281.40,73.77 262.85,78.11 248.17,74.92
             246.05,74.47 244.32,74.44 242.33,73.41
             237.52,70.91 231.16,62.23 229.66,57.00
             227.32,48.88 229.52,33.06 234.66,26.20
             237.25,22.73 241.01,20.53 244.83,18.67 Z
           M 78.17,60.33
           C 80.11,68.60 84.90,73.15 90.17,79.50
             90.17,79.50 107.11,99.50 107.11,99.50
             111.48,104.60 117.27,111.33 123.17,114.50
             120.52,118.44 117.38,123.03 113.17,125.33
             111.34,119.09 104.97,111.50 100.97,106.17
             90.74,92.52 82.43,79.90 67.33,71.17
             67.33,71.17 78.17,60.33 78.17,60.33 Z
           M 225.67,67.00
           C 225.67,67.00 233.17,76.17 233.17,76.17
             225.88,77.90 220.45,83.50 214.83,88.17
             205.99,95.53 188.75,109.35 182.33,117.83
             178.95,115.40 177.47,114.15 175.67,110.33
             183.96,104.81 207.42,87.50 214.00,81.13
             220.51,74.83 221.86,70.73 225.67,67.00 Z
           M 183.17,147.00
           C 183.17,147.00 181.74,154.50 181.74,154.50
             181.74,154.50 181.22,162.00 181.22,162.00
             180.32,167.17 176.51,173.44 171.50,175.46
             171.50,175.46 154.00,177.00 154.00,177.00
             154.00,174.02 153.69,164.20 154.50,162.00
             156.82,155.66 170.27,149.01 163.42,138.67
             162.50,137.28 161.04,135.72 159.82,134.59
             157.64,132.58 156.74,132.10 154.00,131.17
             154.00,131.17 154.00,114.50 154.00,114.50
             162.95,115.31 174.48,121.63 177.88,130.33
             180.20,136.26 177.98,141.55 183.17,147.00 Z
           M 144.00,115.33
           C 144.00,115.33 144.00,127.83 144.00,127.83
             143.97,129.65 143.98,131.15 143.15,132.83
             140.16,138.87 127.99,145.38 134.58,155.33
             135.50,156.72 136.96,158.28 138.18,159.41
             140.36,161.42 141.26,161.90 144.00,162.83
             144.00,162.83 144.00,179.50 144.00,179.50
             135.47,179.31 124.71,173.62 121.38,165.33
             121.38,165.33 119.07,152.83 119.07,152.83
             119.07,152.83 115.89,144.50 115.89,144.50
             114.85,139.02 117.96,128.94 121.20,124.51
             126.75,116.92 135.37,116.03 144.00,115.33 Z
           M 144.00,141.17
           C 144.00,141.17 144.00,150.33 144.00,150.33
             142.05,146.97 142.34,144.92 142.33,141.17
             142.33,141.17 144.00,141.17 144.00,141.17 Z
           M 154.83,144.50
           C 154.83,144.50 155.67,152.83 155.67,152.83
             155.67,152.83 154.00,152.83 154.00,152.83
             154.00,152.83 154.83,144.50 154.83,144.50 Z
           M 184.00,170.33
           C 185.97,176.54 191.82,183.40 195.77,188.67
             204.72,200.61 214.75,215.92 228.17,222.83
             228.17,222.83 220.67,230.33 220.67,230.33
             215.28,218.99 205.96,209.89 197.96,200.33
             192.33,193.61 184.74,183.82 177.33,179.50
             177.33,179.50 184.00,170.33 184.00,170.33 Z
           M 117.33,177.00
           C 117.33,177.00 122.33,182.83 122.33,182.83
             115.68,186.66 102.97,196.61 96.50,201.65
             88.26,208.07 78.01,215.92 73.17,225.33
             73.17,225.33 66.50,218.67 66.50,218.67
             76.57,213.76 96.67,195.82 105.67,187.69
             109.65,184.09 112.93,180.15 117.33,177.00 Z
           M 54.00,273.67
           C 44.87,256.19 33.27,247.31 14.83,241.17
             15.48,236.54 16.72,231.68 19.53,227.84
             22.92,223.22 28.48,220.64 34.00,219.57
             46.65,217.14 57.39,219.69 64.44,231.17
             67.28,235.78 67.32,237.62 67.33,242.83
             67.35,254.82 67.44,268.40 54.00,273.67 Z
           M 276.50,242.00
           C 273.40,243.62 270.17,245.21 267.33,247.25
             257.44,254.36 245.91,268.82 244.00,281.17
             238.03,281.11 231.90,279.47 227.49,275.16
             220.03,267.87 218.67,249.37 223.31,240.33
             225.52,236.04 234.32,229.52 239.00,228.30
             244.63,226.82 258.52,227.90 264.00,230.23
             270.54,233.02 273.08,235.92 276.50,242.00 Z
           M 42.33,277.00
           C 36.16,277.00 27.60,276.78 22.37,273.08
             16.64,269.04 14.97,260.23 14.83,253.67
             31.46,256.80 36.85,260.59 42.33,277.00 Z
           M 279.00,253.67
           C 279.00,260.13 279.29,269.03 275.12,274.42
             271.28,279.38 261.67,281.51 255.67,282.00
             256.36,267.22 263.91,256.40 279.00,253.67 Z" />
</svg>
