<?xml version="1.0" encoding="UTF-8" standalone="no"?>
<!DOCTYPE svg PUBLIC "-//W3C//DTD SVG 20010904//EN"
              "http://www.w3.org/TR/2001/REC-SVG-20010904/DTD/svg10.dtd">

<svg xmlns="http://www.w3.org/2000/svg"
     width="4.43333in" height="4.55556in"
     viewBox="0 0 399 410">
  <path id="Selection"
        fill="none" stroke="black" stroke-width="1"
        d="M 185.83,1.18
           C 167.55,3.95 158.29,10.61 141.67,17.33
             126.57,23.43 98.88,35.86 85.83,44.60
             69.35,55.65 55.69,70.45 43.33,85.83
             33.07,98.61 23.28,112.23 17.04,127.50
             11.56,140.93 6.69,159.64 6.67,174.17
             6.67,174.17 6.67,186.67 6.67,186.67
             6.67,186.67 8.62,205.83 8.62,205.83
             8.62,205.83 4.27,222.50 4.27,222.50
             2.57,229.57 0.92,242.77 0.83,250.00
             0.59,270.68 5.93,290.97 17.24,308.33
             22.53,316.45 29.23,323.57 35.60,330.83
             58.22,356.63 78.63,372.53 110.83,384.65
             125.62,390.21 141.46,390.05 156.67,394.07
             172.07,398.14 181.83,408.15 198.33,409.09
             210.47,409.78 218.92,403.52 229.17,398.55
             234.79,395.82 246.20,392.40 252.50,390.59
             303.14,376.03 355.90,350.26 381.40,301.67
             390.39,284.53 397.47,255.21 397.50,235.83
             397.50,235.83 397.50,220.00 397.50,220.00
             397.50,220.00 395.07,195.97 395.07,195.97
             395.13,192.34 397.45,192.82 397.50,183.33
             397.50,183.33 398.33,170.00 398.33,170.00
             398.33,170.00 397.50,156.67 397.50,156.67
             397.50,156.67 397.50,150.00 397.50,150.00
             397.42,131.67 383.35,107.46 373.33,92.50
             366.68,82.57 352.66,63.68 344.17,55.97
             318.57,32.72 288.83,21.33 255.00,16.44
             255.00,16.44 232.50,14.09 232.50,14.09
             232.50,14.09 225.00,14.09 225.00,14.09
             225.00,14.09 210.00,8.72 210.00,8.72
             202.89,5.32 198.92,-0.37 185.83,1.18 Z
           M 165.83,197.50
           C 165.83,197.50 200.00,218.33 200.00,218.33
             200.00,218.33 200.00,220.00 200.00,220.00
             200.00,220.00 177.50,235.57 177.50,235.57
             152.86,249.12 126.47,256.16 98.33,255.83
             88.51,255.72 77.32,252.06 68.33,248.21
             49.07,239.96 30.18,228.43 21.56,208.33
             15.77,194.83 16.64,181.74 16.67,167.50
             16.67,162.28 17.42,157.62 18.27,152.50
             24.53,114.62 48.97,78.32 80.00,56.19
             92.59,47.20 118.57,35.58 133.33,29.29
             133.33,29.29 150.83,21.78 150.83,21.78
             162.09,16.81 173.94,10.35 186.67,10.87
             196.63,11.27 199.31,15.69 204.17,18.23
             204.17,18.23 211.67,20.83 211.67,20.83
             214.11,21.67 219.47,23.31 219.49,26.52
             219.51,28.77 213.47,32.26 211.67,33.72
             201.47,41.96 198.18,46.82 184.17,46.67
             175.93,46.57 173.64,44.14 166.67,42.88
             161.38,41.93 153.46,42.97 148.33,44.53
             140.47,46.94 120.57,61.34 113.33,66.77
             82.89,89.61 57.72,114.50 48.44,152.50
             46.58,160.12 44.05,175.81 45.38,183.33
             49.52,206.65 73.70,219.74 95.83,220.00
             116.95,220.24 149.51,210.88 165.83,197.50 Z
           M 388.33,170.83
           C 388.33,170.83 380.41,158.33 380.41,158.33
             378.73,156.10 374.32,151.37 373.48,149.17
             373.48,149.17 372.15,135.83 372.15,135.83
             370.71,127.92 367.73,120.38 363.91,113.33
             358.58,103.51 350.10,92.25 343.23,83.33
             333.34,70.47 323.64,58.38 310.00,49.24
             288.28,34.69 256.62,27.92 230.83,25.83
             230.83,25.83 230.83,24.17 230.83,24.17
             261.17,25.56 295.31,34.79 320.83,51.41
             338.14,62.68 345.84,72.70 357.62,89.17
             368.04,103.73 381.55,125.11 385.92,142.50
             387.65,149.37 388.33,163.50 388.33,170.83 Z
           M 361.67,139.17
           C 352.52,134.71 348.11,130.90 337.50,127.52
             307.90,118.11 277.83,121.23 249.17,132.34
             238.86,136.33 227.62,142.09 218.33,148.07
             215.67,149.79 207.57,156.07 205.00,156.06
             202.83,156.05 195.72,151.49 193.33,150.19
             193.33,150.19 165.83,136.67 165.83,136.67
             141.32,126.56 113.08,117.88 86.67,125.36
             73.15,129.18 71.38,132.91 60.83,138.33
             62.17,132.48 64.62,127.02 67.29,121.67
             70.57,115.09 74.03,109.05 78.72,103.33
             86.87,93.40 107.39,77.71 118.33,69.88
             129.57,61.84 141.51,52.83 155.83,52.51
             167.45,52.25 177.92,59.51 189.17,55.75
             200.83,51.85 206.52,42.03 216.67,37.64
             220.08,36.17 223.82,35.98 227.50,35.91
             227.50,35.91 249.17,38.54 249.17,38.54
             271.87,42.32 297.36,50.95 315.00,66.08
             322.22,72.27 333.02,86.94 339.06,95.00
             348.01,106.94 360.39,123.95 361.67,139.17 Z
           M 247.50,382.50
           C 247.73,381.14 247.63,380.28 248.81,379.27
             248.81,379.27 264.17,373.57 264.17,373.57
             280.57,366.56 296.26,358.62 310.83,348.22
             317.42,343.52 324.07,338.79 330.00,333.26
             352.84,311.98 370.46,281.05 370.83,249.17
             370.83,249.17 370.83,234.17 370.83,234.17
             370.82,223.23 366.37,197.71 361.23,188.33
             355.65,178.12 345.22,170.34 334.17,167.03
             325.92,164.56 318.52,164.12 310.00,164.17
             295.60,164.23 278.72,168.93 265.83,175.22
             261.66,177.25 257.17,179.91 253.33,182.52
             251.42,183.83 248.12,186.62 245.83,186.73
             243.12,186.86 238.12,182.72 235.83,181.07
             235.83,181.07 219.17,168.50 219.17,168.50
             215.62,165.67 212.88,164.13 210.83,160.00
             237.29,142.72 268.12,131.30 300.00,131.67
             321.62,131.92 350.74,140.47 365.69,156.67
             377.82,169.82 381.62,182.15 384.67,199.17
             389.67,226.86 388.93,258.07 380.22,285.00
             376.35,296.92 369.17,313.71 361.28,323.33
             345.37,342.75 315.41,358.08 292.50,367.85
             282.97,371.92 256.99,381.70 247.50,382.50 Z
           M 237.50,195.00
           C 238.22,200.97 240.37,197.85 245.00,200.13
             245.00,200.13 261.67,209.81 261.67,209.81
             280.36,219.97 297.55,226.88 319.17,224.29
             325.89,223.49 330.44,222.69 336.67,219.73
             346.61,215.01 349.54,207.28 355.83,204.17
             357.77,213.82 360.72,225.16 360.83,235.00
             360.86,237.49 361.05,241.06 359.86,243.26
             357.09,248.33 344.70,252.38 339.17,253.62
             317.97,258.36 292.32,254.32 271.67,248.33
             259.05,244.67 246.86,239.39 235.83,232.22
             235.83,232.22 215.00,215.84 215.00,215.84
             215.00,215.84 182.50,194.83 182.50,194.83
             166.28,185.11 139.89,170.87 120.83,170.83
             120.83,170.83 114.17,170.83 114.17,170.83
             106.22,170.93 94.83,174.26 87.50,177.38
             78.64,181.13 67.39,186.25 61.67,194.17
             53.63,185.24 54.56,171.87 55.79,160.83
             56.17,157.47 56.81,150.44 58.82,147.87
             60.84,145.28 66.19,142.22 69.17,140.65
             78.10,135.95 89.02,132.62 99.17,132.50
             127.16,132.17 152.76,141.59 177.50,153.96
             185.31,157.87 193.61,162.07 200.83,166.97
             200.83,166.97 214.17,177.67 214.17,177.67
             214.17,177.67 237.50,195.00 237.50,195.00 Z
           M 362.50,139.17
           C 362.50,139.17 362.50,140.00 362.50,140.00
             362.50,140.00 361.67,139.17 361.67,139.17
             361.67,139.17 362.50,139.17 362.50,139.17 Z
           M 251.67,191.67
           C 255.47,187.59 263.91,183.86 269.17,181.67
             285.54,174.89 311.17,171.34 328.33,176.43
             335.73,178.62 350.92,185.30 351.72,194.17
             351.89,196.17 350.27,198.93 349.46,200.83
             348.72,202.59 348.24,204.06 346.96,205.56
             341.13,212.44 324.51,214.98 315.83,215.00
             292.57,215.03 270.80,204.12 251.67,191.67 Z
           M 158.33,193.33
           C 158.33,193.33 158.33,195.00 158.33,195.00
             136.64,205.23 112.57,213.62 88.33,208.67
             81.03,207.18 68.50,203.65 65.00,196.67
             84.05,185.23 105.85,176.99 128.33,182.02
             139.66,184.55 147.93,189.70 158.33,193.33 Z
           M 15.00,218.33
           C 21.15,230.88 35.96,242.45 47.42,250.00
             44.95,256.03 46.12,260.39 47.42,266.67
             49.83,279.55 55.17,289.91 62.16,300.83
             70.13,313.30 87.86,333.01 100.00,341.17
             104.63,344.29 115.48,349.47 120.83,351.92
             140.20,360.82 145.77,363.58 167.50,363.33
             167.50,363.33 195.83,359.17 195.83,359.17
             201.32,359.11 207.57,358.93 212.50,361.73
             212.50,361.73 226.67,373.25 226.67,373.25
             230.30,375.67 236.69,376.99 237.38,381.67
             238.21,387.42 234.07,387.82 230.00,390.02
             221.64,394.54 214.84,398.75 205.00,399.13
             193.23,399.59 186.45,394.90 176.67,389.97
             172.32,387.79 165.53,385.26 160.83,383.95
             140.65,378.35 138.32,382.63 113.33,373.88
             85.96,364.29 62.77,345.82 43.93,324.17
             38.33,317.73 30.37,308.80 26.00,301.67
             14.31,282.55 10.80,266.37 10.83,244.17
             10.84,238.57 11.91,222.47 15.00,218.33 Z
           M 360.83,250.00
           C 360.83,275.12 352.42,303.85 334.92,322.50
             325.05,333.02 304.50,345.51 291.67,352.85
             282.15,358.30 270.42,363.19 260.00,366.67
             256.99,367.67 248.67,370.47 245.83,370.40
             243.12,370.33 240.74,368.54 238.33,367.41
             232.88,364.83 231.53,364.45 226.70,360.32
             221.74,356.08 220.32,352.81 213.33,350.50
             199.53,345.93 185.39,353.31 171.67,353.33
             163.98,353.34 157.64,353.60 150.00,351.94
             142.40,350.29 135.42,346.77 128.33,343.68
             121.48,340.71 108.28,334.32 102.50,330.07
             84.97,317.16 66.27,292.54 59.47,271.67
             59.47,271.67 55.83,255.00 55.83,255.00
             55.83,255.00 84.17,264.62 84.17,264.62
             104.02,268.22 137.49,262.15 155.83,253.91
             168.94,248.02 178.47,243.05 190.00,234.16
             190.00,234.16 199.17,226.64 199.17,226.64
             200.71,225.21 202.76,222.82 205.00,222.75
             208.00,222.64 213.62,227.93 215.83,229.88
             222.96,236.12 230.72,242.08 239.17,246.45
             261.27,257.88 282.60,263.94 307.50,265.03
             307.50,265.03 315.00,265.77 315.00,265.77
             315.00,265.77 320.83,265.14 320.83,265.14
             330.10,264.25 336.03,264.12 345.00,260.46
             352.33,257.46 354.86,254.22 360.83,250.00 Z" />
</svg>
