<?xml version="1.0" encoding="UTF-8" standalone="no"?>
<!DOCTYPE svg PUBLIC "-//W3C//DTD SVG 20010904//EN"
              "http://www.w3.org/TR/2001/REC-SVG-20010904/DTD/svg10.dtd">

<svg xmlns="http://www.w3.org/2000/svg"
     width="3.22222in" height="3.48889in"
     viewBox="0 0 290 314">
  <path id="Selection"
        fill="none" stroke="black" stroke-width="1"
        d="M 90.17,43.50
           C 87.95,47.03 85.67,46.62 81.83,47.34
             81.83,47.34 66.83,50.46 66.83,50.46
             53.15,53.56 27.90,59.56 16.83,67.49
             13.68,69.74 6.34,77.25 5.56,81.00
             4.09,88.03 14.97,93.42 20.17,95.64
             24.76,97.61 29.51,99.00 34.33,100.27
             41.21,102.07 51.59,104.85 58.50,105.17
             57.55,107.37 55.47,112.32 53.81,113.85
             51.88,115.61 37.92,118.10 34.33,119.02
             22.72,122.01 12.72,125.76 4.82,135.17
             3.72,136.48 1.85,138.66 1.16,140.17
             -2.89,148.98 14.02,156.47 20.17,158.96
             30.99,163.32 49.32,167.75 61.00,170.17
             61.00,170.17 81.83,174.69 81.83,174.69
             84.72,176.03 96.31,186.56 99.33,189.33
             85.30,194.01 65.81,199.95 54.33,209.17
             50.53,212.22 43.36,219.32 42.88,224.33
             42.35,229.89 48.31,234.32 52.67,236.62
             61.68,241.36 82.33,245.99 92.67,246.83
             91.79,248.90 90.54,252.25 88.92,253.75
             87.12,255.42 76.63,259.05 73.50,260.40
             62.57,265.11 50.88,270.36 41.84,278.16
             38.39,281.14 31.16,288.85 30.78,293.50
             30.47,297.37 33.97,300.77 36.83,302.84
             42.84,307.18 53.67,309.17 61.00,310.37
             75.43,312.73 89.73,313.50 104.33,313.50
             117.72,313.50 128.10,313.49 141.00,308.75
             150.30,305.33 164.18,292.61 163.06,281.83
             161.46,266.53 139.37,272.67 130.17,275.72
             126.27,277.02 120.70,279.89 119.60,284.28
             118.67,287.99 123.32,286.82 125.17,286.27
             136.34,282.89 140.82,281.10 152.61,282.67
             152.92,285.77 153.72,288.81 152.61,291.82
             150.05,298.19 138.79,300.82 132.67,301.92
             113.33,305.72 96.05,303.39 76.83,301.92
             76.83,301.92 109.19,266.00 109.19,266.00
             111.93,262.97 120.38,252.53 123.50,251.18
             125.11,250.77 129.11,251.00 131.00,251.18
             152.82,251.02 176.76,251.65 196.83,241.61
             202.92,238.57 207.79,234.66 212.02,229.33
             215.48,224.98 215.95,221.69 210.17,219.04
             209.22,218.61 207.85,218.25 206.83,217.86
             204.60,217.62 202.42,217.67 200.17,217.86
             184.26,217.64 162.20,220.26 146.83,224.33
             146.83,224.33 170.98,197.67 170.98,197.67
             173.22,195.26 177.57,189.40 180.52,188.60
             180.52,188.60 200.17,189.33 200.17,189.33
             213.88,189.36 233.97,190.22 246.83,186.70
             254.27,184.67 260.49,182.02 265.51,176.00
             266.35,174.98 267.97,173.06 268.38,171.83
             269.41,168.62 266.11,166.12 263.50,165.07
             259.99,163.63 248.42,162.67 244.33,162.57
             244.33,162.57 228.50,162.57 228.50,162.57
             228.50,162.57 220.17,162.57 220.17,162.57
             220.17,162.57 195.17,162.57 195.17,162.57
             195.17,162.57 177.78,164.00 177.78,164.00
             176.08,164.72 175.97,165.40 175.17,166.83
             175.17,166.83 149.33,143.56 149.33,143.56
             147.17,141.59 141.15,137.55 142.00,134.33
             142.41,132.77 144.86,130.50 146.00,129.33
             149.43,125.86 154.42,118.64 159.33,118.69
             159.33,118.69 173.50,120.02 173.50,120.02
             173.50,120.02 195.17,121.00 195.17,121.00
             195.17,121.00 207.67,121.83 207.67,121.83
             220.37,121.85 237.88,121.82 250.17,119.33
             258.77,117.59 263.49,116.39 269.26,109.33
             271.19,106.95 274.26,103.49 272.13,100.34
             270.46,97.87 266.28,96.62 263.50,96.02
             259.02,95.03 245.57,93.56 241.00,93.50
             241.00,93.50 224.33,92.67 224.33,92.67
             224.33,92.67 181.00,92.67 181.00,92.67
             181.00,92.67 203.50,69.33 203.50,69.33
             207.48,65.36 209.92,61.51 216.00,61.97
             216.00,61.97 236.83,63.50 236.83,63.50
             236.83,63.50 249.33,63.50 249.33,63.50
             249.33,63.50 259.33,62.74 259.33,62.74
             259.33,62.74 270.17,62.18 270.17,62.18
             277.57,61.20 285.96,61.70 289.57,53.50
             292.02,47.98 281.12,46.72 277.67,46.23
             277.67,46.23 238.50,42.59 238.50,42.59
             238.50,42.59 230.17,41.83 230.17,41.83
             230.17,41.83 251.76,19.33 251.76,19.33
             253.41,17.57 258.15,12.83 257.38,10.29
             256.79,8.30 254.42,7.87 252.67,7.72
             252.67,7.72 238.50,6.83 238.50,6.83
             238.50,6.83 228.50,6.00 228.50,6.00
             228.50,6.00 219.33,6.00 219.33,6.00
             219.33,6.00 211.00,5.17 211.00,5.17
             211.00,5.17 196.00,4.30 196.00,4.30
             196.00,4.30 189.33,4.30 189.33,4.30
             189.33,4.30 179.33,3.50 179.33,3.50
             179.33,3.50 165.17,2.67 165.17,2.67
             165.17,2.67 145.17,1.83 145.17,1.83
             145.17,1.83 134.33,1.00 134.33,1.00
             134.33,1.00 116.00,0.17 116.00,0.17
             116.00,0.17 88.50,0.17 88.50,0.17
             76.21,0.18 56.52,3.52 47.81,12.70
             46.22,14.38 42.27,18.89 41.70,21.00
             40.44,25.73 47.42,30.60 51.00,32.44
             58.89,36.49 81.39,43.09 90.17,43.50 Z
           M 107.67,10.17
           C 107.67,10.17 96.00,34.33 96.00,34.33
             86.73,32.59 71.32,28.81 62.67,25.49
             57.81,23.63 53.53,22.53 51.00,17.67
             69.17,8.24 87.94,10.17 107.67,10.17 Z
           M 245.17,17.67
           C 245.17,17.67 236.97,27.67 236.97,27.67
             236.97,27.67 214.33,51.83 214.33,51.83
             214.33,51.83 197.67,50.03 197.67,50.03
             197.67,50.03 162.67,45.77 162.67,45.77
             162.67,45.77 116.00,38.43 116.00,38.43
             116.00,38.43 102.67,36.00 102.67,36.00
             102.67,36.00 111.21,17.67 111.21,17.67
             111.21,17.67 116.17,10.84 116.17,10.84
             116.17,10.84 129.33,10.84 129.33,10.84
             129.33,10.84 137.67,11.76 137.67,11.76
             137.67,11.76 156.83,12.67 156.83,12.67
             156.83,12.67 167.67,13.50 167.67,13.50
             167.67,13.50 185.17,14.33 185.17,14.33
             185.17,14.33 194.33,15.13 194.33,15.13
             194.33,15.13 245.17,17.67 245.17,17.67 Z
           M 227.67,44.33
           C 227.67,44.33 227.67,45.17 227.67,45.17
             227.67,45.17 226.83,44.33 226.83,44.33
             226.83,44.33 227.67,44.33 227.67,44.33 Z
           M 204.33,61.00
           C 197.77,70.17 184.77,81.54 176.97,90.17
             173.72,93.76 162.97,105.96 159.33,107.67
             157.21,108.58 154.88,107.91 152.67,107.67
             152.67,107.67 136.83,106.06 136.83,106.06
             136.83,106.06 93.50,100.52 93.50,100.52
             93.50,100.52 71.00,96.83 71.00,96.83
             71.00,96.83 78.29,81.83 78.29,81.83
             78.29,81.83 96.83,45.17 96.83,45.17
             96.83,45.17 123.50,50.23 123.50,50.23
             123.50,50.23 179.33,58.27 179.33,58.27
             179.33,58.27 204.33,61.00 204.33,61.00 Z
           M 226.83,45.17
           C 226.83,45.17 226.83,46.00 226.83,46.00
             226.83,46.00 226.00,45.17 226.00,45.17
             226.00,45.17 226.83,45.17 226.83,45.17 Z
           M 226.00,46.00
           C 226.00,46.00 226.00,46.83 226.00,46.83
             226.00,46.83 225.17,46.00 225.17,46.00
             225.17,46.00 226.00,46.00 226.00,46.00 Z
           M 225.17,46.83
           C 225.17,46.83 225.17,47.67 225.17,47.67
             225.17,47.67 224.33,46.83 224.33,46.83
             224.33,46.83 225.17,46.83 225.17,46.83 Z
           M 224.33,47.67
           C 224.33,47.67 224.33,48.50 224.33,48.50
             224.33,48.50 223.50,47.67 223.50,47.67
             223.50,47.67 224.33,47.67 224.33,47.67 Z
           M 223.50,48.50
           C 226.69,52.24 228.03,51.82 232.67,51.83
             228.95,53.31 223.99,52.77 220.17,51.83
             220.17,51.83 223.50,48.50 223.50,48.50 Z
           M 242.67,52.67
           C 242.67,52.67 232.67,53.50 232.67,53.50
             232.67,53.50 242.67,52.67 242.67,52.67 Z
           M 84.33,56.00
           C 84.33,56.00 84.33,56.83 84.33,56.83
             84.33,56.83 83.50,56.00 83.50,56.00
             83.50,56.00 84.33,56.00 84.33,56.00 Z
           M 83.50,56.83
           C 83.50,56.83 64.33,96.00 64.33,96.00
             52.11,93.70 38.44,90.87 26.83,86.48
             23.41,85.18 15.93,82.66 15.33,78.52
             14.71,74.16 26.81,70.61 30.17,69.38
             40.70,65.52 51.75,62.93 62.67,60.46
             68.89,59.05 77.26,56.97 83.50,56.83 Z
           M 261.83,106.83
           C 255.94,110.33 235.82,111.82 228.50,111.83
             228.50,111.83 207.67,111.83 207.67,111.83
             207.67,111.83 192.67,111.00 192.67,111.00
             192.67,111.00 165.17,109.33 165.17,109.33
             166.84,106.99 169.07,103.94 171.83,102.71
             173.50,102.15 178.05,102.66 180.17,102.71
             180.17,102.71 191.83,102.71 191.83,102.71
             191.83,102.71 223.50,102.71 223.50,102.71
             223.50,102.71 234.33,103.47 234.33,103.47
             243.57,103.87 252.89,104.25 261.83,106.83 Z
           M 150.17,117.67
           C 150.17,117.67 135.52,133.50 135.52,133.50
             133.88,135.42 130.88,138.27 131.86,141.00
             132.84,143.72 140.21,149.67 142.67,151.89
             148.64,157.32 165.47,171.49 169.33,176.83
             169.33,176.83 114.33,169.40 114.33,169.40
             109.65,168.62 90.71,165.76 87.67,164.20
             84.91,162.79 76.34,155.04 73.50,152.54
             73.50,152.54 58.50,139.44 58.50,139.44
             56.57,137.77 53.09,135.37 52.86,132.67
             52.66,130.31 58.60,119.45 60.05,116.83
             61.02,115.07 64.36,108.54 65.69,107.72
             67.25,106.70 70.10,107.45 71.83,107.72
             71.83,107.72 87.67,110.17 87.67,110.17
             87.67,110.17 150.17,117.67 150.17,117.67 Z
           M 48.50,125.17
           C 47.08,130.01 43.07,135.23 43.12,137.43
             43.16,139.82 47.60,143.40 49.33,144.93
             53.89,148.94 62.47,155.88 66.00,160.17
             56.05,158.77 31.92,152.10 22.67,148.14
             19.19,146.66 10.69,143.02 10.69,138.58
             10.69,135.37 16.86,133.65 19.33,132.67
             27.09,129.57 40.18,126.29 48.50,125.17 Z
           M 256.00,174.33
           C 250.71,177.57 245.29,178.04 239.33,178.64
             239.33,178.64 202.67,179.33 202.67,179.33
             199.96,179.32 188.78,178.63 186.83,177.65
             184.58,176.51 183.27,174.64 181.83,172.67
             181.83,172.67 201.83,172.67 201.83,172.67
             201.83,172.67 212.67,171.83 212.67,171.83
             212.67,171.83 227.67,171.83 227.67,171.83
             227.67,171.83 243.50,172.67 243.50,172.67
             243.50,172.67 256.00,174.33 256.00,174.33 Z
           M 173.50,187.67
           C 173.50,187.67 140.10,225.17 140.10,225.17
             140.10,225.17 125.77,239.69 125.77,239.69
             125.77,239.69 104.33,238.50 104.33,238.50
             104.33,238.50 117.55,208.50 117.55,208.50
             117.55,208.50 122.15,196.35 122.15,196.35
             122.15,196.35 116.83,190.31 116.83,190.31
             116.83,190.31 104.33,178.50 104.33,178.50
             104.33,178.50 136.00,183.27 136.00,183.27
             136.00,183.27 173.50,187.67 173.50,187.67 Z
           M 106.83,196.62
           C 109.73,197.46 112.70,199.17 112.58,202.67
             112.52,204.54 110.43,208.32 109.59,210.17
             109.59,210.17 102.18,226.83 102.18,226.83
             100.84,229.92 99.03,236.35 95.08,236.58
             95.08,236.58 84.33,234.83 84.33,234.83
             77.56,233.47 68.16,231.27 61.83,228.70
             58.82,227.48 53.72,225.26 52.94,221.80
             51.75,216.42 59.58,213.07 63.50,211.26
             63.50,211.26 90.17,201.00 90.17,201.00
             94.48,199.57 102.55,196.91 106.83,196.62 Z
           M 205.17,228.50
           C 199.74,232.82 191.05,235.67 184.33,237.36
             165.92,241.96 150.47,241.00 131.83,241.00
             133.07,239.17 134.37,237.02 136.24,235.77
             138.09,234.53 149.68,232.85 152.67,232.32
             168.32,229.49 189.54,225.70 205.17,228.50 Z
           M 116.83,250.17
           C 116.83,250.17 96.97,272.67 96.97,272.67
             96.97,272.67 82.67,287.67 82.67,287.67
             82.67,287.67 99.33,248.50 99.33,248.50
             99.33,248.50 116.83,250.17 116.83,250.17 Z
           M 85.17,264.33
           C 85.17,264.33 85.17,265.17 85.17,265.17
             85.17,265.17 84.33,264.33 84.33,264.33
             84.33,264.33 85.17,264.33 85.17,264.33 Z
           M 84.33,265.17
           C 84.33,265.17 77.08,282.67 77.08,282.67
             77.08,282.67 68.50,301.00 68.50,301.00
             60.78,299.59 55.15,298.82 47.67,295.95
             44.90,294.88 41.22,293.40 40.57,290.13
             39.65,285.49 46.04,282.32 49.33,280.33
             56.84,275.80 75.99,267.07 84.33,265.17 Z
           M 82.67,287.67
           C 82.67,287.67 82.67,288.50 82.67,288.50
             82.67,288.50 81.83,287.67 81.83,287.67
             81.83,287.67 82.67,287.67 82.67,287.67 Z" />
</svg>
