<?xml version="1.0" encoding="UTF-8" standalone="no"?>
<!DOCTYPE svg PUBLIC "-//W3C//DTD SVG 20010904//EN"
              "http://www.w3.org/TR/2001/REC-SVG-20010904/DTD/svg10.dtd">

<svg xmlns="http://www.w3.org/2000/svg"
     width="2.62222in" height="4.03333in"
     viewBox="0 0 236 363">
  <path id="Selection"
        fill="none" stroke="black" stroke-width="1"
        d="M 116.33,1.03
           C 95.67,4.42 80.72,19.49 79.10,40.67
             78.06,54.32 86.87,69.73 98.83,76.16
             104.18,79.03 109.55,79.82 115.50,80.05
             137.81,80.87 155.27,61.16 156.90,39.83
             157.07,37.50 156.65,35.46 156.33,33.17
             153.64,13.66 136.37,-1.43 116.33,1.03 Z
           M 112.16,7.60
           C 122.69,6.86 134.67,10.22 142.02,18.20
             155.53,32.90 154.63,60.53 135.50,70.12
             128.89,73.43 124.27,73.25 117.17,73.17
             89.45,72.82 76.52,38.90 90.19,19.83
             95.64,12.23 103.28,9.20 112.16,7.60 Z
           M 71.33,71.95
           C 53.67,75.41 38.90,89.18 36.33,107.33
             36.01,109.61 35.59,111.69 35.77,114.00
             37.16,132.43 49.74,150.42 69.67,150.67
             79.38,150.78 85.31,150.57 93.83,145.08
             104.68,138.10 113.67,125.61 113.83,112.33
             113.99,98.78 111.69,88.81 100.49,79.85
             96.87,76.95 93.30,74.86 88.83,73.53
             84.70,72.30 75.63,71.52 71.33,71.95 Z
           M 163.00,71.89
           C 158.82,72.41 154.55,72.33 150.50,73.67
             139.77,77.17 129.90,86.17 125.39,96.50
             115.26,119.72 128.85,150.34 156.33,150.67
             162.25,150.73 166.45,150.97 172.17,148.92
             187.44,143.45 201.51,124.83 200.23,108.17
             199.05,92.75 191.22,79.71 176.33,74.05
             171.45,72.20 168.22,71.47 163.00,71.89 Z
           M 69.67,78.41
           C 79.62,77.49 92.66,81.61 99.52,89.03
             112.19,102.76 112.47,128.97 95.50,139.44
             87.90,144.13 82.35,144.10 73.83,144.00
             46.12,143.66 33.19,109.73 46.86,90.67
             52.63,82.62 60.33,79.96 69.67,78.41 Z
           M 156.33,78.41
           C 166.52,77.48 179.38,81.96 186.06,89.84
             198.54,104.59 197.78,130.54 179.67,140.52
             172.93,144.22 167.86,144.08 160.50,144.00
             138.13,143.73 122.96,121.83 128.40,100.67
             129.60,95.99 131.76,91.06 135.06,87.48
             140.80,81.27 148.37,79.62 156.33,78.41 Z
           M 6.47,104.87
           C -0.82,110.54 1.42,119.79 1.33,128.17
             1.33,128.17 0.50,140.67 0.50,140.67
             0.48,148.80 1.57,163.86 3.76,171.50
             13.01,203.80 41.60,213.95 72.17,214.00
             85.01,214.02 100.15,216.98 105.04,230.67
             106.40,234.47 106.38,237.55 106.33,241.50
             106.24,249.02 103.73,256.12 101.33,263.17
             95.42,280.52 83.04,301.29 72.72,316.50
             72.72,316.50 57.69,337.33 57.69,337.33
             56.22,339.32 52.62,343.75 53.11,346.32
             53.67,349.27 64.30,352.41 67.17,353.42
             82.55,358.89 98.39,361.95 114.67,362.55
             132.55,363.20 150.39,358.26 167.17,352.61
             171.75,351.07 182.58,348.06 183.02,342.33
             183.22,339.63 179.95,336.09 178.39,334.00
             178.39,334.00 164.68,314.83 164.68,314.83
             151.64,295.90 137.33,271.29 131.46,249.00
             128.98,239.61 127.55,226.13 136.37,219.53
             144.12,213.72 156.28,214.11 165.50,214.00
             190.55,213.70 216.12,202.12 227.69,179.00
             233.09,168.21 235.36,154.35 235.50,142.33
             235.50,142.33 234.67,124.83 234.67,124.83
             234.67,124.83 234.67,114.00 234.67,114.00
             234.66,109.98 234.62,101.32 228.01,105.45
             227.16,105.98 226.36,106.71 225.65,107.42
             220.78,112.38 219.93,120.11 216.90,126.50
             213.16,134.38 207.18,141.49 200.50,147.07
             183.22,161.47 151.98,169.72 129.67,169.83
             113.77,169.91 102.18,170.17 86.33,167.00
             76.00,164.94 64.02,161.82 54.67,156.93
             37.63,148.02 25.03,137.21 17.67,119.00
             15.57,113.79 14.22,102.73 6.47,104.87 Z
           M 228.00,110.67
           C 230.77,117.31 229.67,129.80 229.67,137.33
             229.67,156.35 229.22,180.28 212.97,193.43
             207.27,198.04 199.98,201.32 193.00,203.40
             185.37,205.67 176.81,207.32 168.83,207.33
             154.27,207.36 141.78,208.17 131.48,219.83
             128.85,222.82 126.12,226.78 125.10,230.67
             124.41,233.29 123.76,237.97 123.91,240.67
             125.35,266.11 144.30,297.22 158.07,318.17
             161.91,324.01 173.78,338.91 175.50,344.00
             163.46,349.60 138.80,355.65 125.50,355.67
             125.50,355.67 113.00,355.67 113.00,355.67
             95.54,355.46 75.21,348.01 58.83,342.33
             58.83,342.33 77.14,315.67 77.14,315.67
             86.97,301.26 98.20,281.83 104.67,265.67
             108.20,256.83 111.55,246.90 112.09,237.33
             112.85,223.94 104.95,213.17 92.17,209.37
             86.49,207.67 77.34,207.34 71.33,207.33
             57.51,207.31 40.33,203.00 28.83,195.23
             2.10,177.18 6.33,140.32 6.33,112.33
             10.12,114.60 9.64,116.76 10.93,120.67
             12.27,124.70 14.57,129.48 16.69,133.17
             22.77,143.72 32.77,152.75 43.00,159.26
             54.81,166.77 70.90,171.77 84.67,174.07
             120.43,180.03 168.71,176.79 198.00,153.32
             206.14,146.81 214.42,138.20 219.41,129.00
             219.41,129.00 228.00,110.67 228.00,110.67 Z" />
</svg>
