<?xml version="1.0" encoding="UTF-8" standalone="no"?>
<!DOCTYPE svg PUBLIC "-//W3C//DTD SVG 20010904//EN"
              "http://www.w3.org/TR/2001/REC-SVG-20010904/DTD/svg10.dtd">

<svg xmlns="http://www.w3.org/2000/svg"
     width="4.32222in" height="3.93333in"
     viewBox="0 0 389 354">
  <path id="Selection"
        fill="none" stroke="black" stroke-width="1"
        d="M 54.23,139.00
           C 54.23,139.00 42.67,139.93 42.67,139.93
             42.67,139.93 36.00,139.39 36.00,139.39
             32.47,139.57 31.56,141.08 27.67,139.91
             22.56,138.37 18.77,136.92 14.33,133.88
             12.48,132.62 10.20,130.65 7.81,131.62
             6.62,132.12 5.09,133.82 4.35,134.85
             0.97,139.50 4.73,142.88 7.91,146.50
             18.76,158.85 27.80,160.49 41.00,167.33
             20.20,174.28 13.18,180.57 0.17,198.17
             1.06,199.02 1.38,199.69 2.76,199.99
             6.14,200.74 10.57,195.99 16.83,194.29
             16.83,194.29 25.17,192.26 25.17,192.26
             27.64,192.22 29.42,193.65 31.83,193.65
             34.02,193.64 35.65,192.52 37.67,192.16
             40.14,191.49 41.87,192.09 44.33,192.16
             50.33,192.67 53.36,191.56 53.50,199.00
             53.50,199.00 53.50,210.67 53.50,210.67
             53.50,210.67 52.67,222.33 52.67,222.33
             52.67,222.33 52.67,239.00 52.67,239.00
             52.67,241.67 51.94,246.83 53.24,248.92
             54.86,251.51 59.92,253.64 62.67,255.18
             62.67,255.18 84.33,267.33 84.33,267.33
             84.33,267.33 151.00,305.32 151.00,305.32
             151.00,305.32 182.62,323.55 182.62,323.55
             192.88,330.62 173.28,342.35 185.18,351.07
             186.57,352.09 187.71,352.52 189.33,352.96
             202.70,356.60 210.43,343.94 210.66,339.83
             210.97,334.10 202.31,326.47 207.92,321.46
             207.92,321.46 212.67,318.52 212.67,318.52
             212.67,318.52 306.00,265.18 306.00,265.18
             306.00,265.18 326.83,253.52 326.83,253.52
             333.37,249.82 339.17,246.58 339.33,238.17
             339.33,238.17 339.33,227.33 339.33,227.33
             339.33,227.33 338.50,214.83 338.50,214.83
             338.50,214.83 338.50,191.50 338.50,191.50
             338.50,191.50 346.00,191.07 346.00,191.07
             348.33,191.39 350.26,192.81 352.67,192.82
             355.08,192.82 356.86,191.39 359.33,191.42
             359.33,191.42 367.67,193.46 367.67,193.46
             373.34,194.99 377.98,199.32 380.97,199.25
             383.65,199.17 386.69,195.05 388.50,193.17
             380.09,177.54 364.72,170.41 348.50,165.67
             348.50,165.67 348.50,164.00 348.50,164.00
             361.03,159.62 370.91,152.50 379.40,142.33
             380.83,140.62 388.39,132.82 384.82,130.79
             381.91,129.14 377.73,134.72 371.83,136.83
             371.83,136.83 363.50,139.48 363.50,139.48
             361.18,139.76 359.26,138.68 356.83,138.56
             356.83,138.56 350.17,139.10 350.17,139.10
             350.17,139.10 337.67,138.17 337.67,138.17
             337.67,138.17 337.67,98.17 337.67,98.17
             337.67,96.10 337.83,93.42 336.82,91.58
             335.41,89.03 330.27,86.37 327.67,84.84
             327.67,84.84 306.83,72.82 306.83,72.82
             306.83,72.82 240.17,34.35 240.17,34.35
             240.17,34.35 206.87,15.37 206.87,15.37
             203.46,13.18 202.70,11.12 201.75,7.33
             201.28,5.47 201.00,1.70 199.07,0.81
             196.02,-0.62 192.38,5.06 191.41,7.33
             190.22,10.12 190.30,12.78 188.07,15.52
             185.89,18.20 181.54,20.13 178.50,21.85
             178.50,21.85 160.17,32.33 160.17,32.33
             160.17,32.33 81.83,77.50 81.83,77.50
             81.83,77.50 61.84,89.30 61.84,89.30
             59.16,91.16 55.02,95.01 54.23,98.17
             54.23,98.17 54.23,109.00 54.23,109.00
             54.23,109.00 54.23,139.00 54.23,139.00 Z
           M 196.00,17.33
           C 196.00,17.33 198.50,29.00 198.50,29.00
             198.50,29.00 199.37,64.83 199.37,64.83
             199.37,64.83 199.37,79.00 199.37,79.00
             199.37,79.00 200.17,89.00 200.17,89.00
             200.17,89.00 200.17,113.17 200.17,113.17
             200.17,113.17 196.83,111.50 196.83,111.50
             196.83,111.50 191.83,123.17 191.83,123.17
             189.49,117.27 191.75,102.43 191.83,95.67
             191.83,95.67 191.83,73.17 191.83,73.17
             191.83,73.17 192.63,63.17 192.63,63.17
             192.63,63.17 192.63,51.50 192.63,51.50
             192.67,41.88 192.15,26.32 194.33,17.33
             194.33,17.33 196.00,17.33 196.00,17.33 Z
           M 185.17,26.50
           C 185.17,26.50 185.17,48.17 185.17,48.17
             185.15,56.03 184.88,54.97 174.33,61.02
             174.33,61.02 150.17,74.83 150.17,74.83
             150.17,74.83 102.67,101.98 102.67,101.98
             97.32,105.05 89.52,109.50 87.32,115.67
             86.73,117.32 86.83,119.72 86.83,121.50
             86.83,121.50 86.83,140.67 86.83,140.67
             77.11,137.52 78.59,139.77 71.00,139.77
             71.00,139.77 64.22,139.00 64.22,139.00
             64.22,139.00 64.22,114.00 64.22,114.00
             64.22,114.00 64.22,96.82 64.22,96.82
             64.22,96.82 72.67,90.67 72.67,90.67
             72.67,90.67 95.17,77.68 95.17,77.68
             95.17,77.68 153.50,44.12 153.50,44.12
             153.50,44.12 185.17,26.50 185.17,26.50 Z
           M 206.83,28.17
           C 206.83,28.17 239.33,46.62 239.33,46.62
             239.33,46.62 299.33,81.15 299.33,81.15
             299.33,81.15 318.50,92.32 318.50,92.32
             318.50,92.32 326.84,97.84 326.84,97.84
             326.84,97.84 327.67,104.00 327.67,104.00
             327.67,104.00 327.67,138.17 327.67,138.17
             315.32,140.38 316.23,135.48 305.17,140.67
             305.17,140.67 304.33,125.67 304.33,125.67
             304.33,125.67 304.33,115.67 304.33,115.67
             304.33,113.97 304.42,111.41 303.83,109.85
             302.22,105.57 292.58,101.09 288.50,98.77
             288.50,98.77 240.17,71.15 240.17,71.15
             240.17,71.15 216.83,57.68 216.83,57.68
             214.82,56.52 208.80,53.45 207.66,51.81
             206.40,49.97 206.83,43.13 206.83,40.67
             206.82,36.77 205.63,31.29 206.83,28.17 Z
           M 185.17,62.33
           C 183.75,70.26 184.35,78.47 184.33,86.50
             184.33,88.37 184.53,91.13 183.51,92.72
             182.35,94.52 177.19,97.28 175.17,98.50
             175.17,98.50 156.00,110.00 156.00,110.00
             156.00,110.00 131.00,124.67 131.00,124.67
             123.88,128.86 118.57,131.39 118.50,140.67
             118.50,140.67 118.50,158.17 118.50,158.17
             115.17,158.17 107.06,158.56 104.33,157.46
             101.62,156.36 98.36,153.43 97.33,150.67
             96.60,148.69 96.83,143.03 96.83,140.67
             96.83,140.67 96.83,119.83 96.83,119.83
             96.83,117.85 96.66,115.08 97.68,113.34
             98.80,111.45 101.62,110.08 103.50,109.00
             103.50,109.00 117.67,100.90 117.67,100.90
             117.67,100.90 161.00,76.15 161.00,76.15
             161.00,76.15 185.17,62.33 185.17,62.33 Z
           M 207.67,64.83
           C 207.67,64.83 234.33,79.96 234.33,79.96
             234.33,79.96 273.50,102.34 273.50,102.34
             273.50,102.34 286.83,110.07 286.83,110.07
             288.49,111.01 292.48,113.07 293.51,114.52
             294.95,116.57 295.17,123.87 295.17,126.50
             295.17,126.50 294.67,150.67 294.67,150.67
             293.71,153.24 291.02,155.60 288.50,156.62
             285.72,157.75 276.94,157.33 273.50,157.33
             273.50,157.33 273.50,139.00 273.50,139.00
             273.47,136.21 273.25,132.32 271.85,129.87
             269.55,125.85 259.48,121.06 255.17,118.50
             255.17,118.50 219.33,97.00 219.33,97.00
             212.57,92.95 207.72,92.35 207.67,84.00
             207.64,79.82 206.58,67.57 207.67,64.83 Z
           M 183.50,101.50
           C 183.50,101.50 183.50,124.00 183.50,124.00
             183.37,131.13 179.06,131.74 173.50,135.18
             166.95,139.25 154.12,145.78 151.49,153.17
             150.93,154.74 151.02,156.52 151.00,158.17
             151.00,158.17 127.67,158.17 127.67,158.17
             127.67,158.17 128.50,139.83 128.50,139.83
             128.52,132.05 128.71,133.54 141.00,126.17
             141.00,126.17 166.83,110.83 166.83,110.83
             171.58,107.98 178.57,103.32 183.50,101.50 Z
           M 263.50,157.33
           C 263.50,157.33 241.00,157.33 241.00,157.33
             241.00,154.62 241.34,149.67 240.15,147.35
             237.98,143.14 225.51,136.57 221.00,133.83
             218.53,132.33 209.98,127.57 208.97,125.35
             208.43,124.15 208.51,122.00 208.50,120.67
             208.46,113.16 208.68,110.84 207.67,103.17
             212.62,104.73 218.87,109.06 223.50,111.83
             223.50,111.83 251.00,128.29 251.00,128.29
             262.82,135.07 263.48,134.30 263.50,142.33
             263.50,142.33 263.50,157.33 263.50,157.33 Z
           M 196.00,130.67
           C 196.00,130.67 200.17,149.83 200.17,149.83
             200.57,151.88 201.03,156.12 203.02,157.17
             204.39,157.88 209.09,156.67 211.00,156.50
             210.72,158.15 209.69,161.49 210.36,162.92
             211.31,164.96 214.85,165.42 216.83,165.83
             216.83,165.83 233.50,169.00 233.50,169.00
             224.35,174.60 215.01,170.19 210.17,181.58
             208.77,181.36 207.51,181.06 206.14,181.58
             200.43,184.22 200.00,197.83 196.83,203.17
             196.83,203.17 190.17,179.83 190.17,179.83
             190.17,179.83 181.78,183.17 181.78,183.17
             181.92,181.24 182.57,177.42 181.78,175.85
             180.57,173.61 177.41,173.02 175.17,172.44
             175.17,172.44 160.17,168.17 160.17,168.17
             169.09,163.61 179.21,168.24 183.50,157.33
             194.50,155.52 191.92,138.64 196.00,130.67 Z
           M 182.67,137.33
           C 182.67,137.33 182.67,147.33 182.67,147.33
             176.59,146.73 172.19,151.29 173.50,157.33
             173.50,157.33 161.00,159.00 161.00,159.00
             161.00,159.00 161.47,150.98 161.47,150.98
             161.47,150.98 167.67,146.02 167.67,146.02
             167.67,146.02 182.67,137.33 182.67,137.33 Z
           M 210.17,139.83
           C 210.17,139.83 224.33,148.21 224.33,148.21
             224.33,148.21 230.15,152.65 230.15,152.65
             230.15,152.65 231.00,158.17 231.00,158.17
             231.00,158.17 217.67,157.33 217.67,157.33
             218.13,155.33 220.37,150.13 219.34,148.57
             217.88,146.33 211.66,148.64 209.33,149.00
             209.33,149.00 210.17,139.83 210.17,139.83 Z
           M 358.50,150.67
           C 350.46,157.06 339.92,157.33 330.17,157.33
             330.17,157.33 296.00,157.33 296.00,157.33
             299.13,152.95 302.77,148.53 308.50,148.20
             308.50,148.20 316.00,148.73 316.00,148.73
             316.00,148.73 328.50,147.62 328.50,147.62
             328.50,147.62 342.67,148.86 342.67,148.86
             352.29,149.76 347.46,146.34 358.50,150.67 Z
           M 88.50,158.06
           C 88.50,158.06 54.33,158.06 54.33,158.06
             51.01,158.03 49.04,158.51 46.83,155.67
             40.99,156.79 35.08,152.63 30.17,149.59
             33.47,148.62 38.03,150.14 42.67,149.59
             55.31,148.11 54.20,148.67 66.00,149.59
             70.13,149.88 74.38,148.23 78.50,149.59
             82.52,150.46 86.17,154.90 88.50,158.06 Z
           M 361.83,149.00
           C 361.83,149.00 361.83,149.83 361.83,149.83
             361.83,149.83 361.00,149.00 361.00,149.00
             361.00,149.00 361.83,149.00 361.83,149.00 Z
           M 360.17,149.83
           C 360.17,149.83 360.17,150.67 360.17,150.67
             360.17,150.67 359.33,149.83 359.33,149.83
             359.33,149.83 360.17,149.83 360.17,149.83 Z
           M 211.83,155.67
           C 211.83,155.67 211.83,156.50 211.83,156.50
             211.83,156.50 211.00,155.67 211.00,155.67
             211.00,155.67 211.83,155.67 211.83,155.67 Z
           M 263.50,175.67
           C 263.50,175.67 264.33,189.00 264.33,189.00
             264.33,189.00 264.33,199.83 264.33,199.83
             264.33,201.42 264.43,204.07 263.83,205.52
             262.52,208.66 254.12,212.92 251.00,214.88
             251.00,214.88 211.83,239.00 211.83,239.00
             210.88,231.77 210.96,226.23 211.00,219.00
             211.01,217.29 210.87,215.09 211.82,213.61
             212.82,212.06 216.04,210.29 217.67,209.27
             217.67,209.27 233.42,199.39 233.42,199.39
             242.83,191.57 241.00,186.50 241.00,175.67
             241.00,175.67 263.50,175.67 263.50,175.67 Z
           M 225.17,267.33
           C 229.43,260.02 230.92,262.03 231.01,253.17
             231.02,251.10 231.52,248.27 229.15,247.29
             227.26,246.50 224.56,247.55 222.67,248.04
             218.42,249.14 215.41,249.73 211.00,249.83
             213.00,244.28 219.59,241.72 224.33,238.73
             224.33,238.73 259.33,216.98 259.33,216.98
             265.60,213.07 274.86,208.54 274.19,199.83
             274.19,199.83 273.50,175.67 273.50,175.67
             280.67,175.67 284.98,174.49 290.98,179.20
             294.52,181.97 295.08,182.93 295.17,187.33
             295.17,187.33 295.17,199.83 295.17,199.83
             295.17,199.83 295.97,208.17 295.97,208.17
             295.97,208.17 295.97,219.00 295.97,219.00
             296.00,220.51 296.12,223.22 295.52,224.56
             294.32,227.28 283.26,233.15 280.17,235.00
             280.17,235.00 245.17,256.02 245.17,256.02
             239.95,259.25 230.62,265.61 225.17,267.33 Z
           M 358.50,180.67
           C 358.50,180.67 358.50,182.33 358.50,182.33
             358.50,182.33 348.50,180.84 348.50,180.84
             348.50,180.84 333.50,182.07 333.50,182.07
             333.50,182.07 324.33,182.07 324.33,182.07
             324.33,182.07 311.00,182.07 311.00,182.07
             311.00,182.07 303.50,176.50 303.50,176.50
             303.50,176.50 320.17,175.80 320.17,175.80
             320.17,175.80 344.33,175.80 344.33,175.80
             344.33,175.80 358.50,180.67 358.50,180.67 Z
           M 89.33,176.50
           C 89.33,176.50 82.65,182.39 82.65,182.39
             82.65,182.39 71.00,183.04 71.00,183.04
             71.00,183.04 60.17,183.04 60.17,183.04
             60.17,183.04 45.17,181.75 45.17,181.75
             45.17,181.75 36.83,183.33 36.83,183.33
             36.83,183.33 29.33,180.67 29.33,180.67
             37.11,175.91 44.84,176.50 53.50,176.50
             53.50,176.50 89.33,176.50 89.33,176.50 Z
           M 117.67,176.50
           C 117.67,176.50 117.67,203.17 117.67,203.17
             117.67,204.85 117.57,207.43 118.17,208.97
             119.68,212.92 128.15,217.48 131.83,219.79
             131.83,219.79 176.83,247.33 176.83,247.33
             173.17,248.36 171.52,246.47 168.51,246.91
             166.45,247.21 165.32,248.41 163.99,249.88
             159.34,255.03 160.87,256.18 161.00,262.33
             161.00,262.33 111.00,232.67 111.00,232.67
             108.12,230.94 97.62,225.35 96.47,222.85
             95.88,221.55 96.00,218.81 96.00,217.33
             96.00,217.33 96.00,189.00 96.00,189.00
             96.00,186.30 95.39,179.85 97.33,177.95
             98.85,176.47 101.52,176.53 103.50,176.50
             103.50,176.50 117.67,176.50 117.67,176.50 Z
           M 151.00,176.50
           C 151.00,182.38 149.49,195.42 153.69,199.52
             153.69,199.52 172.67,211.50 172.67,211.50
             177.95,214.67 180.88,214.97 181.00,221.50
             181.00,221.50 180.17,236.50 180.17,236.50
             175.55,235.03 167.88,229.82 163.50,227.07
             163.50,227.07 139.33,212.07 139.33,212.07
             127.80,204.80 127.68,206.05 127.67,198.17
             127.67,198.17 127.67,176.50 127.67,176.50
             127.67,176.50 151.00,176.50 151.00,176.50 Z
           M 181.83,189.83
           C 181.83,189.83 181.00,204.00 181.00,204.00
             181.00,204.00 166.83,195.51 166.83,195.51
             166.83,195.51 161.47,191.18 161.47,191.18
             161.47,191.18 161.00,178.17 161.00,178.17
             163.21,178.51 171.57,180.36 173.02,181.62
             176.17,184.32 171.48,193.35 179.33,190.84
             179.33,190.84 181.83,189.83 181.83,189.83 Z
           M 231.00,178.17
           C 231.00,178.17 230.52,192.89 230.52,192.89
             230.52,192.89 224.33,197.83 224.33,197.83
             224.33,197.83 211.00,205.67 211.00,205.67
             211.00,205.67 210.17,192.33 210.17,192.33
             215.02,189.98 218.07,186.09 218.50,180.67
             218.50,180.67 231.00,178.17 231.00,178.17 Z
           M 86.83,186.50
           C 86.83,186.50 86.00,202.33 86.00,202.33
             86.00,202.33 86.00,221.50 86.00,221.50
             86.01,224.33 85.77,227.29 87.45,229.75
             89.19,232.31 94.08,234.85 96.83,236.50
             96.83,236.50 117.67,249.00 117.67,249.00
             117.67,249.00 163.50,276.67 163.50,276.67
             163.50,276.67 176.00,284.17 176.00,284.17
             177.57,285.12 181.08,287.01 182.02,288.48
             184.08,291.73 179.58,296.88 179.72,299.48
             179.82,301.47 182.12,303.29 183.25,304.83
             185.12,307.42 185.06,308.47 185.17,311.50
             185.17,311.50 155.17,295.07 155.17,295.07
             155.17,295.07 91.00,258.42 91.00,258.42
             91.00,258.42 70.17,246.75 70.17,246.75
             70.17,246.75 62.55,241.18 62.55,241.18
             62.55,241.18 62.55,229.00 62.55,229.00
             62.55,229.00 62.55,210.67 62.55,210.67
             62.55,210.67 63.50,192.44 63.50,192.44
             63.50,192.44 77.67,192.44 77.67,192.44
             77.67,192.44 86.83,186.50 86.83,186.50 Z
           M 306.00,191.57
           C 311.63,193.10 313.19,192.03 318.50,191.57
             318.50,191.57 328.50,192.33 328.50,192.33
             328.50,192.33 328.50,214.00 328.50,214.00
             328.50,214.00 329.33,227.33 329.33,227.33
             329.33,227.33 328.48,243.68 328.48,243.68
             328.48,243.68 319.33,249.72 319.33,249.72
             319.33,249.72 298.50,261.50 298.50,261.50
             298.50,261.50 241.00,294.35 241.00,294.35
             241.00,294.35 206.00,314.00 206.00,314.00
             206.01,305.56 206.22,301.13 213.50,295.67
             213.50,295.67 208.50,285.67 208.50,285.67
             208.50,285.67 233.50,270.50 233.50,270.50
             233.50,270.50 278.50,243.33 278.50,243.33
             285.82,238.94 302.66,230.42 305.26,222.33
             305.92,220.64 305.17,214.03 305.26,211.50
             305.16,206.81 304.48,195.32 306.00,191.57 Z
           M 189.33,204.00
           C 189.33,204.00 193.50,218.17 193.50,218.17
             199.57,213.78 200.25,210.99 201.83,204.00
             201.83,204.00 203.50,219.00 203.50,219.00
             203.50,219.00 203.50,239.00 203.50,239.00
             203.50,239.00 204.15,249.83 204.15,249.83
             204.15,249.83 201.83,258.17 201.83,258.17
             211.23,258.17 214.47,257.45 223.50,254.83
             223.45,256.25 223.57,258.16 222.65,259.33
             220.28,262.34 208.47,260.65 205.18,262.35
             198.93,265.57 199.27,273.04 199.33,279.00
             199.45,288.37 203.40,295.02 203.68,297.33
             204.09,300.59 201.29,302.84 199.97,305.67
             198.43,308.97 198.51,312.13 198.67,315.67
             198.67,315.67 198.67,333.17 198.67,333.17
             199.62,336.32 202.36,339.37 202.38,342.24
             202.40,345.29 200.01,345.35 197.67,345.15
             194.17,344.85 189.10,344.25 188.84,339.80
             188.64,336.40 191.12,333.57 192.44,330.67
             193.67,327.96 193.49,326.04 193.50,323.17
             193.51,317.98 193.68,307.92 192.31,303.17
             191.12,299.08 187.71,298.26 187.52,294.82
             187.41,292.97 189.32,289.34 189.99,287.33
             191.42,283.10 192.55,278.47 192.66,274.00
             192.73,270.58 192.77,262.79 189.14,261.17
             183.42,258.59 170.04,264.43 168.50,255.67
             173.61,256.62 176.46,257.54 181.83,257.32
             192.93,256.86 187.76,248.72 187.67,242.33
             187.67,242.33 188.50,219.00 188.50,219.00
             188.50,214.88 187.89,207.62 189.33,204.00 Z
           M 225.17,267.33
           C 225.17,267.33 225.17,268.17 225.17,268.17
             225.17,268.17 224.33,267.33 224.33,267.33
             224.33,267.33 225.17,267.33 225.17,267.33 Z
           M 171.83,268.17
           C 171.83,268.17 171.83,269.00 171.83,269.00
             171.83,269.00 171.00,268.17 171.00,268.17
             171.00,268.17 171.83,268.17 171.83,268.17 Z
           M 224.33,268.17
           C 224.33,268.17 206.83,279.00 206.83,279.00
             206.83,279.00 207.68,270.33 207.68,270.33
             207.68,270.33 212.67,269.00 212.67,269.00
             212.67,269.00 224.33,268.17 224.33,268.17 Z
           M 184.33,269.00
           C 184.33,269.00 185.17,276.50 185.17,276.50
             185.17,276.50 172.67,269.83 172.67,269.83
             172.67,269.83 184.33,269.00 184.33,269.00 Z" />
</svg>
