<?xml version="1.0" encoding="UTF-8" standalone="no"?>
<!DOCTYPE svg PUBLIC "-//W3C//DTD SVG 20010904//EN"
              "http://www.w3.org/TR/2001/REC-SVG-20010904/DTD/svg10.dtd">

<svg xmlns="http://www.w3.org/2000/svg"
     width="4.62222in" height="4.81111in"
     viewBox="0 0 416 433">
  <path id="Selection #3"
        fill="none" stroke="black" stroke-width="1"
        d="M 188.83,136.83
           C 188.83,136.83 74.67,136.83 74.67,136.83
             64.22,136.82 69.01,134.45 60.95,127.15
             56.64,123.25 51.29,121.15 45.50,121.01
             32.33,120.69 19.84,129.92 16.16,142.67
             11.59,158.45 20.90,175.39 38.00,176.83
             38.00,176.83 38.00,195.17 38.00,195.17
             38.00,195.17 38.83,208.50 38.83,208.50
             38.83,208.50 38.83,224.33 38.83,224.33
             38.83,226.58 39.02,229.68 37.86,231.66
             36.14,234.57 33.17,234.45 29.12,238.77
             24.26,243.97 22.84,247.32 23.01,254.33
             23.22,262.65 27.33,266.97 34.67,270.17
             34.67,270.17 10.27,312.67 10.27,312.67
             8.41,315.94 1.28,327.41 0.87,330.17
             0.26,334.26 4.57,338.83 7.00,341.83
             15.75,352.59 26.42,359.49 40.50,359.33
             53.99,359.17 65.18,348.37 73.17,338.50
             75.15,336.04 80.32,329.90 80.44,326.83
             80.55,324.15 73.30,313.97 71.50,311.00
             71.50,311.00 57.17,286.00 57.17,286.00
             57.17,286.00 48.87,271.00 48.87,271.00
             47.47,266.93 51.29,264.64 53.66,261.83
             56.67,258.25 59.06,252.41 58.42,247.67
             57.82,243.24 55.78,238.42 52.13,235.71
             49.39,233.67 46.49,233.48 44.92,230.82
             43.67,228.67 43.83,225.11 43.83,222.67
             43.83,222.67 43.83,184.33 43.83,184.33
             43.84,182.17 43.54,179.10 45.17,177.43
             46.79,175.77 51.58,175.23 56.33,171.51
             58.77,169.59 62.19,166.03 64.01,163.50
             65.47,161.47 66.93,158.07 69.01,156.85
             70.75,155.82 73.52,156.00 75.50,156.00
             75.50,156.00 180.50,156.00 180.50,156.00
             190.97,156.02 186.04,158.70 193.83,159.33
             193.83,159.33 193.83,258.50 193.83,258.50
             193.83,258.50 193.00,271.00 193.00,271.00
             193.00,271.00 193.00,389.33 193.00,389.33
             193.00,389.33 192.20,399.33 192.20,399.33
             192.20,399.33 192.20,411.83 192.20,411.83
             192.15,414.02 192.32,416.37 190.83,418.17
             190.06,419.12 189.07,419.67 187.98,420.17
             187.98,420.17 183.03,421.97 183.03,421.97
             179.72,423.82 176.83,427.96 181.42,430.33
             182.27,430.77 183.72,431.18 184.67,431.42
             184.67,431.42 189.67,432.52 189.67,432.52
             192.41,432.71 194.43,432.67 197.17,432.52
             197.17,432.52 203.00,432.52 203.00,432.52
             203.00,432.52 207.17,432.52 207.17,432.52
             211.72,432.35 222.18,431.59 226.33,430.58
             228.59,430.03 232.37,429.00 231.93,425.96
             231.07,420.07 222.94,420.73 220.17,417.34
             218.09,414.81 218.84,406.12 218.83,402.67
             218.83,402.67 218.00,390.17 218.00,390.17
             218.00,390.17 218.00,271.83 218.00,271.83
             218.00,271.83 217.17,259.33 217.17,259.33
             217.17,259.33 217.17,191.00 217.17,191.00
             217.17,183.21 217.89,163.23 216.33,156.83
             216.33,156.83 228.00,156.00 228.00,156.00
             228.00,156.00 248.83,156.00 248.83,156.00
             248.83,156.00 340.50,156.00 340.50,156.00
             342.48,156.00 345.25,155.82 346.99,156.85
             346.99,156.85 356.34,168.48 356.34,168.48
             367.52,179.62 372.09,172.36 372.17,183.50
             372.17,183.50 372.17,224.33 372.17,224.33
             372.03,235.41 367.88,231.47 362.34,237.01
             359.94,239.41 358.67,242.75 357.92,246.00
             356.73,251.12 358.47,256.89 361.66,261.00
             363.65,263.57 368.08,266.61 367.40,270.17
             367.40,270.17 360.27,283.50 360.27,283.50
             360.27,283.50 343.99,311.83 343.99,311.83
             342.23,314.70 335.45,324.16 335.56,326.83
             335.66,329.32 338.71,333.19 340.21,335.17
             344.94,341.37 350.86,347.93 357.17,352.53
             364.24,357.69 369.33,359.42 378.00,359.33
             390.42,359.19 401.42,351.16 409.00,341.83
             411.43,338.83 415.74,334.26 415.13,330.17
             414.72,327.41 407.59,315.94 405.73,312.67
             405.73,312.67 381.33,270.17 381.33,270.17
             388.67,266.97 392.78,262.65 392.99,254.33
             393.16,247.32 391.74,243.97 386.87,238.77
             382.83,234.45 379.86,234.57 378.14,231.66
             376.98,229.68 377.17,226.58 377.17,224.33
             377.17,224.33 377.17,207.67 377.17,207.67
             377.17,207.67 378.00,195.17 378.00,195.17
             378.00,195.17 378.00,176.83 378.00,176.83
             395.10,175.39 404.41,158.45 399.84,142.67
             396.16,129.92 383.67,120.69 370.50,121.01
             364.71,121.15 359.36,123.25 355.05,127.15
             346.99,134.45 351.78,136.82 341.33,136.83
             341.33,136.83 224.67,136.83 224.67,136.83
             224.67,136.83 224.67,122.67 224.67,122.67
             224.67,122.67 225.47,114.33 225.47,114.33
             225.47,114.33 225.47,105.17 225.47,105.17
             225.51,101.49 227.32,92.19 225.00,89.82
             223.67,88.48 220.66,88.18 218.83,87.88
             218.83,87.88 206.33,85.65 206.33,85.65
             192.30,82.55 176.04,77.78 164.67,68.78
             159.43,64.63 153.60,57.27 153.95,50.17
             154.44,40.21 168.11,32.32 176.33,29.00
             182.90,26.35 190.11,24.98 197.17,24.48
             202.98,24.07 225.84,28.59 232.17,30.41
             238.83,32.32 248.52,35.67 253.59,40.44
             263.27,49.54 262.88,59.10 259.54,71.00
             258.10,76.13 255.12,79.85 256.33,85.17
             256.33,85.17 258.00,85.17 258.00,85.17
             266.71,74.27 274.98,68.17 278.90,53.50
             279.79,50.14 280.66,44.45 280.42,41.00
             278.98,19.89 256.72,9.95 238.83,5.47
             228.88,2.99 219.03,1.62 208.83,0.92
             208.83,0.92 202.17,0.20 202.17,0.20
             202.17,0.20 193.00,1.08 193.00,1.08
             193.00,1.08 183.83,1.08 183.83,1.08
             166.88,3.33 150.07,12.56 138.71,25.17
             130.43,34.37 125.91,42.71 125.09,55.17
             123.63,77.63 141.18,92.82 160.50,100.32
             160.50,100.32 179.67,107.83 179.67,107.83
             182.27,108.88 186.51,110.35 187.98,112.84
             189.00,114.57 188.83,117.36 188.83,119.33
             188.83,119.33 188.83,136.83 188.83,136.83 Z
           M 265.50,70.17
           C 266.52,62.95 268.17,60.67 267.99,52.67
             267.63,37.19 254.69,28.77 241.33,24.49
             234.00,22.15 226.43,20.53 218.83,19.27
             218.83,19.27 203.83,17.26 203.83,17.26
             192.80,16.54 178.97,20.99 169.67,26.76
             165.40,29.41 160.68,33.23 157.20,36.83
             153.37,40.80 148.74,47.17 147.62,52.67
             146.62,57.52 149.38,63.74 152.08,67.67
             159.14,77.90 171.54,83.84 183.00,87.67
             198.07,92.69 204.58,93.28 219.67,96.00
             219.67,96.00 218.80,114.33 218.80,114.33
             218.80,114.33 218.80,126.83 218.80,126.83
             218.80,126.83 218.00,136.83 218.00,136.83
             218.00,136.83 218.00,154.33 218.00,154.33
             218.00,154.33 193.83,154.33 193.83,154.33
             196.22,144.54 195.52,126.63 195.50,116.00
             195.49,112.99 195.62,108.76 193.89,106.17
             192.17,103.62 188.27,102.29 185.50,101.17
             185.50,101.17 169.67,94.83 169.67,94.83
             151.20,87.51 131.86,76.98 131.34,54.33
             130.86,32.97 145.08,20.10 163.83,13.02
             174.76,8.90 176.92,9.18 188.00,8.43
             188.00,8.43 198.83,7.67 198.83,7.67
             208.31,7.77 221.22,9.79 230.50,11.93
             240.06,14.13 249.62,16.76 258.00,22.02
             272.17,30.92 277.22,43.41 271.87,59.33
             270.41,63.67 268.98,67.09 265.50,70.17 Z
           M 38.00,127.91
           C 44.58,127.30 52.39,129.16 56.87,134.38
             58.39,136.16 59.87,139.63 60.77,141.84
             66.07,154.79 62.53,167.71 47.17,169.92
             34.02,171.81 21.52,161.97 21.33,148.50
             21.25,141.67 21.40,136.29 27.31,131.67
             30.50,129.16 34.12,128.55 38.00,127.91 Z
           M 372.17,127.92
           C 377.48,127.40 384.38,128.28 388.69,131.67
             400.16,140.65 395.92,166.91 375.50,169.92
             369.42,170.82 360.90,169.03 356.92,164.18
             350.93,157.25 352.17,143.97 356.92,136.83
             360.74,131.42 365.94,129.12 372.17,127.92 Z
           M 188.83,145.17
           C 188.03,149.71 186.38,149.31 182.17,149.33
             182.17,149.33 160.50,149.33 160.50,149.33
             160.50,149.33 68.83,149.33 68.83,149.33
             69.87,144.82 71.18,145.19 75.50,145.17
             75.50,145.17 97.17,145.17 97.17,145.17
             97.17,145.17 188.83,145.17 188.83,145.17 Z
           M 347.17,149.33
           C 347.17,149.33 224.67,149.33 224.67,149.33
             224.67,149.33 224.67,145.17 224.67,145.17
             224.67,145.17 318.00,145.17 318.00,145.17
             318.00,145.17 341.33,145.17 341.33,145.17
             345.38,145.24 346.23,145.27 347.17,149.33 Z
           M 210.50,158.50
           C 210.50,158.50 210.50,170.17 210.50,170.17
             210.50,170.17 211.33,182.67 211.33,182.67
             211.33,182.67 211.33,301.00 211.33,301.00
             211.33,301.00 212.17,313.50 212.17,313.50
             212.17,313.50 212.17,406.00 212.17,406.00
             212.17,409.84 212.11,413.35 214.07,416.83
             214.07,416.83 219.67,424.37 219.67,424.37
             219.67,424.37 208.00,424.37 208.00,424.37
             208.00,424.37 191.33,425.17 191.33,425.17
             191.33,425.17 196.93,417.67 196.93,417.67
             198.89,414.18 198.82,410.67 198.83,406.83
             198.83,406.83 198.83,314.33 198.83,314.33
             198.83,314.33 199.67,301.83 199.67,301.83
             199.67,301.83 199.67,185.17 199.67,185.17
             199.67,185.17 200.50,171.83 200.50,171.83
             200.50,171.83 200.50,159.33 200.50,159.33
             200.50,159.33 210.50,158.50 210.50,158.50 Z
           M 37.17,239.62
           C 42.87,239.46 47.37,240.88 50.49,246.00
             54.85,253.17 52.56,262.72 43.00,263.32
             34.19,263.88 28.83,257.82 28.84,249.33
             28.84,246.71 28.89,244.18 30.86,242.19
             32.58,240.43 34.87,240.03 37.17,239.62 Z
           M 376.33,239.61
           C 383.66,239.46 387.16,241.74 387.16,249.33
             387.17,257.27 382.88,262.80 374.67,263.32
             364.62,263.97 360.92,254.84 365.04,246.83
             367.65,241.76 371.05,240.42 376.33,239.61 Z
           M 39.67,271.00
           C 39.67,271.00 58.35,303.50 58.35,303.50
             58.35,303.50 72.17,327.67 72.17,327.67
             58.71,333.39 38.16,333.87 23.83,331.47
             23.83,331.47 7.17,327.67 7.17,327.67
             8.23,322.12 12.12,316.69 15.00,311.83
             15.00,311.83 28.48,288.50 28.48,288.50
             31.49,283.32 35.36,274.79 39.67,271.00 Z
           M 377.17,271.00
           C 377.17,271.00 399.07,308.50 399.07,308.50
             402.23,314.06 407.67,321.57 408.83,327.67
             408.83,327.67 392.17,331.47 392.17,331.47
             377.84,333.87 357.29,333.39 343.83,327.67
             345.51,323.28 348.88,318.49 351.32,314.33
             351.32,314.33 365.27,290.17 365.27,290.17
             368.26,284.90 372.97,274.70 377.17,271.00 Z
           M 72.17,333.50
           C 72.17,333.50 72.17,334.33 72.17,334.33
             72.17,334.33 71.33,333.50 71.33,333.50
             71.33,333.50 72.17,333.50 72.17,333.50 Z
           M 344.67,333.50
           C 344.67,333.50 344.67,334.33 344.67,334.33
             344.67,334.33 343.83,333.50 343.83,333.50
             343.83,333.50 344.67,333.50 344.67,333.50 Z
           M 71.33,334.33
           C 69.27,339.17 65.53,343.08 61.33,346.20
             46.00,357.58 25.56,352.83 14.67,337.67
             14.67,337.67 37.17,340.02 37.17,340.02
             37.17,340.02 43.83,339.47 43.83,339.47
             43.83,339.47 71.33,334.33 71.33,334.33 Z
           M 401.33,337.67
           C 390.44,352.83 370.00,357.58 354.67,346.20
             350.47,343.08 346.73,339.17 344.67,334.33
             344.67,334.33 376.33,340.02 376.33,340.02
             376.33,340.02 401.33,337.67 401.33,337.67 Z" />
</svg>
