<?xml version="1.0" encoding="UTF-8" standalone="no"?>
<!DOCTYPE svg PUBLIC "-//W3C//DTD SVG 20010904//EN"
              "http://www.w3.org/TR/2001/REC-SVG-20010904/DTD/svg10.dtd">

<svg xmlns="http://www.w3.org/2000/svg"
     width="4.51111in" height="3.33333in"
     viewBox="0 0 406 300">
  <path id="Selection"
        fill="none" stroke="black" stroke-width="1"
        d="M 202.17,67.67
           C 202.17,67.67 203.83,67.67 203.83,67.67
             206.80,72.10 216.61,69.91 221.33,69.38
             235.22,67.82 250.98,62.22 261.33,52.59
             263.76,50.33 269.49,44.34 269.75,41.00
             270.00,37.83 265.55,31.83 263.63,29.33
             255.52,18.72 248.12,11.17 235.50,6.17
             228.25,3.30 219.15,1.09 211.33,1.00
             192.76,0.78 175.72,0.72 159.67,11.87
             153.23,16.33 151.41,18.53 146.44,24.33
             143.53,27.73 138.79,33.63 137.03,37.67
             134.41,43.69 142.09,50.53 146.33,54.07
             158.40,64.12 177.37,69.98 193.00,70.17
             196.73,70.21 199.92,71.02 202.17,67.67 Z
           M 203.00,10.64
           C 208.73,10.93 220.39,9.92 224.40,13.73
             233.82,22.71 235.01,38.27 229.00,49.33
             227.43,52.22 223.92,57.16 220.97,58.66
             218.49,59.92 213.31,60.15 210.50,60.17
             204.87,60.19 188.52,60.94 184.34,58.27
             182.21,56.89 179.32,53.17 178.01,51.00
             171.41,40.57 171.64,28.93 178.01,18.50
             179.33,16.42 181.00,13.88 183.07,12.54
             186.28,10.47 198.43,10.87 203.00,10.64 Z
           M 175.50,13.50
           C 175.50,13.50 168.26,24.33 168.26,24.33
             161.41,36.71 163.45,40.86 166.33,53.50
             162.60,52.57 160.36,51.42 157.17,49.26
             153.91,47.05 147.08,40.74 146.27,36.83
             145.73,34.17 148.25,29.84 149.75,27.70
             154.36,21.12 167.61,14.72 175.50,13.50 Z
           M 239.67,53.50
           C 242.55,40.86 244.59,36.71 237.74,24.33
             237.74,24.33 230.50,13.50 230.50,13.50
             238.39,14.72 251.64,21.12 256.25,27.70
             257.75,29.84 260.27,34.17 259.72,36.83
             258.92,40.74 252.09,47.05 248.83,49.26
             245.64,51.42 243.40,52.57 239.67,53.50 Z
           M 133.83,49.33
           C 133.83,49.33 127.96,56.83 127.96,56.83
             127.96,56.83 114.32,81.00 114.32,81.00
             114.32,81.00 84.32,134.33 84.32,134.33
             84.32,134.33 32.28,226.83 32.28,226.83
             32.28,226.83 0.50,283.50 0.50,283.50
             1.56,283.87 2.57,284.42 3.76,284.27
             6.93,283.86 11.90,276.23 13.47,273.50
             13.47,273.50 36.92,231.83 36.92,231.83
             36.92,231.83 106.22,108.50 106.22,108.50
             106.22,108.50 128.25,69.33 128.25,69.33
             131.37,63.67 135.82,56.92 138.00,51.00
             138.00,51.00 133.83,49.33 133.83,49.33 Z
           M 268.00,51.00
           C 270.18,56.92 274.63,63.67 277.75,69.33
             277.75,69.33 299.78,108.50 299.78,108.50
             299.78,108.50 369.08,231.83 369.08,231.83
             369.08,231.83 392.52,273.50 392.52,273.50
             394.10,276.23 399.08,283.86 402.24,284.27
             403.42,284.42 404.44,283.87 405.50,283.50
             405.50,283.50 373.72,226.83 373.72,226.83
             373.72,226.83 321.68,134.33 321.68,134.33
             321.68,134.33 291.68,81.00 291.68,81.00
             291.68,81.00 278.04,56.83 278.04,56.83
             278.04,56.83 272.17,49.33 272.17,49.33
             272.17,49.33 268.00,51.00 268.00,51.00 Z
           M 167.17,53.50
           C 167.17,53.50 167.17,54.33 167.17,54.33
             167.17,54.33 166.33,53.50 166.33,53.50
             166.33,53.50 167.17,53.50 167.17,53.50 Z
           M 239.67,53.50
           C 239.67,53.50 239.67,54.33 239.67,54.33
             239.67,54.33 238.83,53.50 238.83,53.50
             238.83,53.50 239.67,53.50 239.67,53.50 Z
           M 128.83,131.00
           C 123.53,132.69 120.67,138.12 117.99,142.67
             117.99,142.67 102.04,170.17 102.04,170.17
             102.04,170.17 59.32,244.33 59.32,244.33
             59.32,244.33 36.33,284.33 36.33,284.33
             41.73,286.20 43.54,282.76 46.67,278.50
             46.67,278.50 61.93,252.67 61.93,252.67
             61.93,252.67 107.04,174.33 107.04,174.33
             107.04,174.33 120.02,151.83 120.02,151.83
             122.73,147.15 126.38,141.95 128.00,136.83
             129.51,140.09 129.62,140.76 129.67,144.33
             129.74,150.01 128.75,163.87 127.79,169.33
             126.84,174.75 126.35,172.12 126.33,179.33
             126.33,179.33 126.33,201.00 126.33,201.00
             126.32,210.00 124.38,208.29 119.33,215.17
             119.33,215.17 112.52,226.00 112.52,226.00
             112.52,226.00 94.32,256.00 94.32,256.00
             94.32,256.00 77.17,284.33 77.17,284.33
             78.55,284.81 79.67,285.46 81.19,284.92
             84.57,283.74 90.39,274.24 92.43,271.00
             92.43,271.00 125.50,216.00 125.50,216.00
             130.06,224.30 129.50,238.67 127.12,247.67
             125.27,254.64 123.85,251.19 123.83,261.00
             123.83,261.00 123.83,289.33 123.83,289.33
             123.84,291.80 123.41,294.98 125.74,296.57
             128.00,298.11 134.31,297.67 137.17,297.67
             137.17,297.67 164.67,297.67 164.67,297.67
             164.67,297.67 177.17,298.50 177.17,298.50
             177.17,298.50 236.33,298.50 236.33,298.50
             236.33,298.50 249.67,299.33 249.67,299.33
             249.67,299.33 267.17,299.33 267.17,299.33
             268.79,299.33 271.38,299.43 272.86,298.83
             275.36,297.82 278.87,293.71 279.16,291.00
             279.16,291.00 274.36,269.33 274.36,269.33
             273.93,264.16 276.12,256.17 277.17,251.00
             274.77,247.76 275.51,244.07 275.50,240.17
             275.50,240.17 274.59,227.67 274.59,227.67
             274.59,227.67 274.59,210.17 274.59,210.17
             274.59,210.17 272.17,193.50 272.17,193.50
             272.11,188.04 273.09,178.72 274.55,173.50
             276.38,166.88 277.98,170.21 278.00,161.00
             278.00,161.00 278.00,138.50 278.00,138.50
             278.00,138.50 304.18,183.50 304.18,183.50
             304.18,183.50 343.60,251.83 343.60,251.83
             343.60,251.83 359.33,278.50 359.33,278.50
             362.46,282.76 364.27,286.20 369.67,284.33
             369.67,284.33 346.68,244.33 346.68,244.33
             346.68,244.33 301.10,165.17 301.10,165.17
             301.10,165.17 285.54,138.50 285.54,138.50
             285.54,138.50 278.88,129.93 278.88,129.93
             277.39,126.81 279.67,124.93 278.88,121.84
             278.42,119.38 276.47,118.17 275.72,115.09
             274.60,110.48 274.23,96.56 274.92,91.83
             274.92,91.83 277.17,82.67 277.17,82.67
             271.47,80.27 266.57,81.00 260.50,81.00
             260.50,81.00 234.67,81.00 234.67,81.00
             234.67,81.00 141.33,81.00 141.33,81.00
             139.39,81.00 136.52,80.88 134.74,81.62
             132.26,82.63 128.57,86.84 127.67,89.33
             126.75,91.85 127.17,109.49 127.17,113.50
             127.17,119.22 126.10,125.81 128.83,131.00 Z
           M 138.83,91.00
           C 138.83,91.00 139.67,121.00 139.67,121.00
             139.67,121.00 137.17,121.00 137.17,121.00
             137.17,121.00 137.17,91.00 137.17,91.00
             137.17,91.00 138.83,91.00 138.83,91.00 Z
           M 266.33,91.00
           C 263.20,107.67 265.50,105.94 265.50,121.00
             265.50,121.00 149.67,121.00 149.67,121.00
             149.67,121.00 148.83,91.00 148.83,91.00
             148.83,91.00 266.33,91.00 266.33,91.00 Z
           M 253.83,131.00
           C 253.83,131.00 253.00,164.33 253.00,164.33
             253.00,164.33 197.17,164.33 197.17,164.33
             197.17,164.33 183.00,163.50 183.00,163.50
             183.00,163.50 138.00,163.50 138.00,163.50
             138.00,163.50 139.66,141.00 139.66,141.00
             139.66,141.00 138.83,131.00 138.83,131.00
             138.83,131.00 253.83,131.00 253.83,131.00 Z
           M 268.00,133.50
           C 268.00,133.50 268.00,164.33 268.00,164.33
             268.00,164.33 263.00,164.33 263.00,164.33
             263.00,164.33 263.00,133.50 263.00,133.50
             263.00,133.50 268.00,133.50 268.00,133.50 Z
           M 266.33,174.33
           C 262.36,183.54 261.71,195.35 263.00,205.17
             263.00,205.17 178.83,205.17 178.83,205.17
             178.83,205.17 165.50,204.33 165.50,204.33
             165.50,204.33 150.50,204.33 150.50,204.33
             150.50,204.33 149.67,173.50 149.67,173.50
             149.67,173.50 208.83,173.50 208.83,173.50
             208.83,173.50 223.00,174.33 223.00,174.33
             223.00,174.33 266.33,174.33 266.33,174.33 Z
           M 139.67,175.17
           C 139.67,175.17 140.50,204.33 140.50,204.33
             140.50,204.33 136.33,204.33 136.33,204.33
             136.33,204.33 136.33,175.17 136.33,175.17
             136.33,175.17 139.67,175.17 139.67,175.17 Z
           M 277.17,210.17
           C 278.90,214.87 285.69,225.21 288.67,230.17
             288.67,230.17 312.52,269.33 312.52,269.33
             314.70,272.85 321.22,283.67 324.81,284.92
             326.33,285.46 327.45,284.81 328.83,284.33
             328.83,284.33 310.17,253.50 310.17,253.50
             310.17,253.50 287.25,216.00 287.25,216.00
             287.25,216.00 281.33,208.50 281.33,208.50
             281.33,208.50 277.17,210.17 277.17,210.17 Z
           M 249.67,215.17
           C 249.67,215.17 249.67,247.67 249.67,247.67
             249.67,247.67 153.83,247.67 153.83,247.67
             153.83,247.67 136.33,246.83 136.33,246.83
             136.33,246.83 138.80,231.00 138.80,231.00
             138.80,231.00 137.17,214.33 137.17,214.33
             137.17,214.33 177.17,214.33 177.17,214.33
             177.17,214.33 189.67,215.17 189.67,215.17
             189.67,215.17 249.67,215.17 249.67,215.17 Z
           M 264.67,216.83
           C 264.67,216.83 265.50,247.67 265.50,247.67
             265.50,247.67 259.67,247.67 259.67,247.67
             259.67,247.67 259.67,216.83 259.67,216.83
             259.67,216.83 264.67,216.83 264.67,216.83 Z
           M 252.17,256.00
           C 256.74,258.41 261.27,257.67 266.33,257.67
             266.33,257.67 264.70,273.50 264.70,273.50
             264.70,273.50 268.00,289.33 268.00,289.33
             268.00,289.33 239.67,289.33 239.67,289.33
             239.67,289.33 225.50,288.50 225.50,288.50
             225.50,288.50 166.33,288.50 166.33,288.50
             166.33,288.50 148.00,287.67 148.00,287.67
             148.00,287.67 148.00,256.83 148.00,256.83
             148.00,256.83 160.50,257.67 160.50,257.67
             160.50,257.67 219.67,257.67 219.67,257.67
             228.13,257.67 244.96,259.04 252.17,256.00 Z
           M 138.00,256.83
           C 138.00,256.83 138.00,287.67 138.00,287.67
             138.00,287.67 133.83,287.67 133.83,287.67
             133.83,287.67 133.83,256.83 133.83,256.83
             133.83,256.83 138.00,256.83 138.00,256.83 Z" />
</svg>
