<?xml version="1.0" encoding="UTF-8" standalone="no"?>
<!DOCTYPE svg PUBLIC "-//W3C//DTD SVG 20010904//EN"
              "http://www.w3.org/TR/2001/REC-SVG-20010904/DTD/svg10.dtd">

<svg xmlns="http://www.w3.org/2000/svg"
     width="4.38889in" height="4.33333in"
     viewBox="0 0 395 390">
  <path id="Selection #1"
        fill="none" stroke="black" stroke-width="1"
        d="M 196.33,13.33
           C 196.33,13.33 229.18,70.83 229.18,70.83
             229.18,70.83 237.65,85.83 237.65,85.83
             238.68,87.62 240.24,90.74 242.24,91.53
             245.18,92.68 251.01,87.21 248.97,82.50
             248.97,82.50 237.04,61.67 237.04,61.67
             237.04,61.67 214.32,21.67 214.32,21.67
             214.32,21.67 205.85,6.67 205.85,6.67
             204.82,4.87 203.26,1.75 201.25,0.97
             198.68,-0.03 196.77,2.48 195.30,4.18
             191.44,8.65 188.33,14.81 185.38,20.00
             185.38,20.00 155.62,71.67 155.62,71.67
             155.62,71.67 148.97,83.33 148.97,83.33
             148.20,84.72 146.57,87.24 147.37,88.86
             149.09,92.32 153.70,86.25 154.72,85.00
             158.42,80.45 164.26,69.70 167.40,64.17
             167.40,64.17 179.33,43.33 179.33,43.33
             179.33,43.33 196.33,13.33 196.33,13.33 Z
           M 331.33,93.33
           C 331.33,93.33 316.12,121.67 316.12,121.67
             314.86,124.10 310.92,129.98 311.32,132.47
             311.71,134.88 314.38,136.27 316.33,137.27
             321.62,140.00 328.72,141.59 334.67,141.67
             343.06,141.76 349.08,141.81 357.17,138.80
             371.44,133.49 388.04,114.66 392.24,100.00
             400.07,72.70 386.07,45.37 358.83,36.39
             353.62,34.67 346.82,33.15 341.33,33.37
             323.29,34.07 311.65,41.37 300.16,55.00
             297.67,57.96 295.22,60.83 293.22,64.17
             289.87,69.72 286.86,77.66 286.41,84.17
             286.26,86.35 286.02,90.36 287.67,92.00
             289.27,93.60 292.55,93.32 294.67,93.33
             294.67,93.33 331.33,93.33 331.33,93.33 Z
           M 66.33,94.17
           C 66.33,94.17 96.33,94.17 96.33,94.17
             97.99,94.17 100.58,94.27 102.09,93.67
             113.09,89.32 107.83,71.82 104.03,64.17
             95.51,47.00 78.33,34.40 58.83,34.17
             45.65,34.02 32.19,37.97 22.20,46.92
             19.88,48.99 16.32,53.32 14.18,55.83
             0.52,72.01 -4.07,91.88 4.92,111.67
             7.74,117.87 10.73,121.84 15.50,126.67
             20.52,131.74 24.67,135.53 31.33,138.44
             38.83,141.71 46.58,142.59 54.67,142.50
             62.52,142.41 73.83,139.87 79.42,134.08
             80.88,132.58 83.52,129.64 83.59,127.50
             83.65,125.75 80.03,119.41 79.02,117.50
             79.02,117.50 66.33,94.17 66.33,94.17 Z
           M 320.50,127.50
           C 320.50,127.50 335.32,99.17 335.32,99.17
             336.61,96.72 340.92,89.91 340.87,87.52
             340.77,83.39 335.97,83.35 333.00,83.33
             333.00,83.33 295.50,83.33 295.50,83.33
             297.20,73.89 298.03,65.50 304.27,57.50
             309.00,51.44 315.88,48.17 323.00,45.83
             338.57,40.72 359.30,44.32 371.30,55.91
             374.99,59.47 379.01,66.06 380.96,70.83
             386.89,85.41 385.79,106.51 375.56,119.03
             369.48,126.46 356.67,131.55 347.17,131.67
             334.07,131.82 332.94,131.81 320.50,127.50 Z
           M 98.83,84.17
           C 98.83,84.17 65.50,84.17 65.50,84.17
             60.07,84.20 58.85,84.72 55.33,89.14
             54.70,89.94 53.71,91.12 53.52,92.15
             53.23,93.75 57.29,100.71 58.26,102.50
             58.26,102.50 73.00,130.00 73.00,130.00
             68.20,131.38 63.86,132.44 58.83,132.50
             49.96,132.60 42.77,131.88 34.67,127.82
             14.17,117.58 6.47,92.89 12.29,71.67
             13.62,66.83 16.09,60.66 19.34,56.82
             22.75,52.78 29.73,49.27 34.67,47.46
             52.81,40.80 73.55,43.78 87.09,58.33
             95.00,66.83 96.04,73.63 98.83,84.17 Z
           M 62.17,247.50
           C 62.17,247.50 79.18,217.50 79.18,217.50
             79.18,217.50 90.73,197.50 90.73,197.50
             90.73,197.50 102.67,176.67 102.67,176.67
             103.61,175.12 107.03,170.71 104.36,169.31
             102.44,168.30 100.47,170.48 99.32,171.72
             95.91,175.42 93.92,179.03 91.46,183.33
             91.46,183.33 61.68,235.00 61.68,235.00
             61.68,235.00 53.60,249.17 53.60,249.17
             52.69,250.78 50.70,253.67 51.53,255.57
             52.55,257.87 56.77,257.50 58.83,257.50
             58.83,257.50 140.50,257.50 140.50,257.50
             142.60,257.49 145.20,257.67 147.09,256.65
             149.16,255.53 153.98,250.57 151.02,248.35
             149.67,247.33 146.35,247.50 144.67,247.50
             144.67,247.50 62.17,247.50 62.17,247.50 Z
           M 329.67,247.50
           C 329.67,247.50 253.00,247.50 253.00,247.50
             250.92,247.50 248.32,247.32 246.47,248.35
             244.45,249.47 239.55,254.44 242.47,256.65
             243.83,257.67 247.15,257.50 248.83,257.50
             248.83,257.50 331.33,257.50 331.33,257.50
             336.31,257.49 341.20,256.46 342.82,250.83
             343.78,247.54 336.57,236.64 334.67,233.33
             334.67,233.33 308.60,187.50 308.60,187.50
             308.60,187.50 299.98,172.52 299.98,172.52
             298.82,170.72 297.30,168.32 294.79,169.31
             292.52,170.21 289.62,174.17 289.90,176.67
             290.10,178.45 292.62,182.44 293.60,184.17
             293.60,184.17 301.57,198.33 301.57,198.33
             301.57,198.33 313.00,218.33 313.00,218.33
             313.00,218.33 329.67,247.50 329.67,247.50 Z
           M 198.83,325.00
           C 198.83,325.00 183.17,298.33 183.17,298.33
             181.85,296.14 178.32,289.37 176.16,288.53
             172.80,287.24 166.06,293.67 163.83,295.84
             153.62,305.84 145.72,316.52 143.22,330.83
             138.36,358.64 162.88,389.66 191.33,390.00
             199.22,390.09 205.38,390.17 213.00,387.42
             224.05,383.45 234.50,372.53 241.42,363.33
             247.72,354.96 251.28,345.51 251.33,335.00
             251.41,319.06 246.98,308.02 235.50,296.67
             232.92,294.14 226.27,287.51 222.31,289.27
             219.62,290.47 215.73,296.57 214.17,299.17
             214.17,299.17 198.83,325.00 198.83,325.00 Z
           M 170.50,298.33
           C 170.50,298.33 187.50,326.67 187.50,326.67
             188.79,328.82 192.30,335.79 194.75,336.15
             197.47,336.55 201.36,331.12 202.90,329.17
             202.90,329.17 220.50,300.00 220.50,300.00
             232.88,303.07 241.19,323.20 241.33,335.00
             241.46,345.97 240.40,355.62 233.91,364.99
             227.37,374.41 211.82,380.62 200.50,380.22
             200.50,380.22 191.33,379.75 191.33,379.75
             181.21,378.29 169.77,372.02 163.27,364.17
             151.37,349.78 148.96,328.17 157.70,311.67
             161.28,304.90 163.55,301.91 170.50,298.33 Z" />
</svg>
