<?xml version="1.0" encoding="UTF-8" standalone="no"?>
<!DOCTYPE svg PUBLIC "-//W3C//DTD SVG 20010904//EN"
              "http://www.w3.org/TR/2001/REC-SVG-20010904/DTD/svg10.dtd">

<svg xmlns="http://www.w3.org/2000/svg"
     width="4.13333in" height="2.57778in"
     viewBox="0 0 372 232">
  <path id="Selection #2"
        fill="none" stroke="black" stroke-width="1"
        d="M 66.00,126.17
           C 71.27,130.94 72.42,130.65 77.67,122.83
             82.69,128.79 85.62,135.25 87.32,142.83
             87.82,145.13 88.32,151.70 90.42,152.69
             93.29,154.06 97.24,148.22 98.44,146.17
             105.42,134.26 105.28,127.21 120.17,122.00
             121.87,131.42 127.72,139.53 134.33,146.17
             136.42,148.27 144.65,154.96 145.13,157.07
             145.75,159.74 142.57,169.89 141.55,172.83
             136.38,187.77 128.00,201.67 116.83,212.83
             112.95,216.72 107.12,221.31 104.03,225.33
             103.03,226.63 101.10,228.98 102.45,230.52
             103.94,232.46 109.72,230.76 111.83,230.52
             111.83,230.52 140.17,226.65 140.17,226.65
             140.17,226.65 149.33,226.09 149.33,226.09
             149.33,226.09 159.33,225.33 159.33,225.33
             159.33,225.33 182.67,226.85 182.67,226.85
             182.67,226.85 204.33,225.33 204.33,225.33
             204.33,225.33 237.67,227.71 237.67,227.71
             237.67,227.71 256.00,230.40 256.00,230.40
             257.86,230.72 262.77,231.83 264.32,231.60
             266.78,231.22 269.52,228.40 270.42,226.17
             270.97,224.97 271.04,224.25 270.42,223.08
             270.42,223.08 259.33,212.83 259.33,212.83
             247.33,200.85 238.27,187.82 232.00,172.00
             230.60,168.46 226.42,157.02 227.41,153.67
             228.28,150.69 234.41,145.36 236.76,142.83
             242.77,136.38 246.67,130.93 250.17,122.83
             258.92,126.75 263.22,132.17 267.90,140.33
             269.21,142.62 273.55,151.92 275.34,152.69
             278.02,153.84 281.03,149.79 282.20,147.83
             283.67,145.36 284.26,139.40 285.08,136.17
             285.08,136.17 289.33,123.67 289.33,123.67
             291.52,125.22 295.88,129.91 298.42,129.22
             300.06,128.78 302.36,125.79 303.50,124.50
             305.71,132.67 311.46,143.02 315.83,150.33
             324.24,164.38 335.32,179.61 346.00,192.00
             346.00,192.00 358.47,206.17 358.47,206.17
             359.61,207.36 362.22,210.47 363.62,211.02
             366.23,212.04 368.70,208.88 369.97,207.00
             370.74,205.84 371.18,205.08 371.32,203.67
             371.32,203.67 367.84,187.83 367.84,187.83
             362.36,162.41 357.71,137.13 355.92,111.17
             355.92,111.17 355.17,102.83 355.17,102.83
             354.95,83.92 354.62,66.57 357.87,47.83
             357.87,47.83 360.98,34.50 360.98,34.50
             361.36,32.97 361.99,30.47 360.49,29.28
             358.28,27.55 354.91,31.46 353.50,32.83
             347.43,38.77 341.09,44.44 334.33,49.60
             310.88,67.48 283.02,79.08 253.50,81.24
             253.50,81.24 245.17,82.00 245.17,82.00
             237.38,82.09 228.67,81.46 221.00,80.12
             218.12,79.62 213.59,79.15 211.71,76.75
             210.36,75.02 209.59,70.88 209.17,68.67
             206.83,56.44 211.27,43.43 226.00,44.66
             230.08,44.99 236.43,47.18 240.17,48.93
             243.36,50.42 245.77,52.74 248.93,50.06
             255.40,44.67 253.48,37.89 248.93,32.01
             242.21,23.45 229.85,19.62 219.33,19.50
             211.97,19.42 208.33,19.74 206.20,11.17
             205.57,8.65 205.44,1.52 203.25,0.47
             201.26,-0.48 199.48,1.57 198.30,2.88
             195.19,6.32 191.88,14.95 188.02,14.98
             182.99,15.02 177.06,1.36 174.99,0.47
             172.66,-0.53 170.57,2.07 169.32,3.68
             164.97,9.22 167.86,16.00 163.97,18.65
             162.12,19.92 156.77,19.41 154.33,19.57
             149.74,19.89 143.52,21.20 139.33,23.09
             132.02,26.40 123.95,33.85 120.60,41.17
             119.45,43.67 117.21,49.32 121.12,50.58
             123.31,51.28 126.50,49.42 128.50,48.55
             132.13,46.97 137.92,44.98 141.83,44.66
             154.65,43.59 162.62,54.36 163.42,66.17
             163.63,69.15 163.15,75.24 161.22,77.57
             159.46,79.71 156.07,79.97 153.50,80.40
             147.27,81.43 139.00,82.01 132.67,82.00
             132.67,82.00 122.67,81.24 122.67,81.24
             94.43,79.17 67.01,68.34 44.33,51.47
             37.02,46.03 29.99,40.07 23.50,33.67
             21.53,31.72 18.41,27.63 15.31,29.28
             7.29,33.55 12.17,43.02 13.50,49.50
             17.47,68.99 17.06,88.06 16.83,107.83
             16.83,107.83 16.07,116.17 16.07,116.17
             14.44,139.96 10.72,163.72 5.46,187.00
             5.46,187.00 0.97,206.17 0.97,206.17
             0.59,208.57 1.22,211.32 4.35,210.19
             6.08,209.57 8.82,206.69 10.16,205.33
             10.16,205.33 23.27,190.33 23.27,190.33
             39.63,171.15 56.11,149.48 66.00,126.17 Z
           M 196.00,16.17
           C 198.30,21.03 200.09,25.51 205.17,28.19
             209.08,30.27 214.16,29.22 218.50,29.64
             225.73,30.34 229.43,31.72 236.00,34.58
             232.61,35.74 231.04,34.48 227.67,34.58
             223.50,34.91 219.28,36.42 216.00,38.99
             213.76,40.74 209.83,44.80 207.91,47.00
             199.82,56.22 197.22,63.18 199.71,75.33
             200.42,78.81 201.76,84.23 204.52,86.57
             206.93,88.62 211.27,89.20 214.33,89.71
             220.43,90.71 233.36,92.13 239.33,91.99
             239.33,91.99 246.83,91.24 246.83,91.24
             272.05,89.51 296.19,82.22 317.67,68.62
             324.32,64.42 330.76,59.82 336.83,54.82
             341.72,50.80 343.71,48.27 349.33,44.50
             349.33,44.50 347.19,57.83 347.19,57.83
             347.19,57.83 345.17,80.33 345.17,80.33
             345.17,80.33 346.14,119.50 346.14,119.50
             346.14,119.50 351.90,162.83 351.90,162.83
             351.90,162.83 356.00,186.17 356.00,186.17
             351.32,182.52 346.22,175.22 342.56,170.33
             334.60,159.72 327.02,148.75 320.82,137.00
             320.82,137.00 314.01,122.00 314.01,122.00
             313.26,120.08 312.17,116.12 310.64,114.88
             307.64,112.47 303.79,117.55 301.83,119.50
             300.14,118.29 295.91,114.39 294.33,114.18
             291.92,113.87 289.34,117.04 287.91,118.67
             281.87,125.49 281.91,126.22 277.67,133.67
             277.67,133.67 268.47,122.83 268.47,122.83
             266.44,120.72 264.16,118.51 261.83,116.73
             260.15,115.45 258.77,114.57 256.83,113.71
             250.39,110.84 248.29,113.47 244.49,118.67
             240.39,124.27 240.35,132.10 233.89,139.25
             229.55,144.07 218.25,149.23 216.86,156.17
             216.18,159.57 219.53,169.29 220.72,172.83
             225.45,186.87 232.38,197.97 241.56,209.50
             241.56,209.50 249.33,218.67 249.33,218.67
             249.33,218.67 221.00,216.17 221.00,216.17
             221.00,216.17 211.00,215.34 211.00,215.34
             211.00,215.34 189.33,216.85 189.33,216.85
             189.33,216.85 167.67,215.34 167.67,215.34
             167.67,215.34 152.67,216.17 152.67,216.17
             152.67,216.17 116.83,220.33 116.83,220.33
             116.83,220.33 129.79,205.33 129.79,205.33
             139.65,193.00 146.52,182.04 151.56,167.00
             152.77,163.36 155.29,155.66 155.37,152.00
             155.46,147.83 152.33,146.85 149.33,144.88
             145.27,142.21 142.52,139.91 139.41,136.16
             136.38,132.49 133.22,127.30 131.58,122.83
             130.62,120.22 129.49,114.98 127.42,113.33
             124.47,110.99 119.60,113.33 116.83,115.01
             108.47,120.07 103.52,128.59 96.83,135.33
             94.10,129.14 92.17,123.02 87.52,117.84
             86.21,116.38 84.01,113.90 81.83,114.18
             79.83,114.45 76.62,118.06 75.17,119.50
             71.15,116.62 68.60,112.71 65.41,114.88
             61.41,117.60 59.64,122.77 57.99,127.00
             55.77,132.65 53.23,138.37 50.28,143.67
             43.08,156.57 34.72,168.68 25.65,180.33
             25.65,180.33 13.50,195.33 13.50,195.33
             12.27,191.63 14.85,184.38 15.67,180.33
             15.67,180.33 22.04,146.17 22.04,146.17
             23.79,135.43 26.82,109.05 26.83,98.67
             26.83,98.67 26.83,75.33 26.83,75.33
             26.83,75.33 24.33,49.50 24.33,49.50
             24.33,49.50 34.33,57.48 34.33,57.48
             40.64,62.40 48.22,67.67 55.17,71.64
             73.37,82.06 93.55,88.43 114.33,90.93
             114.33,90.93 122.67,91.40 122.67,91.40
             131.78,92.48 141.09,91.50 150.17,90.22
             156.32,89.36 160.45,89.27 164.92,84.47
             173.32,75.47 176.18,60.53 169.87,49.50
             168.36,46.88 166.45,44.96 164.33,42.83
             161.17,39.68 158.67,37.28 154.33,35.83
             145.26,32.81 137.75,36.58 129.33,39.50
             133.50,27.58 154.77,30.49 160.17,29.15
             165.37,27.86 169.59,21.94 172.67,17.83
             177.66,20.19 179.84,23.97 182.67,24.84
             186.65,26.07 191.43,19.43 196.00,16.17 Z
           M 350.17,43.67
           C 350.17,43.67 350.17,44.50 350.17,44.50
             350.17,44.50 349.33,43.67 349.33,43.67
             349.33,43.67 350.17,43.67 350.17,43.67 Z
           M 183.50,92.43
           C 173.94,95.07 163.01,106.22 161.27,116.17
             158.96,129.41 170.37,142.27 183.50,142.80
             187.22,142.95 190.97,142.38 194.33,140.70
             197.41,139.16 200.23,136.21 202.52,133.67
             208.29,127.30 212.77,121.06 211.68,112.00
             210.93,105.77 208.03,102.03 203.50,97.92
             200.58,95.27 198.17,93.82 194.33,92.87
             190.44,91.91 187.43,91.81 183.50,92.43 Z
           M 181.00,102.25
           C 188.04,101.55 195.27,103.12 199.34,109.51
             202.32,114.21 203.18,125.61 198.91,129.79
             197.24,131.42 194.09,132.25 191.83,132.58
             185.87,133.47 178.72,131.87 174.87,126.92
             170.96,121.91 168.77,110.03 173.89,105.17
             175.87,103.29 178.43,102.76 181.00,102.25 Z
           M 356.83,186.17
           C 356.83,186.17 356.83,187.00 356.83,187.00
             356.83,187.00 356.00,186.17 356.00,186.17
             356.00,186.17 356.83,186.17 356.83,186.17 Z" />
</svg>
