<?xml version="1.0" encoding="UTF-8" standalone="no"?>
<!DOCTYPE svg PUBLIC "-//W3C//DTD SVG 20010904//EN"
              "http://www.w3.org/TR/2001/REC-SVG-20010904/DTD/svg10.dtd">

<svg xmlns="http://www.w3.org/2000/svg"
     width="3.53333in" height="3.15556in"
     viewBox="0 0 318 284">
  <path id="Selection #1"
        fill="none" stroke="black" stroke-width="1"
        d="M 14.00,-0.00
           C 14.00,-0.00 8.17,6.67 8.17,6.67
             11.73,11.42 30.53,26.01 36.50,31.18
             38.58,32.99 46.12,40.24 46.08,42.85
             46.06,44.16 44.07,47.11 43.35,48.33
             37.72,57.99 36.17,55.79 28.17,62.10
             25.48,64.21 22.27,67.51 19.84,70.00
             9.40,80.70 -4.94,100.35 3.43,115.83
             6.40,121.31 11.64,125.58 17.33,128.03
             19.92,129.15 23.72,129.56 25.44,130.77
             28.44,132.90 28.33,137.32 34.07,143.30
             42.75,152.32 55.00,156.52 67.33,156.67
             76.06,156.77 84.67,155.57 93.17,153.62
             95.97,152.98 103.37,150.44 105.67,151.05
             108.58,151.82 117.04,160.03 119.34,162.57
             130.90,175.33 139.19,190.78 139.00,208.33
             138.82,223.17 130.56,240.92 120.59,251.67
             114.49,258.25 102.45,267.67 99.00,275.00
             100.27,275.41 100.91,275.76 102.33,275.77
             103.90,275.78 114.91,272.59 122.33,272.50
             129.39,272.42 136.18,272.73 143.17,273.82
             143.17,273.82 159.00,276.47 159.00,276.47
             159.00,276.47 188.17,272.50 188.17,272.50
             195.80,272.42 198.05,272.31 205.67,273.68
             210.67,274.59 214.11,276.57 219.00,275.00
             215.55,267.67 203.51,258.25 197.41,251.67
             187.44,240.92 179.17,223.17 179.00,208.33
             178.81,190.78 187.10,175.33 198.66,162.57
             200.96,160.03 209.42,151.82 212.33,151.05
             214.59,150.45 220.56,152.59 223.17,153.22
             228.80,154.60 240.02,156.60 245.67,156.67
             260.08,156.83 272.38,154.57 283.13,144.09
             289.72,137.68 289.42,132.99 292.56,130.77
             294.28,129.56 298.08,129.15 300.67,128.03
             306.36,125.58 311.60,121.31 314.57,115.83
             322.94,100.35 308.60,80.70 298.16,70.00
             295.72,67.51 292.52,64.21 289.83,62.10
             281.87,55.83 280.22,57.93 274.65,48.33
             273.89,47.03 271.99,44.17 271.97,42.73
             271.92,40.30 278.75,33.61 280.67,31.90
             280.67,31.90 309.83,7.50 309.83,7.50
             309.83,7.50 304.00,-0.00 304.00,-0.00
             296.91,2.69 297.44,4.29 288.17,4.92
             288.17,4.92 258.17,3.47 258.17,3.47
             247.34,4.64 239.60,12.64 235.67,13.63
             235.67,13.63 220.67,12.50 220.67,12.50
             210.88,12.48 209.47,12.77 199.83,14.52
             192.22,15.91 179.56,20.54 172.33,23.68
             169.53,24.90 161.32,29.48 159.00,29.48
             156.62,29.48 149.92,25.61 147.33,24.42
             139.84,20.98 131.90,18.21 124.00,15.87
             115.38,13.31 106.27,12.48 97.33,12.50
             97.33,12.50 83.17,13.77 83.17,13.77
             80.67,13.46 77.84,11.19 75.67,9.84
             71.42,7.22 68.07,5.28 63.17,4.08
             53.51,1.73 40.69,5.39 30.67,4.97
             21.22,4.57 21.24,2.75 14.00,-0.00 Z
           M 70.67,18.33
           C 70.67,18.33 70.67,20.00 70.67,20.00
             66.18,22.31 64.27,24.03 60.67,27.51
             59.32,28.81 56.62,31.76 54.87,32.22
             52.33,32.88 50.00,29.47 48.38,27.88
             48.38,27.88 33.17,15.00 33.17,15.00
             36.39,13.72 38.97,14.35 42.33,14.03
             57.00,12.62 57.11,12.50 70.67,18.33 Z
           M 284.83,14.17
           C 284.83,14.17 269.62,27.88 269.62,27.88
             268.00,29.47 265.67,32.88 263.13,32.22
             261.38,31.76 258.67,28.81 257.33,27.51
             253.73,24.03 251.82,22.31 247.33,20.00
             247.33,20.00 247.33,18.33 247.33,18.33
             247.33,18.33 259.83,13.60 259.83,13.60
             259.83,13.60 284.83,14.17 284.83,14.17 Z
           M 261.50,129.17
           C 261.50,129.17 267.33,137.50 267.33,137.50
             272.44,134.39 272.68,132.04 279.00,130.83
             269.67,149.85 243.32,148.07 225.67,144.78
             221.85,144.07 211.11,140.40 208.17,141.35
             203.40,142.89 192.72,153.64 189.03,157.50
             167.57,179.95 162.90,207.02 178.52,234.17
             182.91,241.78 189.27,249.22 195.07,255.83
             197.65,258.77 199.12,260.01 201.50,263.33
             201.50,263.33 187.33,262.50 187.33,262.50
             187.33,262.50 159.00,265.81 159.00,265.81
             159.00,265.81 130.67,262.50 130.67,262.50
             130.67,262.50 116.50,263.33 116.50,263.33
             118.88,260.01 120.35,258.77 122.93,255.83
             128.73,249.22 135.09,241.78 139.47,234.17
             155.10,207.02 150.43,179.95 128.97,157.50
             125.27,153.64 114.60,142.89 109.83,141.35
             106.89,140.40 96.15,144.07 92.33,144.78
             74.67,148.07 48.33,149.85 39.00,130.83
             45.32,132.04 45.56,134.39 50.67,137.50
             50.67,137.50 56.50,129.17 56.50,129.17
             51.02,125.92 49.12,122.82 42.33,120.97
             32.10,118.16 21.33,123.38 14.09,112.50
             13.11,111.02 12.17,109.18 11.59,107.50
             10.82,105.25 10.61,103.20 10.74,100.83
             11.33,90.66 16.79,78.19 24.84,71.87
             24.84,71.87 41.36,61.44 41.36,61.44
             50.39,53.38 50.34,45.54 56.82,37.51
             67.46,24.34 85.02,22.32 100.67,22.50
             112.42,22.64 129.08,27.63 139.83,32.38
             143.97,34.21 155.39,40.86 159.00,40.86
             162.61,40.86 174.03,34.21 178.17,32.38
             188.92,27.63 205.58,22.64 217.33,22.50
             232.97,22.32 250.54,24.34 261.17,37.51
             267.66,45.54 267.61,53.38 276.64,61.44
             276.64,61.44 293.16,71.87 293.16,71.87
             301.21,78.19 306.67,90.66 307.26,100.83
             307.39,103.20 307.18,105.25 306.41,107.50
             305.83,109.18 304.89,111.02 303.91,112.50
             296.67,123.38 285.90,118.16 275.67,120.97
             268.88,122.82 266.98,125.92 261.50,129.17 Z
           M 69.83,47.50
           C 68.23,49.45 64.42,53.47 64.10,55.83
             63.67,59.13 67.52,64.09 69.77,66.23
             78.67,74.76 85.87,75.64 97.33,76.81
             101.82,77.27 111.12,78.92 107.18,85.66
             104.47,90.31 90.85,92.67 85.67,93.07
             79.00,93.57 72.33,89.42 65.67,88.17
             55.38,86.25 44.13,93.35 39.83,102.50
             47.24,105.63 52.17,102.86 61.50,106.61
             70.09,110.06 72.42,115.71 78.17,118.59
             85.08,122.07 97.42,120.66 104.83,119.17
             107.17,118.69 111.93,117.72 113.86,116.55
             116.82,114.77 119.22,111.40 120.67,108.33
             119.03,107.78 118.31,107.40 116.50,107.44
             116.50,107.44 96.50,110.80 96.50,110.80
             92.28,110.98 86.29,110.82 82.60,108.60
             80.00,107.02 80.27,105.89 75.67,103.33
             82.22,101.72 98.51,104.20 109.48,92.42
             114.81,86.71 123.82,76.27 113.15,70.47
             111.61,69.63 110.66,69.50 109.00,69.17
             115.34,67.94 118.35,72.01 124.00,74.17
             124.00,74.17 129.83,65.83 129.83,65.83
             125.24,63.26 120.95,59.71 115.67,58.65
             108.28,57.17 101.83,60.35 94.83,60.76
             83.21,61.42 78.40,52.50 69.83,47.50 Z
           M 247.33,47.50
           C 240.10,53.43 233.44,61.35 223.17,60.76
             216.17,60.35 209.72,57.17 202.33,58.65
             197.05,59.71 192.76,63.26 188.17,65.83
             188.17,65.83 194.00,74.17 194.00,74.17
             200.52,71.67 201.16,69.04 209.00,68.33
             206.60,69.50 203.65,70.75 201.86,72.78
             195.96,79.44 205.22,89.44 209.97,93.92
             218.45,101.91 231.31,102.91 242.33,102.50
             237.59,106.55 236.38,109.26 229.83,110.45
             224.20,111.47 216.30,110.42 210.67,109.33
             205.28,108.29 202.71,106.52 197.33,108.33
             198.77,111.40 201.18,114.77 204.14,116.55
             206.07,117.72 210.83,118.69 213.17,119.17
             220.57,120.66 232.92,122.07 239.83,118.59
             245.58,115.71 247.91,110.06 256.50,106.61
             265.82,102.86 270.76,105.63 278.17,102.50
             273.87,93.35 262.62,86.25 252.33,88.17
             245.67,89.42 239.00,93.57 232.33,93.07
             227.15,92.67 213.52,90.31 210.82,85.66
             207.38,79.78 213.89,77.95 218.17,77.18
             223.76,76.17 225.85,77.13 233.17,75.07
             239.18,73.37 247.12,68.35 250.85,63.30
             252.15,61.53 254.20,58.11 253.90,55.83
             253.51,52.94 249.51,49.30 247.33,47.50 Z
           M 82.33,187.50
           C 82.33,187.50 92.33,193.48 92.33,193.48
             100.68,197.54 109.85,197.32 117.33,191.63
             121.10,188.76 124.03,185.04 127.33,181.67
             115.36,165.77 90.53,170.05 82.33,187.50 Z
           M 190.67,180.83
           C 198.96,192.56 208.49,199.77 223.17,194.54
             227.68,192.93 231.52,189.83 235.67,187.50
             230.61,176.74 216.62,169.31 204.83,172.25
             199.41,173.61 194.72,177.14 190.67,180.83 Z
           M 115.67,184.17
           C 109.45,188.38 101.89,186.51 95.67,183.33
             101.54,179.92 109.74,181.82 115.67,184.17 Z
           M 222.33,183.33
           C 214.65,187.25 210.45,187.35 202.33,185.00
             207.22,181.22 216.94,180.20 222.33,183.33 Z
           M 84.00,225.00
           C 87.62,227.02 90.98,229.72 94.83,231.27
             109.54,237.17 117.78,228.90 127.33,219.17
             115.36,203.26 92.16,207.64 84.00,225.00 Z
           M 190.67,218.33
           C 198.15,228.91 208.22,235.99 221.50,231.86
             226.08,230.42 229.86,227.32 234.00,225.00
             228.92,214.20 215.87,206.69 204.00,209.94
             198.91,211.33 194.50,214.84 190.67,218.33 Z
           M 114.00,222.50
           C 105.27,223.65 105.02,223.62 96.50,220.83
             100.87,218.29 110.92,217.92 114.00,222.50 Z
           M 221.50,220.00
           C 215.77,224.07 210.47,223.35 204.00,222.50
             207.33,217.55 216.38,219.08 221.50,220.00 Z
           M 49.00,224.17
           C 40.42,235.56 42.12,233.05 36.24,245.83
             36.24,245.83 27.12,264.17 27.12,264.17
             26.28,265.86 23.56,270.92 23.40,272.49
             22.93,277.08 32.07,280.86 35.67,282.13
             45.93,285.76 57.43,283.41 65.53,276.15
             67.12,274.72 70.66,271.11 71.31,269.17
             72.14,266.70 70.00,263.15 69.00,260.83
             69.00,260.83 59.72,240.83 59.72,240.83
             57.18,235.14 55.06,226.68 49.00,224.17 Z
           M 269.00,224.17
           C 262.94,226.68 260.82,235.14 258.28,240.83
             258.28,240.83 249.00,260.83 249.00,260.83
             248.00,263.15 245.86,266.70 246.69,269.17
             247.34,271.11 250.88,274.72 252.47,276.15
             260.57,283.41 272.07,285.76 282.33,282.13
             285.93,280.86 295.07,277.08 294.60,272.49
             294.44,270.92 291.72,265.86 290.87,264.17
             290.87,264.17 281.76,245.83 281.76,245.83
             275.88,233.05 277.58,235.56 269.00,224.17 Z
           M 47.33,240.00
           C 47.33,240.00 61.50,271.67 61.50,271.67
             49.11,274.46 44.34,275.81 32.33,269.17
             34.89,263.23 43.56,243.78 47.33,240.00 Z
           M 271.50,240.00
           C 271.50,240.00 285.67,269.17 285.67,269.17
             273.66,275.81 268.89,274.46 256.50,271.67
             256.50,271.67 265.02,252.50 265.02,252.50
             265.02,252.50 271.50,240.00 271.50,240.00 Z" />
</svg>
