<?xml version="1.0" encoding="UTF-8" standalone="no"?>
<!DOCTYPE svg PUBLIC "-//W3C//DTD SVG 20010904//EN"
              "http://www.w3.org/TR/2001/REC-SVG-20010904/DTD/svg10.dtd">

<svg xmlns="http://www.w3.org/2000/svg"
     width="4.75556in" height="2.54444in"
     viewBox="0 0 428 229">
  <path id="Selection #1"
        fill="none" stroke="black" stroke-width="1"
        d="M 99.83,119.00
           C 99.87,165.11 131.35,205.95 174.00,221.54
             183.18,224.89 196.75,228.05 206.50,228.17
             222.21,228.35 237.52,226.73 252.33,221.15
             257.30,219.27 265.31,215.48 269.83,212.79
             272.40,211.26 277.26,207.56 279.83,207.16
             279.83,207.16 289.83,207.16 289.83,207.16
             316.42,206.72 336.66,184.56 350.38,164.00
             357.53,153.26 368.05,134.40 378.17,127.16
             385.97,121.57 397.83,119.12 407.33,119.00
             410.62,118.97 419.71,119.52 422.19,118.15
             424.22,117.02 429.12,112.06 426.19,109.85
             424.83,108.83 421.52,109.00 419.83,109.00
             419.83,109.00 329.00,109.00 329.00,109.00
             328.57,61.24 294.79,19.62 249.83,5.65
             241.33,3.01 230.40,0.77 221.50,0.67
             206.85,0.50 191.97,1.85 178.17,7.17
             171.98,9.57 166.45,11.88 160.67,15.19
             160.67,15.19 150.18,21.32 150.18,21.32
             148.37,21.82 143.22,20.73 140.67,20.67
             112.80,20.05 91.92,42.58 77.63,64.00
             70.47,74.74 59.95,93.60 49.83,100.84
             42.02,106.43 30.17,108.88 20.67,109.00
             17.37,109.03 8.29,108.47 5.81,109.85
             3.78,110.97 -1.12,115.94 1.81,118.15
             3.17,119.17 6.48,119.00 8.17,119.00
             8.17,119.00 99.83,119.00 99.83,119.00 Z
           M 294.00,47.33
           C 286.19,44.07 279.98,38.07 265.67,33.17
             256.84,30.15 246.71,27.38 237.33,27.33
             228.76,27.29 219.97,27.02 211.50,28.55
             199.27,30.77 186.54,38.22 178.31,47.33
             171.35,55.03 166.95,61.63 166.53,72.33
             166.23,79.94 168.71,86.06 174.03,91.48
             175.77,93.25 178.73,96.35 181.47,95.82
             183.01,95.52 184.17,94.22 185.17,93.12
             191.62,86.02 188.01,79.35 192.33,73.34
             195.02,69.62 199.08,69.84 203.17,69.83
             207.61,69.82 210.47,69.83 214.83,71.14
             233.10,76.62 236.66,96.52 237.30,113.17
             237.47,117.36 236.82,118.69 236.57,122.33
             235.42,139.07 232.31,157.27 221.22,170.67
             209.64,184.67 189.85,192.54 172.33,195.46
             170.12,195.83 164.99,196.42 163.24,197.34
             161.06,198.49 159.91,200.87 157.30,200.56
             155.46,200.34 152.20,197.92 150.67,196.80
             145.21,192.82 141.72,189.89 137.21,184.83
             121.74,167.47 110.11,141.72 109.83,118.17
             109.83,118.17 109.83,107.33 109.83,107.33
             109.88,82.47 122.05,53.18 140.67,36.64
             143.77,33.88 145.09,33.37 148.17,31.16
             181.28,7.34 224.99,3.92 261.50,22.12
             271.56,27.14 288.37,37.72 294.00,47.33 Z
           M 139.83,30.67
           C 136.88,34.80 134.88,36.27 131.57,39.83
             131.57,39.83 122.52,50.67 122.52,50.67
             113.60,62.29 107.44,74.91 103.52,89.00
             102.31,93.37 101.30,97.82 100.80,102.33
             100.61,104.13 100.75,106.93 99.22,108.17
             97.93,109.21 94.78,109.00 93.17,109.00
             93.17,109.00 49.83,109.00 49.83,109.00
             52.87,104.76 55.50,102.72 58.86,99.00
             63.60,93.75 67.90,88.10 71.98,82.33
             71.98,82.33 95.74,48.20 95.74,48.20
             104.98,38.67 120.56,30.82 134.00,30.67
             134.00,30.67 139.83,30.67 139.83,30.67 Z
           M 166.50,206.50
           C 169.49,204.76 175.11,204.10 179.00,202.88
             187.39,200.27 195.62,196.97 203.17,192.39
             208.51,189.15 212.94,185.05 217.33,180.67
             229.40,168.62 238.07,157.27 242.81,140.67
             246.54,127.59 246.52,118.12 246.50,104.83
             246.46,80.77 232.37,59.53 206.50,59.83
             202.67,59.88 199.86,60.25 196.50,62.32
             189.81,66.47 183.99,75.32 180.67,82.33
             174.14,75.71 175.45,56.66 181.82,50.15
             185.28,46.61 198.15,40.84 203.17,39.37
             206.52,38.38 221.92,36.60 225.67,36.51
             229.75,36.42 231.05,36.82 234.83,37.19
             258.56,39.57 278.63,47.91 296.50,63.87
             300.66,67.57 310.53,76.14 312.93,80.67
             316.24,86.88 318.99,105.06 319.00,112.33
             319.02,128.12 317.88,141.60 311.96,156.50
             308.35,165.60 302.60,176.58 296.25,184.00
             293.72,186.96 288.06,192.62 284.83,194.65
             284.83,194.65 279.97,197.09 279.97,197.09
             276.85,199.19 278.03,200.29 268.17,205.78
             255.48,212.84 235.20,217.99 220.67,218.17
             197.81,218.43 187.35,215.47 166.50,206.50 Z
           M 294.83,47.33
           C 294.83,47.33 294.83,48.17 294.83,48.17
             294.83,48.17 294.00,47.33 294.00,47.33
             294.00,47.33 294.83,47.33 294.83,47.33 Z
           M 295.67,48.17
           C 295.67,48.17 295.67,49.00 295.67,49.00
             295.67,49.00 294.83,48.17 294.83,48.17
             294.83,48.17 295.67,48.17 295.67,48.17 Z
           M 378.17,119.00
           C 375.13,123.24 372.50,125.28 369.14,129.00
             364.40,134.25 360.10,139.90 356.02,145.67
             356.02,145.67 333.02,178.99 333.02,178.99
             321.94,191.10 305.97,197.33 289.83,197.33
             292.58,193.49 294.20,192.32 297.19,189.00
             297.19,189.00 307.42,176.50 307.42,176.50
             317.01,163.70 321.20,154.25 325.42,139.00
             326.33,135.72 327.67,129.82 328.02,126.50
             328.23,124.53 327.94,121.18 329.62,119.82
             330.90,118.79 334.05,119.00 335.67,119.00
             335.67,119.00 378.17,119.00 378.17,119.00 Z" />
</svg>
