<?xml version="1.0" encoding="UTF-8" standalone="no"?>
<!DOCTYPE svg PUBLIC "-//W3C//DTD SVG 20010904//EN"
              "http://www.w3.org/TR/2001/REC-SVG-20010904/DTD/svg10.dtd">

<svg xmlns="http://www.w3.org/2000/svg"
     width="4.36667in" height="3.74444in"
     viewBox="0 0 393 337">
  <path id="Selection"
        fill="none" stroke="black" stroke-width="1"
        d="M 195.91,0.42
           C 189.21,5.12 183.92,16.50 179.67,23.67
             179.67,23.67 149.29,76.17 149.29,76.17
             149.29,76.17 139.65,92.83 139.65,92.83
             138.48,94.87 135.82,98.91 135.82,101.17
             135.83,103.80 142.47,114.16 144.17,117.00
             144.17,117.00 166.32,154.50 166.32,154.50
             166.32,154.50 184.99,186.17 184.99,186.17
             187.13,189.82 189.69,196.25 194.17,197.18
             198.74,198.13 202.42,191.99 204.48,188.67
             204.48,188.67 223.17,157.00 223.17,157.00
             223.17,157.00 248.17,114.50 248.17,114.50
             249.98,111.46 257.50,99.73 257.51,97.00
             257.52,94.18 250.17,82.60 248.34,79.50
             248.34,79.50 224.77,38.67 224.77,38.67
             224.77,38.67 207.38,8.67 207.38,8.67
             204.62,3.85 202.36,-1.04 195.91,0.42 Z
           M 195.83,10.33
           C 195.83,10.33 233.68,76.17 233.68,76.17
             233.68,76.17 243.82,93.67 243.82,93.67
             243.82,93.67 247.64,102.00 247.64,102.00
             247.64,102.00 244.29,109.50 244.29,109.50
             244.29,109.50 234.88,125.33 234.88,125.33
             234.88,125.33 199.17,186.17 199.17,186.17
             199.17,186.17 197.50,186.17 197.50,186.17
             197.50,186.17 158.93,120.33 158.93,120.33
             158.93,120.33 149.04,103.67 149.04,103.67
             149.04,103.67 145.69,96.17 145.69,96.17
             145.69,96.17 149.04,88.67 149.04,88.67
             149.04,88.67 158.68,72.00 158.68,72.00
             158.68,72.00 194.17,10.33 194.17,10.33
             194.17,10.33 195.83,10.33 195.83,10.33 Z
           M 195.91,41.12
           C 190.22,45.26 187.14,51.88 183.91,57.83
             183.91,57.83 168.14,86.17 168.14,86.17
             166.57,89.06 160.68,98.49 160.76,101.17
             160.82,103.47 164.23,108.98 165.48,111.17
             165.48,111.17 177.25,132.00 177.25,132.00
             177.25,132.00 187.50,150.33 187.50,150.33
             189.16,153.22 190.57,156.43 194.17,157.18
             197.70,157.92 199.60,155.30 201.57,152.83
             201.57,152.83 212.85,133.67 212.85,133.67
             212.85,133.67 226.90,108.67 226.90,108.67
             228.28,106.23 232.51,99.47 232.57,97.00
             232.64,94.64 228.81,88.46 227.50,86.17
             227.50,86.17 214.52,62.83 214.52,62.83
             214.52,62.83 205.82,47.00 205.82,47.00
             204.17,44.27 202.53,41.67 199.17,41.12
             197.42,40.62 197.42,40.92 195.91,41.12 Z
           M 195.83,51.17
           C 195.83,51.17 214.88,86.17 214.88,86.17
             214.88,86.17 222.68,102.00 222.68,102.00
             222.68,102.00 216.18,115.33 216.18,115.33
             216.18,115.33 199.17,146.17 199.17,146.17
             199.17,146.17 197.50,146.17 197.50,146.17
             197.50,146.17 178.57,112.00 178.57,112.00
             177.08,109.38 171.03,99.21 170.72,97.00
             170.29,94.07 174.55,87.35 176.09,84.50
             176.09,84.50 187.25,64.50 187.25,64.50
             189.70,60.03 192.01,54.54 195.83,51.17 Z
           M 132.62,109.64
           C 126.97,113.62 120.53,126.39 116.67,132.83
             116.67,132.83 86.18,184.50 86.18,184.50
             86.18,184.50 75.96,202.00 75.96,202.00
             74.85,203.93 72.49,207.33 72.49,209.50
             72.49,212.12 79.14,222.51 80.83,225.33
             80.83,225.33 102.98,262.83 102.98,262.83
             102.98,262.83 121.17,293.67 121.17,293.67
             122.56,296.02 126.25,303.44 128.50,304.36
             132.08,305.82 136.23,298.67 137.72,296.17
             137.72,296.17 157.15,262.00 157.15,262.00
             157.15,262.00 180.23,221.17 180.23,221.17
             182.03,218.00 189.17,206.53 189.17,203.67
             189.17,200.98 182.32,190.01 180.60,187.00
             180.60,187.00 157.02,146.17 157.02,146.17
             157.02,146.17 140.67,117.83 140.67,117.83
             138.67,114.47 137.04,109.22 132.62,109.64 Z
           M 262.62,110.47
           C 256.87,114.52 250.16,127.95 246.43,134.50
             246.43,134.50 217.62,184.50 217.62,184.50
             217.62,184.50 207.98,201.17 207.98,201.17
             206.81,203.21 204.16,207.22 204.16,209.50
             204.16,212.33 210.88,223.10 212.62,226.17
             212.62,226.17 234.29,264.50 234.29,264.50
             234.29,264.50 251.32,294.50 251.32,294.50
             252.63,296.79 256.34,304.30 258.51,305.19
             262.04,306.65 266.29,299.47 267.82,297.00
             267.82,297.00 288.46,262.00 288.46,262.00
             288.46,262.00 312.00,222.00 312.00,222.00
             313.76,219.07 320.84,208.00 320.84,205.33
             320.84,202.62 313.32,190.86 311.50,187.83
             311.50,187.83 287.49,147.00 287.49,147.00
             287.49,147.00 270.71,118.67 270.71,118.67
             268.76,115.27 267.10,110.04 262.62,110.47 Z
           M 130.83,122.83
           C 130.83,122.83 166.43,184.50 166.43,184.50
             166.43,184.50 175.50,200.33 175.50,200.33
             175.50,200.33 179.35,208.67 179.35,208.67
             179.35,208.67 176.07,216.17 176.07,216.17
             176.07,216.17 166.67,232.83 166.67,232.83
             166.67,232.83 143.08,274.50 143.08,274.50
             143.08,274.50 133.33,292.00 133.33,292.00
             133.33,292.00 120.67,271.17 120.67,271.17
             120.67,271.17 94.65,227.00 94.65,227.00
             94.65,227.00 85.23,211.17 85.23,211.17
             85.23,211.17 82.43,203.67 82.43,203.67
             82.43,203.67 86.18,196.17 86.18,196.17
             86.18,196.17 95.12,181.17 95.12,181.17
             95.12,181.17 129.17,122.83 129.17,122.83
             129.17,122.83 130.83,122.83 130.83,122.83 Z
           M 260.83,122.83
           C 260.83,122.83 274.67,147.00 274.67,147.00
             274.67,147.00 297.73,186.17 297.73,186.17
             297.73,186.17 307.62,202.83 307.62,202.83
             307.62,202.83 310.97,210.33 310.97,210.33
             310.97,210.33 307.62,217.83 307.62,217.83
             307.62,217.83 298.68,232.83 298.68,232.83
             298.68,232.83 264.17,292.00 264.17,292.00
             264.17,292.00 262.50,292.00 262.50,292.00
             262.50,292.00 228.10,231.17 228.10,231.17
             228.10,231.17 218.21,213.67 218.21,213.67
             218.21,213.67 214.05,205.33 214.05,205.33
             214.05,205.33 216.83,197.83 216.83,197.83
             216.83,197.83 225.00,183.67 225.00,183.67
             225.00,183.67 247.62,144.50 247.62,144.50
             247.62,144.50 260.83,122.83 260.83,122.83 Z
           M 132.62,149.64
           C 126.94,153.64 125.01,159.52 121.78,165.33
             121.78,165.33 105.25,195.33 105.25,195.33
             103.62,198.32 97.34,208.42 97.42,211.17
             97.50,213.54 101.17,218.98 102.54,221.17
             102.54,221.17 114.67,241.17 114.67,241.17
             114.67,241.17 124.33,257.00 124.33,257.00
             125.38,258.74 127.48,262.77 129.33,263.52
             132.22,264.71 134.98,260.64 136.42,258.67
             136.42,258.67 147.85,238.67 147.85,238.67
             147.85,238.67 160.83,215.33 160.83,215.33
             162.12,213.08 165.97,206.78 165.97,204.50
             165.97,202.22 162.12,195.92 160.83,193.67
             160.83,193.67 148.22,171.17 148.22,171.17
             148.22,171.17 138.82,154.50 138.82,154.50
             137.05,151.51 136.35,149.28 132.62,149.64 Z
           M 262.62,150.47
           C 257.52,154.07 254.71,160.04 251.67,165.33
             251.67,165.33 234.81,195.33 234.81,195.33
             233.23,198.23 227.36,207.67 227.36,210.33
             227.36,212.45 230.41,217.46 231.55,219.50
             231.55,219.50 243.14,240.33 243.14,240.33
             243.14,240.33 252.85,257.83 252.85,257.83
             253.84,259.57 255.86,263.61 257.67,264.36
             260.36,265.47 262.72,262.14 264.13,260.33
             264.13,260.33 276.67,240.33 276.67,240.33
             276.67,240.33 290.27,217.83 290.27,217.83
             291.71,215.54 295.83,209.45 295.91,207.00
             295.97,204.66 292.13,198.45 290.83,196.17
             290.83,196.17 277.50,172.00 277.50,172.00
             277.50,172.00 268.53,155.33 268.53,155.33
             266.95,152.26 266.38,150.12 262.62,150.47 Z
           M 130.83,162.83
           C 130.83,162.83 149.05,195.33 149.05,195.33
             149.05,195.33 156.02,209.50 156.02,209.50
             156.02,209.50 149.52,222.83 149.52,222.83
             149.52,222.83 134.17,251.17 134.17,251.17
             134.17,251.17 114.43,219.50 114.43,219.50
             114.43,219.50 107.33,206.17 107.33,206.17
             107.33,206.17 113.22,193.67 113.22,193.67
             113.22,193.67 130.83,162.83 130.83,162.83 Z
           M 260.83,163.67
           C 260.83,163.67 278.68,197.00 278.68,197.00
             278.68,197.00 286.00,212.00 286.00,212.00
             286.00,212.00 279.43,224.50 279.43,224.50
             279.43,224.50 263.33,251.17 263.33,251.17
             263.33,251.17 261.67,251.17 261.67,251.17
             261.67,251.17 244.28,219.50 244.28,219.50
             244.28,219.50 237.32,205.33 237.32,205.33
             237.32,205.33 243.82,192.00 243.82,192.00
             243.82,192.00 259.17,163.67 259.17,163.67
             259.17,163.67 260.83,163.67 260.83,163.67 Z
           M -0.00,331.17
           C 3.18,334.90 4.53,334.49 9.17,334.50
             9.17,334.50 31.67,334.50 31.67,334.50
             31.67,334.50 109.17,334.50 109.17,334.50
             109.17,334.50 123.33,335.33 123.33,335.33
             123.33,335.33 187.50,335.33 187.50,335.33
             187.50,335.33 193.93,335.33 193.93,335.33
             196.71,335.57 196.18,336.09 200.83,336.17
             200.83,336.17 265.83,336.17 265.83,336.17
             265.83,336.17 278.33,335.33 278.33,335.33
             278.33,335.33 380.83,335.33 380.83,335.33
             382.52,335.33 385.09,335.43 386.63,334.83
             389.67,333.67 393.12,329.55 392.20,326.17
             391.76,324.50 388.24,318.81 387.17,317.00
             387.17,317.00 377.02,299.50 377.02,299.50
             377.02,299.50 345.12,244.50 345.12,244.50
             345.12,244.50 334.04,225.33 334.04,225.33
             332.81,223.17 330.65,218.88 328.26,217.97
             325.42,216.89 323.17,220.13 321.60,222.00
             317.58,226.80 312.99,234.79 309.67,240.33
             309.67,240.33 280.17,288.67 280.17,288.67
             280.17,288.67 260.83,319.50 260.83,319.50
             259.33,314.77 249.05,298.19 245.83,292.83
             245.83,292.83 216.00,242.83 216.00,242.83
             216.00,242.83 206.00,226.17 206.00,226.17
             204.27,223.31 202.75,220.07 199.16,219.32
             195.62,218.57 193.75,221.20 191.77,223.67
             191.77,223.67 180.83,241.17 180.83,241.17
             180.83,241.17 152.50,288.67 152.50,288.67
             152.50,288.67 135.00,318.67 135.00,318.67
             135.00,318.67 89.21,243.67 89.21,243.67
             89.21,243.67 77.54,224.50 77.54,224.50
             76.23,222.42 73.90,218.02 71.59,217.14
             68.57,215.99 65.88,219.98 64.24,222.00
             60.81,226.23 54.58,237.53 51.54,242.83
             51.54,242.83 21.07,295.33 21.07,295.33
             21.07,295.33 -0.00,331.17 -0.00,331.17 Z
           M 67.50,228.67
           C 67.50,228.67 80.99,251.17 80.99,251.17
             80.99,251.17 109.84,298.67 109.84,298.67
             109.84,298.67 125.83,325.33 125.83,325.33
             125.83,325.33 88.33,325.33 88.33,325.33
             88.33,325.33 75.83,324.50 75.83,324.50
             75.83,324.50 11.67,324.50 11.67,324.50
             11.67,324.50 46.43,263.67 46.43,263.67
             46.43,263.67 59.99,240.33 59.99,240.33
             59.99,240.33 67.50,228.67 67.50,228.67 Z
           M 195.83,230.33
           C 195.83,230.33 207.15,249.50 207.15,249.50
             207.15,249.50 240.35,305.33 240.35,305.33
             240.35,305.33 252.50,326.20 252.50,326.20
             252.50,326.20 207.50,326.20 207.50,326.20
             207.50,326.20 200.00,326.20 200.00,326.20
             200.00,326.20 192.50,325.33 192.50,325.33
             192.50,325.33 138.33,325.33 138.33,325.33
             138.33,325.33 153.93,297.83 153.93,297.83
             153.93,297.83 194.17,230.33 194.17,230.33
             194.17,230.33 195.83,230.33 195.83,230.33 Z
           M 324.17,230.33
           C 324.17,230.33 357.02,287.00 357.02,287.00
             357.02,287.00 379.17,325.33 379.17,325.33
             379.17,325.33 321.67,325.33 321.67,325.33
             321.67,325.33 307.50,326.17 307.50,326.17
             307.50,326.17 265.00,326.17 265.00,326.17
             265.00,326.17 283.49,294.50 283.49,294.50
             283.49,294.50 322.50,230.33 322.50,230.33
             322.50,230.33 324.17,230.33 324.17,230.33 Z" />
</svg>
