<?xml version="1.0" encoding="UTF-8" standalone="no"?>
<!DOCTYPE svg PUBLIC "-//W3C//DTD SVG 20010904//EN"
              "http://www.w3.org/TR/2001/REC-SVG-20010904/DTD/svg10.dtd">

<svg xmlns="http://www.w3.org/2000/svg"
     width="2.38889in" height="3.42222in"
     viewBox="0 0 215 308">
  <path id="Selection"
        fill="none" stroke="black" stroke-width="1"
        d="M 42.17,22.17
           C 35.65,24.33 31.34,24.75 25.50,29.27
             22.67,31.47 20.89,33.62 18.62,36.33
             5.28,52.34 6.61,69.61 10.67,88.83
             10.67,88.83 16.06,108.68 16.06,108.68
             16.17,111.36 13.10,113.08 11.33,114.74
             7.99,117.89 1.04,125.04 0.64,129.67
             0.37,132.81 4.18,149.05 5.19,153.00
             8.95,167.68 17.44,193.30 23.36,207.17
             29.40,221.32 36.87,236.57 47.31,248.00
             50.43,251.42 54.06,254.35 58.00,256.78
             61.91,259.20 65.71,260.48 66.84,265.50
             68.75,273.99 59.85,275.23 53.83,277.67
             46.05,280.82 33.93,290.90 32.65,299.67
             31.67,306.42 38.79,305.24 43.00,305.64
             43.00,305.64 52.17,306.33 52.17,306.33
             52.17,306.33 58.83,306.33 58.83,306.33
             58.83,306.33 71.33,307.20 71.33,307.20
             71.33,307.20 83.83,307.20 83.83,307.20
             83.83,307.20 92.17,308.00 92.17,308.00
             92.17,308.00 117.17,308.00 117.17,308.00
             117.17,308.00 127.17,307.20 127.17,307.20
             127.17,307.20 139.67,307.20 139.67,307.20
             139.67,307.20 152.17,306.33 152.17,306.33
             152.17,306.33 158.83,306.33 158.83,306.33
             158.83,306.33 170.50,305.51 170.50,305.51
             172.21,305.47 174.69,305.62 176.26,305.00
             178.00,304.32 179.38,302.77 180.52,301.32
             184.62,296.08 182.08,291.02 178.27,286.41
             170.15,276.59 158.87,276.94 151.49,271.37
             148.51,269.11 147.27,265.05 148.26,261.42
             149.10,258.37 155.29,255.41 158.00,253.27
             162.81,249.49 170.33,240.56 174.03,235.50
             188.77,215.38 201.24,178.94 208.12,154.67
             208.12,154.67 213.17,133.83 213.17,133.83
             213.71,131.16 214.89,126.40 214.42,123.83
             213.27,117.53 202.69,109.87 197.17,107.17
             199.97,101.68 201.62,95.62 203.11,89.67
             208.87,66.61 212.39,33.54 183.83,24.13
             178.02,22.22 174.78,22.17 168.83,22.17
             174.55,18.30 177.77,15.23 181.92,9.67
             183.14,8.02 185.03,5.47 183.29,3.50
             181.68,1.67 176.19,2.19 173.83,2.17
             173.83,2.17 162.17,1.33 162.17,1.33
             162.17,1.33 146.33,1.33 146.33,1.33
             146.33,1.33 134.67,0.50 134.67,0.50
             134.67,0.50 87.17,0.50 87.17,0.50
             87.17,0.50 73.83,1.33 73.83,1.33
             73.83,1.33 56.33,1.33 56.33,1.33
             56.33,1.33 44.67,2.17 44.67,2.17
             42.38,2.17 39.27,1.93 37.24,3.02
             35.85,3.77 34.63,5.14 33.64,6.35
             32.72,7.47 31.44,9.03 31.22,10.50
             30.52,15.14 38.38,20.88 42.17,22.17 Z
           M 52.17,11.33
           C 49.44,13.92 48.86,13.61 45.50,12.17
             45.50,12.17 52.17,11.33 52.17,11.33 Z
           M 171.33,12.03
           C 165.91,16.47 164.93,14.44 159.33,21.33
             157.98,22.99 156.17,24.87 157.09,27.15
             159.38,32.82 167.47,31.81 172.17,32.31
             178.61,33.00 187.43,36.73 191.12,42.20
             200.52,56.08 197.35,78.52 193.52,93.83
             193.52,93.83 190.21,105.50 190.21,105.50
             189.72,106.97 188.16,110.58 188.30,111.92
             188.62,115.02 194.77,118.14 197.17,119.84
             203.72,124.47 204.64,126.14 204.67,133.83
             204.67,133.83 187.17,136.10 187.17,136.10
             187.17,136.10 162.17,138.07 162.17,138.07
             162.17,138.07 153.83,138.83 153.83,138.83
             153.83,138.83 135.50,139.67 135.50,139.67
             135.50,139.67 83.83,139.67 83.83,139.67
             83.83,139.67 66.33,138.83 66.33,138.83
             66.33,138.83 57.17,138.07 57.17,138.07
             57.17,138.07 32.17,136.10 32.17,136.10
             32.17,136.10 11.34,133.00 11.34,133.00
             11.09,129.97 9.82,125.04 11.34,122.42
             13.82,118.19 23.78,115.72 26.47,108.83
             27.53,106.10 25.20,101.38 24.67,98.00
             27.27,100.62 30.04,104.15 32.19,107.17
             33.27,108.67 34.60,111.23 36.44,111.82
             38.59,112.52 44.04,109.43 46.33,108.50
             46.33,108.50 62.09,103.82 62.09,103.82
             64.22,102.64 67.52,98.62 68.11,96.33
             69.55,92.94 68.01,84.02 68.11,79.67
             68.11,79.67 68.11,65.50 68.11,65.50
             68.11,65.50 67.17,54.67 67.17,54.67
             67.13,51.73 67.57,46.33 66.32,43.83
             61.71,34.67 48.38,31.58 39.67,36.52
             35.50,38.88 23.82,51.07 22.04,55.50
             21.38,57.14 20.45,68.35 20.53,70.50
             20.53,70.50 21.33,85.50 21.33,85.50
             17.62,77.46 17.23,58.42 19.07,49.67
             19.92,45.64 21.47,40.33 24.76,37.69
             33.61,30.60 43.62,33.22 48.83,31.31
             52.92,29.80 55.38,25.69 58.83,23.00
             60.42,25.67 61.30,27.42 64.67,27.87
             64.67,27.87 87.17,26.33 87.17,26.33
             87.17,26.33 118.00,26.33 118.00,26.33
             118.00,26.33 137.17,27.40 137.17,27.40
             139.44,27.67 147.04,28.81 148.82,28.26
             153.33,26.88 160.62,13.50 165.57,12.03
             167.09,11.42 169.71,11.96 171.33,12.03 Z
           M 74.67,17.17
           C 74.67,17.17 68.00,18.00 68.00,18.00
             68.00,18.00 74.67,17.17 74.67,17.17 Z
           M 152.17,17.17
           C 149.16,19.04 144.08,18.00 140.50,18.00
             140.50,18.00 152.17,17.17 152.17,17.17 Z
           M 166.33,34.27
           C 159.49,36.11 150.95,41.93 148.49,48.83
             147.90,50.50 148.00,52.89 148.00,54.67
             148.00,54.67 147.17,69.67 147.17,69.67
             147.17,69.67 147.17,83.83 147.17,83.83
             147.17,83.83 146.34,95.50 146.34,95.50
             146.29,97.77 146.13,100.90 147.67,102.74
             149.15,104.51 161.38,107.48 164.67,108.84
             167.04,109.82 172.29,112.86 174.59,112.32
             177.86,111.57 183.21,102.60 185.50,99.67
             190.85,92.80 193.14,87.64 193.92,78.83
             193.92,78.83 193.92,71.33 193.92,71.33
             194.62,66.62 194.77,53.76 193.12,49.67
             192.12,47.18 189.83,44.89 187.99,43.00
             181.23,36.07 176.31,32.68 166.33,34.27 Z
           M 41.33,102.17
           C 38.86,98.85 36.10,95.99 34.40,92.17
             30.79,84.06 30.48,71.03 30.50,62.17
             30.51,59.17 30.83,51.52 32.31,49.11
             34.20,46.02 39.55,44.16 43.00,43.92
             46.71,43.65 54.18,44.98 56.32,48.32
             57.48,50.15 57.09,54.06 57.31,56.33
             57.31,56.33 57.99,78.00 57.99,78.00
             58.01,81.74 59.76,92.55 57.99,95.07
             56.95,96.55 54.62,97.15 53.00,97.74
             53.00,97.74 41.33,102.17 41.33,102.17 Z
           M 178.00,102.17
           C 178.00,102.17 163.83,96.89 163.83,96.89
             162.10,96.32 158.23,95.44 157.16,94.07
             156.03,92.62 156.32,88.21 156.33,86.33
             156.33,86.33 157.17,74.67 157.17,74.67
             157.17,74.67 157.17,60.50 157.17,60.50
             157.17,58.20 157.72,47.52 158.82,46.10
             160.38,44.11 165.64,43.75 168.00,43.92
             174.14,44.34 181.06,48.78 183.23,54.67
             185.61,61.08 184.72,75.22 183.97,82.17
             183.57,85.91 183.38,88.42 182.45,92.17
             181.39,96.38 180.27,98.51 178.00,102.17 Z
           M 23.83,93.83
           C 23.83,93.83 23.83,94.67 23.83,94.67
             23.83,94.67 23.00,93.83 23.00,93.83
             23.00,93.83 23.83,93.83 23.83,93.83 Z
           M 14.67,143.83
           C 14.67,143.83 14.67,144.67 14.67,144.67
             14.67,144.67 13.83,143.83 13.83,143.83
             13.83,143.83 14.67,143.83 14.67,143.83 Z
           M 197.17,143.83
           C 197.17,143.83 194.33,148.83 194.33,148.83
             194.33,148.83 195.50,163.83 195.50,163.83
             195.50,163.83 173.83,165.50 173.83,165.50
             173.83,165.50 177.47,159.67 177.47,159.67
             177.47,159.67 176.33,146.33 176.33,146.33
             176.33,146.33 197.17,143.83 197.17,143.83 Z
           M 42.17,147.17
           C 42.17,147.17 38.83,153.00 38.83,153.00
             38.83,153.00 37.17,165.50 37.17,165.50
             33.27,164.55 21.54,164.74 19.59,161.91
             18.08,159.71 19.50,157.68 20.06,155.50
             20.06,155.50 21.33,145.50 21.33,145.50
             21.33,145.50 42.17,147.17 42.17,147.17 Z
           M 171.33,147.17
           C 171.33,147.17 167.85,153.83 167.85,153.83
             167.85,153.83 167.85,166.33 167.85,166.33
             167.85,166.33 151.33,167.17 151.33,167.17
             151.33,167.17 140.50,167.17 140.50,167.17
             145.85,156.96 144.67,161.07 144.67,148.83
             144.67,148.83 171.33,147.17 171.33,147.17 Z
           M 74.67,148.83
           C 74.67,148.83 70.99,155.50 70.99,155.50
             70.99,155.50 69.67,167.17 69.67,167.17
             69.67,167.17 43.00,165.50 43.00,165.50
             48.07,158.06 47.27,156.98 48.00,148.00
             48.00,148.00 64.67,148.83 64.67,148.83
             64.67,148.83 74.67,148.83 74.67,148.83 Z
           M 138.83,148.83
           C 138.83,148.83 135.16,155.50 135.16,155.50
             133.88,159.15 135.30,164.42 136.33,168.00
             136.33,168.00 108.83,168.00 108.83,168.00
             108.83,168.00 112.51,161.33 112.51,161.33
             112.51,161.33 113.00,149.67 113.00,149.67
             113.00,149.67 128.00,149.67 128.00,149.67
             128.00,149.67 138.83,148.83 138.83,148.83 Z
           M 107.17,149.67
           C 107.17,149.67 103.49,156.33 103.49,156.33
             103.49,156.33 103.00,168.00 103.00,168.00
             103.00,168.00 88.00,168.00 88.00,168.00
             88.00,168.00 75.50,167.17 75.50,167.17
             79.74,159.07 80.41,159.51 80.50,149.67
             80.50,149.67 107.17,149.67 107.17,149.67 Z
           M 23.83,173.83
           C 23.83,173.83 43.00,175.57 43.00,175.57
             43.00,175.57 49.67,176.35 49.67,176.35
             49.67,176.35 58.00,176.35 58.00,176.35
             58.00,176.35 66.33,177.17 66.33,177.17
             66.33,177.17 78.83,177.17 78.83,177.17
             78.83,177.17 91.33,178.00 91.33,178.00
             91.33,178.00 119.67,178.00 119.67,178.00
             119.67,178.00 129.67,177.20 129.67,177.20
             129.67,177.20 143.00,177.20 143.00,177.20
             143.00,177.20 157.17,176.33 157.17,176.33
             157.17,176.33 168.00,175.47 168.00,175.47
             168.00,175.47 175.50,175.47 175.50,175.47
             175.50,175.47 193.83,173.83 193.83,173.83
             190.99,186.27 181.80,207.72 176.31,219.67
             174.84,222.86 168.22,235.56 165.89,237.21
             164.20,238.40 160.88,238.66 158.83,238.94
             158.83,238.94 141.33,240.50 141.33,240.50
             141.33,240.50 79.67,240.50 79.67,240.50
             79.67,240.50 60.50,238.94 60.50,238.94
             57.81,238.57 54.56,238.35 52.32,236.68
             49.71,234.72 46.82,229.27 45.15,226.33
             40.50,218.22 36.54,209.93 32.88,201.33
             32.88,201.33 25.78,183.00 25.78,183.00
             24.77,180.07 23.28,176.93 23.83,173.83 Z
           M 152.17,248.83
           C 152.17,248.83 152.17,249.67 152.17,249.67
             152.17,249.67 151.33,248.83 151.33,248.83
             151.33,248.83 152.17,248.83 152.17,248.83 Z
           M 150.50,249.67
           C 150.50,249.67 141.44,259.67 141.44,259.67
             139.95,261.62 139.02,263.07 138.44,265.50
             133.70,285.18 166.71,283.91 171.33,296.33
             171.33,296.33 139.67,297.17 139.67,297.17
             139.67,297.17 127.17,298.00 127.17,298.00
             127.17,298.00 93.83,298.00 93.83,298.00
             93.83,298.00 79.67,297.13 79.67,297.13
             79.67,297.13 68.00,297.13 68.00,297.13
             68.00,297.13 58.00,296.33 58.00,296.33
             58.00,296.33 42.17,295.50 42.17,295.50
             43.91,288.98 48.91,288.13 54.67,285.83
             57.57,284.67 61.21,283.36 63.83,281.77
             70.66,277.64 79.20,268.30 76.50,259.67
             75.39,256.12 72.60,253.47 70.50,250.50
             70.50,250.50 133.00,250.50 133.00,250.50
             133.00,250.50 150.50,249.67 150.50,249.67 Z" />
</svg>
