<?xml version="1.0" encoding="UTF-8" standalone="no"?>
<!DOCTYPE svg PUBLIC "-//W3C//DTD SVG 20010904//EN"
              "http://www.w3.org/TR/2001/REC-SVG-20010904/DTD/svg10.dtd">

<svg xmlns="http://www.w3.org/2000/svg"
     width="3.24444in" height="4.3in"
     viewBox="0 0 292 387">
  <path id="Selection #1"
        fill="none" stroke="black" stroke-width="1"
        d="M 146.00,7.17
           C 143.60,4.82 139.11,-0.39 135.31,1.40
             133.86,2.07 130.61,5.83 129.33,7.17
             132.73,14.38 133.58,18.38 133.50,26.33
             133.38,36.87 128.60,56.40 123.31,65.50
             120.63,70.10 115.38,76.16 109.33,74.76
             103.84,73.48 100.07,66.86 97.76,62.17
             96.82,60.25 95.40,56.51 93.33,55.64
             90.43,54.42 87.10,59.24 85.86,61.33
             85.86,61.33 79.44,78.83 79.44,78.83
             78.07,81.84 76.49,84.87 72.67,84.56
             65.42,83.97 60.93,76.42 58.39,70.50
             57.48,68.37 56.22,63.25 54.12,62.31
             51.83,61.28 49.72,63.96 48.47,65.52
             44.79,70.14 44.67,77.22 43.71,83.00
             41.49,96.28 39.70,110.17 33.24,122.17
             31.82,124.81 28.04,131.92 25.13,132.62
             21.77,133.42 18.97,128.35 16.01,127.31
             12.69,126.13 9.12,131.40 7.67,133.83
             4.59,138.99 1.07,155.88 1.00,162.17
             0.92,169.46 0.43,176.27 3.82,183.00
             6.53,188.42 10.26,190.76 10.83,193.00
             11.38,195.10 9.76,196.54 8.54,198.00
             5.84,201.24 4.23,203.10 2.74,207.17
             -1.64,219.11 2.06,237.00 5.66,248.83
             6.72,252.32 11.32,262.02 16.01,260.36
             18.33,259.54 21.09,255.68 23.50,255.07
             27.96,253.94 33.33,265.42 34.91,268.83
             40.41,280.75 42.41,296.63 44.54,309.67
             45.37,314.76 46.22,323.07 51.96,325.36
             55.61,326.82 56.82,321.17 57.72,318.83
             60.20,312.38 63.32,306.37 70.17,303.59
             71.76,303.16 73.42,302.75 75.08,303.59
             77.75,304.48 79.12,308.02 80.16,310.50
             82.52,316.16 85.20,329.68 91.12,332.02
             94.47,333.35 96.27,328.59 97.37,326.33
             99.93,321.02 104.77,311.97 111.83,312.76
             119.02,313.57 123.73,322.01 126.15,328.00
             131.67,341.68 137.55,366.35 129.33,379.67
             130.75,381.71 133.58,385.92 136.07,386.56
             139.88,387.53 144.08,382.32 146.00,379.67
             148.40,382.02 152.89,387.23 156.69,385.43
             158.14,384.76 161.39,381.00 162.67,379.67
             159.89,373.78 158.57,369.57 158.50,363.00
             158.38,352.36 161.86,337.06 165.85,327.17
             168.27,321.16 173.50,311.87 181.00,311.88
             187.63,311.89 192.14,320.34 194.63,325.50
             195.73,327.76 197.53,332.52 200.88,331.19
             206.80,328.85 209.48,315.32 211.84,309.67
             212.98,306.92 214.45,303.06 217.70,302.35
             225.33,300.67 231.63,311.43 233.96,317.17
             234.77,319.18 235.82,323.61 237.88,324.52
             240.68,325.77 244.12,320.88 245.23,318.83
             246.94,315.70 249.32,297.25 250.33,292.17
             252.56,280.96 253.46,274.17 259.22,263.83
             260.46,261.61 263.40,256.42 265.32,255.02
             269.64,251.86 272.41,258.27 275.99,259.52
             279.62,260.81 283.94,254.12 285.19,251.33
             289.55,241.68 291.02,228.49 291.00,218.00
             290.99,212.12 290.38,207.33 287.27,202.17
             285.86,199.82 281.03,195.00 281.03,193.00
             281.03,191.04 283.70,188.64 284.89,187.17
             287.06,184.50 288.46,182.10 289.54,178.83
             293.31,167.45 290.12,150.92 286.83,139.67
             285.66,135.65 282.54,128.07 278.36,126.47
             273.22,124.51 270.36,135.80 264.61,130.34
             263.32,129.12 261.62,126.26 260.67,124.67
             252.42,110.85 250.88,97.70 248.29,82.17
             247.29,76.13 246.71,64.13 240.04,61.47
             236.39,60.02 235.18,65.66 234.28,68.00
             231.82,74.41 227.14,83.09 219.33,83.72
             214.89,84.08 213.26,79.72 211.84,76.33
             209.48,70.67 206.80,57.15 200.88,54.81
             196.82,53.20 194.05,61.95 192.47,64.67
             187.42,73.38 184.62,75.10 175.17,73.00
             177.03,71.47 183.28,66.22 181.22,63.50
             178.59,60.05 170.75,65.26 167.51,61.83
             165.95,60.18 163.47,52.20 162.67,49.67
             158.92,37.51 155.67,18.50 162.67,7.17
             161.25,5.12 158.42,0.91 155.92,0.27
             152.12,-0.70 147.92,4.52 146.00,7.17 Z
           M 148.50,21.33
           C 149.33,31.59 152.50,46.13 156.72,55.50
             156.72,55.50 161.83,65.50 161.83,65.50
             161.83,65.50 135.17,77.42 135.17,77.42
             109.63,91.23 82.61,114.32 63.86,136.33
             54.32,147.52 45.88,158.90 39.42,172.17
             39.42,172.17 34.38,183.83 34.38,183.83
             33.77,185.40 33.18,187.60 31.48,188.32
             26.44,190.47 17.21,184.01 14.63,179.67
             7.42,167.58 11.08,152.52 13.50,139.67
             15.06,140.56 18.60,143.00 20.17,143.11
             23.99,143.38 31.16,134.25 33.57,131.33
             39.25,124.43 45.75,113.24 48.32,104.67
             48.32,104.67 52.67,84.67 52.67,84.67
             57.47,88.11 61.52,93.42 67.67,94.47
             75.87,95.89 87.16,79.88 89.33,73.00
             95.55,76.20 98.93,84.77 106.83,84.97
             113.32,85.15 120.10,77.53 123.97,73.00
             136.97,57.82 141.90,41.87 143.50,22.17
             143.50,22.17 146.00,24.67 146.00,24.67
             146.00,24.67 148.50,21.33 148.50,21.33 Z
           M 202.67,72.17
           C 204.84,79.05 216.13,95.06 224.33,93.64
             230.47,92.58 234.52,87.27 239.33,83.83
             239.33,83.83 243.67,103.83 243.67,103.83
             246.25,112.41 252.75,123.60 258.43,130.50
             260.84,133.42 268.01,142.54 271.83,142.27
             273.40,142.17 276.94,139.72 278.50,138.83
             280.94,151.80 284.75,167.71 276.87,179.67
             274.27,183.60 271.27,185.47 266.83,186.80
             260.59,188.67 257.16,187.12 257.16,193.00
             257.16,198.88 260.59,197.33 266.83,199.20
             271.27,200.53 274.27,202.40 276.87,206.33
             284.75,218.29 280.94,234.20 278.50,247.17
             276.94,246.27 273.40,243.83 271.83,243.72
             268.01,243.46 260.84,252.58 258.43,255.50
             252.75,262.40 246.25,273.59 243.67,282.17
             243.67,282.17 239.33,302.17 239.33,302.17
             234.52,298.72 230.47,293.42 224.33,292.36
             216.13,290.94 204.84,306.95 202.67,313.83
             195.19,309.99 195.57,303.22 183.50,301.33
             187.83,296.37 195.82,289.98 201.00,285.37
             201.00,285.37 241.00,249.80 241.00,249.80
             241.00,249.80 256.00,236.57 256.00,236.57
             257.97,234.83 262.02,231.44 262.59,228.83
             263.14,226.32 260.72,223.88 259.19,222.17
             256.22,218.82 245.97,207.04 242.67,205.63
             239.55,204.31 234.85,207.59 231.83,208.82
             224.42,211.84 219.67,212.20 211.83,212.17
             195.56,212.09 181.17,202.44 169.33,192.17
             174.57,185.47 189.52,176.83 197.67,173.91
             201.70,172.46 210.72,171.59 213.26,169.41
             219.41,164.13 218.42,160.16 218.50,153.00
             218.60,144.71 221.70,135.38 225.39,128.00
             225.39,128.00 230.92,118.02 230.92,118.02
             232.64,112.08 224.62,116.35 222.67,117.16
             212.09,121.55 203.22,124.43 191.83,126.11
             187.92,126.68 176.78,127.03 174.41,128.62
             166.27,134.01 169.22,140.71 166.80,148.83
             164.10,157.86 159.06,162.00 151.00,166.33
             140.48,141.52 139.45,122.36 152.05,98.00
             155.05,92.19 162.88,80.82 168.50,77.82
             174.04,74.88 176.77,84.37 185.17,84.14
             193.07,83.93 196.45,75.37 202.67,72.17 Z
           M 165.17,73.83
           C 165.17,73.83 149.53,92.17 149.53,92.17
             140.43,104.07 133.52,119.51 133.50,134.67
             133.48,144.65 133.79,150.87 137.12,160.50
             138.06,163.21 142.27,171.67 141.59,173.80
             140.98,175.67 138.32,177.58 136.91,178.97
             134.46,181.37 131.41,185.22 129.33,188.00
             119.97,181.38 116.57,175.87 104.33,171.96
             84.30,165.53 68.02,175.92 54.33,189.67
             49.80,194.22 44.57,200.18 40.95,205.50
             39.12,201.39 39.92,194.06 40.95,189.67
             43.58,177.80 47.69,168.48 53.73,158.00
             69.74,130.23 97.86,106.96 125.17,90.67
             135.81,84.32 152.97,75.71 165.17,73.83 Z
           M 218.50,127.17
           C 218.50,127.17 210.08,148.83 210.08,148.83
             210.08,148.83 207.67,161.57 207.67,161.57
             207.67,161.57 202.67,163.90 202.67,163.90
             202.67,163.90 192.67,168.26 192.67,168.26
             192.67,168.26 173.50,181.17 173.50,181.17
             173.50,181.17 165.17,188.00 165.17,188.00
             161.99,181.49 159.07,177.07 151.83,174.67
             153.91,171.00 157.97,168.48 161.00,165.49
             168.38,158.19 177.13,147.99 177.67,137.17
             194.71,135.78 202.79,132.62 218.50,127.17 Z
           M 120.17,193.83
           C 115.53,200.31 103.88,210.85 97.67,216.47
             97.67,216.47 80.17,233.82 80.17,233.82
             80.17,233.82 71.00,242.17 71.00,242.17
             64.48,248.54 49.06,265.42 41.83,268.83
             38.49,261.98 32.98,255.09 27.66,249.67
             26.12,248.10 23.20,244.90 21.00,244.58
             18.88,244.27 15.41,246.91 13.50,248.00
             10.97,234.52 5.88,211.13 20.17,202.16
             23.12,200.31 26.79,199.52 30.17,198.83
             30.17,203.12 29.15,215.33 36.00,215.33
             38.35,215.33 40.78,212.13 42.17,210.50
             47.94,203.70 49.01,200.40 56.00,193.91
             69.28,181.57 86.14,176.04 103.50,182.93
             109.47,185.31 115.32,189.67 120.17,193.83 Z
           M 141.83,184.12
           C 145.66,183.76 150.13,184.17 152.67,187.45
             155.82,191.52 157.02,200.47 150.15,201.88
             146.50,202.63 141.72,201.52 139.32,198.51
             137.18,195.80 135.63,188.72 138.17,185.92
             139.28,184.68 140.37,184.56 141.83,184.12 Z
           M 126.83,196.33
           C 128.65,203.97 134.57,209.56 141.83,212.17
             138.85,218.47 122.79,232.04 116.83,238.00
             116.83,238.00 103.50,250.53 103.50,250.53
             103.50,250.53 90.17,263.76 90.17,263.76
             90.17,263.76 81.83,271.33 81.83,271.33
             81.83,271.33 51.83,299.67 51.83,299.67
             51.83,299.67 48.32,283.00 48.32,283.00
             47.60,280.58 45.33,276.09 45.84,273.83
             46.49,270.92 50.49,268.01 52.67,266.10
             52.67,266.10 65.17,253.83 65.17,253.83
             65.17,253.83 104.33,216.30 104.33,216.30
             111.32,209.62 118.22,200.67 126.83,196.33 Z
           M 253.50,233.00
           C 253.50,233.00 233.50,250.37 233.50,250.37
             233.50,250.37 201.00,279.07 201.00,279.07
             195.90,283.54 185.63,293.77 180.17,296.33
             180.17,296.33 169.17,282.17 169.17,282.17
             167.85,280.51 165.30,277.72 165.42,275.50
             165.53,273.23 169.92,268.61 171.37,266.33
             174.32,261.76 177.07,253.46 176.68,248.00
             175.92,237.47 170.64,228.42 163.97,220.50
             160.45,216.32 155.85,212.97 153.50,208.00
             153.50,208.00 161.00,199.67 161.00,199.67
             165.93,201.96 171.76,207.85 176.83,211.31
             187.23,218.40 198.38,222.31 211.00,222.17
             217.01,222.09 222.96,220.58 228.50,218.33
             230.81,217.39 235.51,214.47 237.67,215.03
             239.39,215.47 241.42,217.59 242.66,218.84
             246.40,222.58 251.58,228.11 253.50,233.00 Z
           M 154.33,280.50
           C 154.33,280.50 168.67,298.00 168.67,298.00
             170.02,299.69 173.24,303.42 173.47,305.50
             173.75,308.10 171.04,310.39 169.47,312.17
             165.98,316.11 162.58,320.17 159.84,324.67
             153.31,335.40 149.52,352.15 148.50,364.67
             148.50,364.67 146.00,362.17 146.00,362.17
             146.00,362.17 144.33,365.50 144.33,365.50
             144.33,365.50 139.43,343.00 139.43,343.00
             136.22,330.81 131.53,323.27 123.26,313.83
             119.33,309.35 112.61,301.94 106.00,302.75
             98.48,303.67 95.43,311.53 89.33,314.67
             87.57,309.11 78.54,296.88 73.49,294.19
             70.80,292.76 68.90,292.88 66.00,293.00
             66.00,293.00 90.17,269.59 90.17,269.59
             90.17,269.59 103.50,256.37 103.50,256.37
             103.50,256.37 121.00,239.67 121.00,239.67
             121.00,239.67 136.00,225.50 136.00,225.50
             137.81,223.69 142.08,219.05 144.33,218.33
             146.73,217.57 148.48,219.10 150.17,220.59
             153.67,223.70 157.14,228.22 159.67,232.17
             169.80,247.92 169.60,267.87 154.33,280.50 Z
           M 66.00,293.00
           C 66.00,293.00 66.00,293.83 66.00,293.83
             66.00,293.83 65.17,293.00 65.17,293.00
             65.17,293.00 66.00,293.00 66.00,293.00 Z
           M 183.50,301.33
           C 183.50,301.33 183.50,302.17 183.50,302.17
             183.50,302.17 182.67,301.33 182.67,301.33
             182.67,301.33 183.50,301.33 183.50,301.33 Z" />
</svg>
