<?xml version="1.0" encoding="UTF-8" standalone="no"?>
<!DOCTYPE svg PUBLIC "-//W3C//DTD SVG 20010904//EN"
              "http://www.w3.org/TR/2001/REC-SVG-20010904/DTD/svg10.dtd">

<svg xmlns="http://www.w3.org/2000/svg"
     width="3.26667in" height="3.26667in"
     viewBox="0 0 294 294">
  <path id="Selection #1"
        fill="none" stroke="black" stroke-width="1"
        d="M 12.83,120.33
           C 7.91,123.29 7.02,127.73 5.00,132.83
             3.99,135.38 0.74,143.87 0.54,146.17
             0.29,149.05 1.62,151.83 2.55,154.50
             4.72,160.71 7.01,170.17 12.83,173.67
             12.83,173.67 5.49,198.67 5.49,198.67
             4.38,201.54 1.50,207.27 2.53,210.19
             3.27,212.27 6.76,215.17 8.67,216.18
             8.67,216.18 27.00,223.05 27.00,223.05
             44.86,231.76 63.82,246.37 78.67,259.54
             81.67,262.22 85.52,264.84 86.97,268.67
             89.92,276.37 87.56,286.36 94.52,291.95
             95.48,292.73 96.59,293.61 97.83,293.88
             100.47,294.47 103.14,291.99 105.33,290.77
             108.57,288.96 112.48,287.62 116.17,287.10
             127.43,285.63 130.13,286.04 141.17,287.10
             141.17,287.10 147.00,287.68 147.00,287.68
             147.00,287.68 167.00,286.17 167.00,286.17
             172.93,286.19 180.73,287.14 186.17,289.53
             189.01,290.78 193.42,294.49 196.17,293.88
             197.41,293.61 198.52,292.73 199.48,291.95
             206.89,285.99 203.66,275.65 207.36,267.83
             208.76,264.88 211.27,263.14 213.67,261.04
             213.67,261.04 228.67,248.33 228.67,248.33
             240.50,238.88 257.22,226.97 271.17,221.17
             276.94,218.77 289.28,216.37 291.47,210.19
             292.50,207.27 289.62,201.54 288.51,198.67
             288.51,198.67 281.17,173.67 281.17,173.67
             286.09,170.71 286.97,166.27 289.00,161.17
             290.01,158.62 293.26,150.12 293.46,147.83
             293.71,144.95 292.38,142.17 291.45,139.50
             289.28,133.29 286.99,123.83 281.17,120.33
             281.17,120.33 288.51,95.33 288.51,95.33
             289.62,92.46 292.50,86.73 291.47,83.81
             289.28,77.63 276.94,75.22 271.17,72.82
             257.22,67.02 240.50,55.12 228.67,45.67
             228.67,45.67 213.67,32.96 213.67,32.96
             211.27,30.86 208.76,29.12 207.36,26.17
             203.66,18.35 206.89,8.01 199.48,2.05
             198.52,1.27 197.41,0.39 196.17,0.12
             193.47,-0.48 188.47,3.52 185.33,4.81
             179.87,7.04 172.07,7.83 166.17,7.83
             166.17,7.83 147.00,6.32 147.00,6.32
             147.00,6.32 141.17,6.90 141.17,6.90
             130.13,7.96 127.43,8.37 116.17,6.90
             112.48,6.38 108.57,5.04 105.33,3.23
             103.14,2.01 100.47,-0.47 97.83,0.12
             96.59,0.39 95.48,1.27 94.52,2.05
             87.56,7.64 89.92,17.62 86.97,25.33
             85.52,29.16 81.67,31.78 78.67,34.46
             63.82,47.63 44.86,62.24 27.00,70.95
             27.00,70.95 8.67,77.82 8.67,77.82
             6.76,78.83 3.27,81.72 2.53,83.81
             1.50,86.73 4.38,92.46 5.49,95.33
             5.49,95.33 12.83,120.33 12.83,120.33 Z
           M 101.17,15.33
           C 111.27,20.48 125.98,19.76 137.00,18.43
             137.00,18.43 147.00,17.15 147.00,17.15
             147.00,17.15 167.83,19.42 167.83,19.42
             176.09,19.99 186.00,18.38 193.67,15.33
             195.36,24.32 197.14,33.45 200.50,42.00
             200.50,42.00 207.16,55.33 207.16,55.33
             210.84,62.69 215.36,76.38 217.00,84.50
             213.60,83.54 201.24,78.74 198.93,76.66
             195.10,73.17 189.24,62.20 185.72,57.87
             179.10,49.67 171.31,47.00 161.17,46.17
             156.48,32.72 137.52,32.72 132.83,46.17
             122.69,47.00 114.90,49.67 108.27,57.87
             104.76,62.20 98.90,73.17 95.07,76.66
             92.76,78.74 80.40,83.54 77.00,84.50
             78.66,76.28 82.85,63.73 86.43,56.17
             89.38,49.97 91.44,47.74 94.13,40.33
             94.13,40.33 101.17,15.33 101.17,15.33 Z
           M 83.67,39.50
           C 83.67,39.50 83.67,40.33 83.67,40.33
             83.67,40.33 82.83,39.50 82.83,39.50
             82.83,39.50 83.67,39.50 83.67,39.50 Z
           M 211.17,39.50
           C 211.17,39.50 211.17,40.33 211.17,40.33
             211.17,40.33 210.33,39.50 210.33,39.50
             210.33,39.50 211.17,39.50 211.17,39.50 Z
           M 82.83,40.33
           C 81.65,47.89 77.06,54.32 73.92,61.17
             73.92,61.17 69.22,73.67 69.22,73.67
             68.22,76.73 65.56,88.12 64.02,89.81
             61.93,92.07 49.05,96.70 45.47,103.67
             44.53,105.52 43.83,117.38 43.60,120.33
             43.60,120.33 39.78,147.00 39.78,147.00
             39.78,147.00 43.60,173.67 43.60,173.67
             43.83,176.62 44.53,188.47 45.47,190.32
             49.05,197.30 61.93,201.92 64.02,204.19
             65.56,205.88 68.22,217.27 69.22,220.33
             69.22,220.33 73.92,232.83 73.92,232.83
             77.06,239.68 81.65,246.11 82.83,253.67
             77.88,250.77 72.49,245.60 67.83,241.83
             55.18,231.62 30.73,212.82 15.33,208.67
             15.33,208.67 23.32,182.83 23.32,182.83
             23.32,182.83 25.57,162.00 25.57,162.00
             25.57,162.00 27.68,147.00 27.68,147.00
             27.68,147.00 25.57,132.00 25.57,132.00
             25.57,132.00 23.32,111.17 23.32,111.17
             23.32,111.17 15.33,85.33 15.33,85.33
             30.73,81.17 55.18,62.38 67.83,52.17
             72.49,48.40 77.88,43.23 82.83,40.33 Z
           M 212.00,40.33
           C 226.61,52.32 240.82,64.75 257.00,74.66
             263.52,78.65 271.31,83.35 278.67,85.33
             278.67,85.33 270.68,111.17 270.68,111.17
             270.68,111.17 268.43,132.00 268.43,132.00
             268.43,132.00 266.32,147.00 266.32,147.00
             266.32,147.00 268.43,162.00 268.43,162.00
             268.43,162.00 270.68,182.83 270.68,182.83
             270.68,182.83 278.67,208.67 278.67,208.67
             263.27,212.82 238.82,231.62 226.17,241.83
             221.51,245.60 216.12,250.77 211.17,253.67
             212.35,246.11 216.94,239.68 220.07,232.83
             220.07,232.83 224.77,220.33 224.77,220.33
             225.77,217.27 228.44,205.88 229.98,204.19
             232.07,201.92 244.95,197.30 248.52,190.32
             249.47,188.47 250.17,176.62 250.40,173.67
             250.40,173.67 254.18,146.17 254.18,146.17
             254.18,146.17 251.40,128.67 251.40,128.67
             251.40,128.67 249.85,114.50 249.85,114.50
             249.36,110.77 250.04,105.94 248.05,102.87
             243.61,95.99 232.21,92.22 229.98,89.81
             228.43,88.11 226.41,78.97 225.57,76.17
             222.67,66.54 220.49,61.68 215.87,52.83
             214.02,49.31 210.92,44.34 212.00,40.33 Z
           M 206.17,107.83
           C 206.17,107.83 187.83,95.00 187.83,95.00
             187.83,95.00 172.00,87.72 172.00,87.72
             165.69,83.51 154.92,74.81 147.00,74.81
             139.07,74.81 128.31,83.51 122.00,87.72
             122.00,87.72 106.17,95.00 106.17,95.00
             106.17,95.00 87.83,107.83 87.83,107.83
             89.75,94.26 92.59,94.31 100.43,83.67
             100.43,83.67 111.44,67.83 111.44,67.83
             113.11,65.34 115.43,61.23 117.98,59.75
             120.70,58.17 127.88,57.24 131.17,56.83
             142.93,55.10 151.92,55.26 163.67,56.83
             166.76,57.32 173.46,58.27 176.02,59.75
             179.00,61.48 183.70,69.63 185.93,72.83
             185.93,72.83 203.54,97.00 203.54,97.00
             204.66,99.23 205.80,105.21 206.17,107.83 Z
           M 145.33,85.33
           C 145.33,85.33 124.57,104.50 124.57,104.50
             120.42,108.98 118.04,114.92 112.83,117.83
             112.95,104.78 118.22,97.22 129.50,90.94
             135.04,87.86 139.02,86.22 145.33,85.33 Z
           M 181.17,117.83
           C 176.06,114.97 173.97,109.58 170.19,105.33
             164.71,99.17 155.34,91.16 148.67,86.17
             152.82,85.01 158.31,87.69 162.00,89.59
             174.52,96.02 181.03,103.27 181.17,117.83 Z
           M 84.50,91.17
           C 84.50,91.17 84.50,92.00 84.50,92.00
             84.50,92.00 83.67,91.17 83.67,91.17
             83.67,91.17 84.50,91.17 84.50,91.17 Z
           M 210.33,91.17
           C 210.33,91.17 210.33,92.00 210.33,92.00
             210.33,92.00 209.50,91.17 209.50,91.17
             209.50,91.17 210.33,91.17 210.33,91.17 Z
           M 83.67,92.00
           C 83.67,92.00 78.54,100.33 78.54,100.33
             78.54,100.33 72.11,126.17 72.11,126.17
             70.27,133.49 67.89,139.31 67.89,147.00
             67.89,154.69 70.27,160.51 72.11,167.83
             72.11,167.83 78.54,193.67 78.54,193.67
             78.54,193.67 83.67,202.00 83.67,202.00
             83.67,202.00 64.50,194.50 64.50,194.50
             64.50,194.50 57.02,190.01 57.02,190.01
             57.02,190.01 55.93,184.50 55.93,184.50
             55.93,184.50 54.44,170.33 54.44,170.33
             54.44,170.33 50.62,147.00 50.62,147.00
             50.62,147.00 54.37,124.50 54.37,124.50
             54.37,124.50 55.93,109.50 55.93,109.50
             55.93,109.50 57.02,103.99 57.02,103.99
             57.02,103.99 64.50,99.50 64.50,99.50
             64.50,99.50 83.67,92.00 83.67,92.00 Z
           M 211.17,92.00
           C 211.17,92.00 229.50,99.50 229.50,99.50
             229.50,99.50 236.98,103.99 236.98,103.99
             236.98,103.99 238.07,109.50 238.07,109.50
             238.07,109.50 239.56,123.67 239.56,123.67
             239.56,123.67 243.38,147.00 243.38,147.00
             243.38,147.00 239.63,169.50 239.63,169.50
             239.63,169.50 238.07,184.50 238.07,184.50
             238.07,184.50 236.98,190.01 236.98,190.01
             236.98,190.01 229.50,194.50 229.50,194.50
             229.50,194.50 210.33,202.00 210.33,202.00
             210.33,202.00 215.46,193.67 215.46,193.67
             215.46,193.67 222.31,166.17 222.31,166.17
             224.86,156.12 227.27,151.25 225.57,140.33
             225.57,140.33 221.47,124.50 221.47,124.50
             221.47,124.50 216.02,102.00 216.02,102.00
             214.72,97.71 211.44,95.56 211.17,92.00 Z
           M 150.33,95.33
           C 150.33,95.33 143.67,96.17 143.67,96.17
             146.41,93.74 147.02,93.98 150.33,95.33 Z
           M 105.33,104.50
           C 105.33,104.50 105.33,105.33 105.33,105.33
             105.33,105.33 104.50,104.50 104.50,104.50
             104.50,104.50 105.33,104.50 105.33,104.50 Z
           M 189.50,104.50
           C 189.50,104.50 189.50,105.33 189.50,105.33
             189.50,105.33 188.67,104.50 188.67,104.50
             188.67,104.50 189.50,104.50 189.50,104.50 Z
           M 104.50,105.33
           C 102.55,112.57 101.20,112.90 101.12,121.17
             101.16,123.59 101.79,130.32 101.12,132.00
             99.78,134.99 91.03,142.15 91.03,147.00
             91.03,151.85 99.78,159.01 101.12,162.00
             101.79,163.67 101.14,171.17 101.12,173.67
             101.25,180.78 102.80,182.33 104.50,188.67
             95.41,185.31 90.23,178.76 85.97,170.33
             82.73,163.97 79.50,155.01 79.17,147.83
             78.64,136.77 87.21,117.88 95.41,110.61
             98.05,108.26 101.21,106.55 104.50,105.33 Z
           M 190.33,105.33
           C 193.16,106.85 196.18,108.47 198.59,110.61
             206.82,117.91 214.86,135.92 214.86,147.00
             214.86,154.12 211.23,164.03 208.03,170.33
             203.77,178.76 198.59,185.31 189.50,188.67
             191.45,181.43 192.80,181.10 192.88,172.83
             192.84,170.41 192.21,163.67 192.88,162.00
             194.22,159.01 202.97,151.85 202.97,147.00
             202.97,142.15 194.22,134.99 192.81,132.00
             192.81,132.00 192.81,117.00 192.81,117.00
             192.27,113.14 189.86,108.62 190.33,105.33 Z
           M 142.00,107.27
           C 159.85,105.32 173.86,115.53 178.53,132.83
             180.24,139.14 179.14,141.18 179.12,147.00
             179.14,151.24 179.93,154.14 179.12,158.67
             176.64,172.35 165.98,184.40 152.00,186.73
             134.67,189.62 119.88,177.48 115.47,161.17
             113.76,154.86 114.86,152.82 114.87,147.00
             114.86,142.76 114.07,139.86 114.87,135.33
             117.50,120.84 127.79,110.46 142.00,107.27 Z
           M 121.17,141.17
           C 121.17,141.17 125.33,139.50 125.33,139.50
             125.33,139.50 125.33,154.50 125.33,154.50
             125.33,154.50 121.17,152.83 121.17,152.83
             120.34,154.86 119.42,156.45 120.40,158.66
             121.32,160.75 124.39,163.08 126.17,164.57
             130.88,168.52 140.66,176.69 147.00,176.69
             152.38,176.69 160.43,170.61 164.50,167.32
             167.20,165.14 173.78,160.52 174.02,157.00
             174.12,155.52 173.38,154.15 172.83,152.83
             172.83,152.83 168.67,154.50 168.67,154.50
             168.67,154.50 168.67,139.50 168.67,139.50
             168.67,139.50 172.83,141.17 172.83,141.17
             173.66,139.14 174.57,137.55 173.60,135.34
             172.68,133.25 169.61,130.92 167.83,129.43
             163.12,125.48 153.34,117.31 147.00,117.31
             141.62,117.31 133.57,123.39 129.50,126.67
             126.80,128.86 120.22,133.47 119.98,137.00
             119.88,138.47 120.62,139.85 121.17,141.17 Z
           M 141.17,134.50
           C 140.23,136.20 138.79,138.27 139.28,140.30
             140.55,145.50 153.45,145.50 154.72,140.30
             155.21,138.27 153.77,136.20 152.83,134.50
             158.90,136.52 157.08,144.28 157.22,149.50
             157.27,151.46 157.20,155.12 156.39,156.88
             155.50,158.80 154.63,158.90 152.83,159.50
             153.77,157.80 155.21,155.73 154.72,153.70
             153.45,148.50 140.55,148.50 139.28,153.70
             138.79,155.73 140.23,157.80 141.17,159.50
             139.37,158.90 138.50,158.80 137.61,156.88
             136.80,155.12 136.73,151.46 136.78,149.50
             136.92,144.28 135.10,136.52 141.17,134.50 Z
           M 14.50,137.83
           C 14.50,137.83 15.27,147.00 15.27,147.00
             15.27,147.00 14.50,156.17 14.50,156.17
             10.65,149.87 10.65,144.12 14.50,137.83 Z
           M 280.33,137.83
           C 280.33,137.83 282.52,147.00 282.52,147.00
             282.52,147.00 280.33,156.17 280.33,156.17
             278.23,151.03 278.23,142.97 280.33,137.83 Z
           M 126.17,138.67
           C 126.17,138.67 126.17,139.50 126.17,139.50
             126.17,139.50 125.33,138.67 125.33,138.67
             125.33,138.67 126.17,138.67 126.17,138.67 Z
           M 168.67,138.67
           C 168.67,138.67 168.67,139.50 168.67,139.50
             168.67,139.50 167.83,138.67 167.83,138.67
             167.83,138.67 168.67,138.67 168.67,138.67 Z
           M 102.83,142.83
           C 102.83,142.83 102.83,151.17 102.83,151.17
             100.79,148.00 100.79,146.00 102.83,142.83 Z
           M 192.00,142.83
           C 192.00,142.83 192.00,151.17 192.00,151.17
             190.90,148.38 190.90,145.62 192.00,142.83 Z
           M 126.17,154.50
           C 126.17,154.50 126.17,155.33 126.17,155.33
             126.17,155.33 125.33,154.50 125.33,154.50
             125.33,154.50 126.17,154.50 126.17,154.50 Z
           M 168.67,154.50
           C 168.67,154.50 168.67,155.33 168.67,155.33
             168.67,155.33 167.83,154.50 167.83,154.50
             167.83,154.50 168.67,154.50 168.67,154.50 Z
           M 113.73,176.17
           C 113.73,176.17 123.81,188.67 123.81,188.67
             123.81,188.67 145.33,207.83 145.33,207.83
             141.40,208.93 136.37,206.57 132.83,204.83
             123.27,200.12 116.70,195.24 113.73,184.50
             112.97,181.42 112.47,179.20 113.73,176.17 Z
           M 181.17,176.17
           C 181.05,189.22 175.77,196.77 164.50,203.06
             158.96,206.14 154.97,207.77 148.67,208.67
             148.67,208.67 162.83,196.09 162.83,196.09
             169.65,189.75 174.19,183.71 179.50,176.17
             179.50,176.17 181.17,176.17 181.17,176.17 Z
           M 88.67,186.17
           C 96.30,191.88 98.83,194.96 107.83,199.97
             107.83,199.97 122.00,206.27 122.00,206.27
             128.28,210.47 139.87,219.84 147.83,219.15
             156.01,218.44 165.44,210.66 172.00,206.27
             172.00,206.27 187.83,199.00 187.83,199.00
             187.83,199.00 206.17,186.17 206.17,186.17
             205.80,188.79 204.66,194.77 203.54,197.00
             203.54,197.00 185.93,221.17 185.93,221.17
             183.70,224.37 179.00,232.52 176.02,234.25
             173.30,235.82 166.12,236.76 162.83,237.17
             151.07,238.90 142.07,238.74 130.33,237.17
             127.24,236.67 120.54,235.73 117.98,234.25
             115.00,232.52 110.30,224.37 108.07,221.17
             108.07,221.17 94.67,202.83 94.67,202.83
             91.23,198.52 87.04,191.97 88.67,186.17 Z
           M 105.33,188.67
           C 105.33,188.67 105.33,189.50 105.33,189.50
             105.33,189.50 104.50,188.67 104.50,188.67
             104.50,188.67 105.33,188.67 105.33,188.67 Z
           M 189.50,188.67
           C 189.50,188.67 189.50,189.50 189.50,189.50
             189.50,189.50 188.67,188.67 188.67,188.67
             188.67,188.67 189.50,188.67 189.50,188.67 Z
           M 150.33,197.83
           C 147.59,200.26 146.98,200.02 143.67,198.67
             143.67,198.67 150.33,197.83 150.33,197.83 Z
           M 84.50,202.00
           C 84.50,202.00 84.50,202.83 84.50,202.83
             84.50,202.83 83.67,202.00 83.67,202.00
             83.67,202.00 84.50,202.00 84.50,202.00 Z
           M 210.33,202.00
           C 210.33,202.00 210.33,202.83 210.33,202.83
             210.33,202.83 209.50,202.00 209.50,202.00
             209.50,202.00 210.33,202.00 210.33,202.00 Z
           M 77.83,209.50
           C 81.46,211.03 92.77,215.26 95.07,217.34
             98.90,220.82 104.76,231.80 108.27,236.13
             114.90,244.32 122.69,247.00 132.83,247.83
             137.52,261.27 156.48,261.27 161.17,247.83
             171.31,247.00 179.10,244.32 185.72,236.13
             189.24,231.80 195.10,220.82 198.93,217.34
             201.24,215.26 213.60,210.46 217.00,209.50
             215.36,217.62 210.84,231.31 207.16,238.67
             207.16,238.67 200.50,252.00 200.50,252.00
             197.14,260.55 195.36,269.67 193.67,278.67
             186.00,275.62 176.09,274.01 167.83,274.57
             167.83,274.57 147.00,276.85 147.00,276.85
             147.00,276.85 126.17,274.57 126.17,274.57
             117.91,274.01 108.00,275.62 100.33,278.67
             98.64,269.67 96.86,260.55 93.50,252.00
             93.50,252.00 84.00,232.00 84.00,232.00
             82.08,227.22 76.90,214.16 77.83,209.50 Z
           M 83.67,253.67
           C 83.67,253.67 83.67,254.50 83.67,254.50
             83.67,254.50 82.83,253.67 82.83,253.67
             82.83,253.67 83.67,253.67 83.67,253.67 Z
           M 211.17,253.67
           C 211.17,253.67 211.17,254.50 211.17,254.50
             211.17,254.50 210.33,253.67 210.33,253.67
             210.33,253.67 211.17,253.67 211.17,253.67 Z" />
</svg>
